G75*
%MOIN*%
%OFA0B0*%
%FSLAX25Y25*%
%IPPOS*%
%LPD*%
%AMOC8*
5,1,8,0,0,1.08239X$1,22.5*
%
%ADD10C,0.00600*%
%ADD11C,0.00000*%
D10*
X0073544Y0042166D02*
X0388505Y0042166D01*
X0389456Y0042177D01*
X0390407Y0042212D01*
X0391357Y0042269D01*
X0392305Y0042350D01*
X0393251Y0042453D01*
X0394194Y0042579D01*
X0395133Y0042728D01*
X0396069Y0042899D01*
X0397000Y0043094D01*
X0397927Y0043310D01*
X0398848Y0043549D01*
X0399763Y0043810D01*
X0400671Y0044093D01*
X0401572Y0044398D01*
X0402466Y0044724D01*
X0403351Y0045073D01*
X0404228Y0045442D01*
X0405096Y0045832D01*
X0405953Y0046244D01*
X0406801Y0046676D01*
X0407638Y0047128D01*
X0408464Y0047600D01*
X0409278Y0048092D01*
X0410080Y0048604D01*
X0410870Y0049135D01*
X0411646Y0049685D01*
X0412409Y0050253D01*
X0413158Y0050840D01*
X0413892Y0051445D01*
X0414612Y0052067D01*
X0415317Y0052707D01*
X0416005Y0053363D01*
X0416678Y0054036D01*
X0417334Y0054724D01*
X0417974Y0055429D01*
X0418596Y0056149D01*
X0419201Y0056883D01*
X0419788Y0057632D01*
X0420356Y0058395D01*
X0420906Y0059171D01*
X0421437Y0059961D01*
X0421949Y0060763D01*
X0422441Y0061577D01*
X0422913Y0062403D01*
X0423365Y0063240D01*
X0423797Y0064088D01*
X0424209Y0064945D01*
X0424599Y0065813D01*
X0424968Y0066690D01*
X0425317Y0067575D01*
X0425643Y0068469D01*
X0425948Y0069370D01*
X0426231Y0070278D01*
X0426492Y0071193D01*
X0426731Y0072114D01*
X0426947Y0073041D01*
X0427142Y0073972D01*
X0427313Y0074908D01*
X0427462Y0075847D01*
X0427588Y0076790D01*
X0427691Y0077736D01*
X0427772Y0078684D01*
X0427829Y0079634D01*
X0427864Y0080585D01*
X0427875Y0081536D01*
X0427875Y0120906D01*
X0420001Y0136654D01*
X0420001Y0341379D01*
X0427875Y0357127D01*
X0427875Y0396497D01*
X0427864Y0397448D01*
X0427829Y0398399D01*
X0427772Y0399349D01*
X0427691Y0400297D01*
X0427588Y0401243D01*
X0427462Y0402186D01*
X0427313Y0403125D01*
X0427142Y0404061D01*
X0426947Y0404992D01*
X0426731Y0405919D01*
X0426492Y0406840D01*
X0426231Y0407755D01*
X0425948Y0408663D01*
X0425643Y0409564D01*
X0425317Y0410458D01*
X0424968Y0411343D01*
X0424599Y0412220D01*
X0424209Y0413088D01*
X0423797Y0413945D01*
X0423365Y0414793D01*
X0422913Y0415630D01*
X0422441Y0416456D01*
X0421949Y0417270D01*
X0421437Y0418072D01*
X0420906Y0418862D01*
X0420356Y0419638D01*
X0419788Y0420401D01*
X0419201Y0421150D01*
X0418596Y0421884D01*
X0417974Y0422604D01*
X0417334Y0423309D01*
X0416678Y0423997D01*
X0416005Y0424670D01*
X0415317Y0425326D01*
X0414612Y0425966D01*
X0413892Y0426588D01*
X0413158Y0427193D01*
X0412409Y0427780D01*
X0411646Y0428348D01*
X0410870Y0428898D01*
X0410080Y0429429D01*
X0409278Y0429941D01*
X0408464Y0430433D01*
X0407638Y0430905D01*
X0406801Y0431357D01*
X0405953Y0431789D01*
X0405096Y0432201D01*
X0404228Y0432591D01*
X0403351Y0432960D01*
X0402466Y0433309D01*
X0401572Y0433635D01*
X0400671Y0433940D01*
X0399763Y0434223D01*
X0398848Y0434484D01*
X0397927Y0434723D01*
X0397000Y0434939D01*
X0396069Y0435134D01*
X0395133Y0435305D01*
X0394194Y0435454D01*
X0393251Y0435580D01*
X0392305Y0435683D01*
X0391357Y0435764D01*
X0390407Y0435821D01*
X0389456Y0435856D01*
X0388505Y0435867D01*
X0073544Y0435867D01*
X0072593Y0435856D01*
X0071642Y0435821D01*
X0070692Y0435764D01*
X0069744Y0435683D01*
X0068798Y0435580D01*
X0067855Y0435454D01*
X0066916Y0435305D01*
X0065980Y0435134D01*
X0065049Y0434939D01*
X0064122Y0434723D01*
X0063201Y0434484D01*
X0062286Y0434223D01*
X0061378Y0433940D01*
X0060477Y0433635D01*
X0059583Y0433309D01*
X0058698Y0432960D01*
X0057821Y0432591D01*
X0056953Y0432201D01*
X0056096Y0431789D01*
X0055248Y0431357D01*
X0054411Y0430905D01*
X0053585Y0430433D01*
X0052771Y0429941D01*
X0051969Y0429429D01*
X0051179Y0428898D01*
X0050403Y0428348D01*
X0049640Y0427780D01*
X0048891Y0427193D01*
X0048157Y0426588D01*
X0047437Y0425966D01*
X0046732Y0425326D01*
X0046044Y0424670D01*
X0045371Y0423997D01*
X0044715Y0423309D01*
X0044075Y0422604D01*
X0043453Y0421884D01*
X0042848Y0421150D01*
X0042261Y0420401D01*
X0041693Y0419638D01*
X0041143Y0418862D01*
X0040612Y0418072D01*
X0040100Y0417270D01*
X0039608Y0416456D01*
X0039136Y0415630D01*
X0038684Y0414793D01*
X0038252Y0413945D01*
X0037840Y0413088D01*
X0037450Y0412220D01*
X0037081Y0411343D01*
X0036732Y0410458D01*
X0036406Y0409564D01*
X0036101Y0408663D01*
X0035818Y0407755D01*
X0035557Y0406840D01*
X0035318Y0405919D01*
X0035102Y0404992D01*
X0034907Y0404061D01*
X0034736Y0403125D01*
X0034587Y0402186D01*
X0034461Y0401243D01*
X0034358Y0400297D01*
X0034277Y0399349D01*
X0034220Y0398399D01*
X0034185Y0397448D01*
X0034174Y0396497D01*
X0034174Y0081536D01*
X0034185Y0080585D01*
X0034220Y0079634D01*
X0034277Y0078684D01*
X0034358Y0077736D01*
X0034461Y0076790D01*
X0034587Y0075847D01*
X0034736Y0074908D01*
X0034907Y0073972D01*
X0035102Y0073041D01*
X0035318Y0072114D01*
X0035557Y0071193D01*
X0035818Y0070278D01*
X0036101Y0069370D01*
X0036406Y0068469D01*
X0036732Y0067575D01*
X0037081Y0066690D01*
X0037450Y0065813D01*
X0037840Y0064945D01*
X0038252Y0064088D01*
X0038684Y0063240D01*
X0039136Y0062403D01*
X0039608Y0061577D01*
X0040100Y0060763D01*
X0040612Y0059961D01*
X0041143Y0059171D01*
X0041693Y0058395D01*
X0042261Y0057632D01*
X0042848Y0056883D01*
X0043453Y0056149D01*
X0044075Y0055429D01*
X0044715Y0054724D01*
X0045371Y0054036D01*
X0046044Y0053363D01*
X0046732Y0052707D01*
X0047437Y0052067D01*
X0048157Y0051445D01*
X0048891Y0050840D01*
X0049640Y0050253D01*
X0050403Y0049685D01*
X0051179Y0049135D01*
X0051969Y0048604D01*
X0052771Y0048092D01*
X0053585Y0047600D01*
X0054411Y0047128D01*
X0055248Y0046676D01*
X0056096Y0046244D01*
X0056953Y0045832D01*
X0057821Y0045442D01*
X0058698Y0045073D01*
X0059583Y0044724D01*
X0060477Y0044398D01*
X0061378Y0044093D01*
X0062286Y0043810D01*
X0063201Y0043549D01*
X0064122Y0043310D01*
X0065049Y0043094D01*
X0065980Y0042899D01*
X0066916Y0042728D01*
X0067855Y0042579D01*
X0068798Y0042453D01*
X0069744Y0042350D01*
X0070692Y0042269D01*
X0071642Y0042212D01*
X0072593Y0042177D01*
X0073544Y0042166D01*
D11*
X0059371Y0073662D02*
X0059373Y0073820D01*
X0059379Y0073978D01*
X0059389Y0074136D01*
X0059403Y0074294D01*
X0059421Y0074451D01*
X0059442Y0074608D01*
X0059468Y0074764D01*
X0059498Y0074920D01*
X0059531Y0075075D01*
X0059569Y0075228D01*
X0059610Y0075381D01*
X0059655Y0075533D01*
X0059704Y0075684D01*
X0059757Y0075833D01*
X0059813Y0075981D01*
X0059873Y0076127D01*
X0059937Y0076272D01*
X0060005Y0076415D01*
X0060076Y0076557D01*
X0060150Y0076697D01*
X0060228Y0076834D01*
X0060310Y0076970D01*
X0060394Y0077104D01*
X0060483Y0077235D01*
X0060574Y0077364D01*
X0060669Y0077491D01*
X0060766Y0077616D01*
X0060867Y0077738D01*
X0060971Y0077857D01*
X0061078Y0077974D01*
X0061188Y0078088D01*
X0061301Y0078199D01*
X0061416Y0078308D01*
X0061534Y0078413D01*
X0061655Y0078515D01*
X0061778Y0078615D01*
X0061904Y0078711D01*
X0062032Y0078804D01*
X0062162Y0078894D01*
X0062295Y0078980D01*
X0062430Y0079064D01*
X0062566Y0079143D01*
X0062705Y0079220D01*
X0062846Y0079292D01*
X0062988Y0079362D01*
X0063132Y0079427D01*
X0063278Y0079489D01*
X0063425Y0079547D01*
X0063574Y0079602D01*
X0063724Y0079653D01*
X0063875Y0079700D01*
X0064027Y0079743D01*
X0064180Y0079782D01*
X0064335Y0079818D01*
X0064490Y0079849D01*
X0064646Y0079877D01*
X0064802Y0079901D01*
X0064959Y0079921D01*
X0065117Y0079937D01*
X0065274Y0079949D01*
X0065433Y0079957D01*
X0065591Y0079961D01*
X0065749Y0079961D01*
X0065907Y0079957D01*
X0066066Y0079949D01*
X0066223Y0079937D01*
X0066381Y0079921D01*
X0066538Y0079901D01*
X0066694Y0079877D01*
X0066850Y0079849D01*
X0067005Y0079818D01*
X0067160Y0079782D01*
X0067313Y0079743D01*
X0067465Y0079700D01*
X0067616Y0079653D01*
X0067766Y0079602D01*
X0067915Y0079547D01*
X0068062Y0079489D01*
X0068208Y0079427D01*
X0068352Y0079362D01*
X0068494Y0079292D01*
X0068635Y0079220D01*
X0068774Y0079143D01*
X0068910Y0079064D01*
X0069045Y0078980D01*
X0069178Y0078894D01*
X0069308Y0078804D01*
X0069436Y0078711D01*
X0069562Y0078615D01*
X0069685Y0078515D01*
X0069806Y0078413D01*
X0069924Y0078308D01*
X0070039Y0078199D01*
X0070152Y0078088D01*
X0070262Y0077974D01*
X0070369Y0077857D01*
X0070473Y0077738D01*
X0070574Y0077616D01*
X0070671Y0077491D01*
X0070766Y0077364D01*
X0070857Y0077235D01*
X0070946Y0077104D01*
X0071030Y0076970D01*
X0071112Y0076834D01*
X0071190Y0076697D01*
X0071264Y0076557D01*
X0071335Y0076415D01*
X0071403Y0076272D01*
X0071467Y0076127D01*
X0071527Y0075981D01*
X0071583Y0075833D01*
X0071636Y0075684D01*
X0071685Y0075533D01*
X0071730Y0075381D01*
X0071771Y0075228D01*
X0071809Y0075075D01*
X0071842Y0074920D01*
X0071872Y0074764D01*
X0071898Y0074608D01*
X0071919Y0074451D01*
X0071937Y0074294D01*
X0071951Y0074136D01*
X0071961Y0073978D01*
X0071967Y0073820D01*
X0071969Y0073662D01*
X0071967Y0073504D01*
X0071961Y0073346D01*
X0071951Y0073188D01*
X0071937Y0073030D01*
X0071919Y0072873D01*
X0071898Y0072716D01*
X0071872Y0072560D01*
X0071842Y0072404D01*
X0071809Y0072249D01*
X0071771Y0072096D01*
X0071730Y0071943D01*
X0071685Y0071791D01*
X0071636Y0071640D01*
X0071583Y0071491D01*
X0071527Y0071343D01*
X0071467Y0071197D01*
X0071403Y0071052D01*
X0071335Y0070909D01*
X0071264Y0070767D01*
X0071190Y0070627D01*
X0071112Y0070490D01*
X0071030Y0070354D01*
X0070946Y0070220D01*
X0070857Y0070089D01*
X0070766Y0069960D01*
X0070671Y0069833D01*
X0070574Y0069708D01*
X0070473Y0069586D01*
X0070369Y0069467D01*
X0070262Y0069350D01*
X0070152Y0069236D01*
X0070039Y0069125D01*
X0069924Y0069016D01*
X0069806Y0068911D01*
X0069685Y0068809D01*
X0069562Y0068709D01*
X0069436Y0068613D01*
X0069308Y0068520D01*
X0069178Y0068430D01*
X0069045Y0068344D01*
X0068910Y0068260D01*
X0068774Y0068181D01*
X0068635Y0068104D01*
X0068494Y0068032D01*
X0068352Y0067962D01*
X0068208Y0067897D01*
X0068062Y0067835D01*
X0067915Y0067777D01*
X0067766Y0067722D01*
X0067616Y0067671D01*
X0067465Y0067624D01*
X0067313Y0067581D01*
X0067160Y0067542D01*
X0067005Y0067506D01*
X0066850Y0067475D01*
X0066694Y0067447D01*
X0066538Y0067423D01*
X0066381Y0067403D01*
X0066223Y0067387D01*
X0066066Y0067375D01*
X0065907Y0067367D01*
X0065749Y0067363D01*
X0065591Y0067363D01*
X0065433Y0067367D01*
X0065274Y0067375D01*
X0065117Y0067387D01*
X0064959Y0067403D01*
X0064802Y0067423D01*
X0064646Y0067447D01*
X0064490Y0067475D01*
X0064335Y0067506D01*
X0064180Y0067542D01*
X0064027Y0067581D01*
X0063875Y0067624D01*
X0063724Y0067671D01*
X0063574Y0067722D01*
X0063425Y0067777D01*
X0063278Y0067835D01*
X0063132Y0067897D01*
X0062988Y0067962D01*
X0062846Y0068032D01*
X0062705Y0068104D01*
X0062566Y0068181D01*
X0062430Y0068260D01*
X0062295Y0068344D01*
X0062162Y0068430D01*
X0062032Y0068520D01*
X0061904Y0068613D01*
X0061778Y0068709D01*
X0061655Y0068809D01*
X0061534Y0068911D01*
X0061416Y0069016D01*
X0061301Y0069125D01*
X0061188Y0069236D01*
X0061078Y0069350D01*
X0060971Y0069467D01*
X0060867Y0069586D01*
X0060766Y0069708D01*
X0060669Y0069833D01*
X0060574Y0069960D01*
X0060483Y0070089D01*
X0060394Y0070220D01*
X0060310Y0070354D01*
X0060228Y0070490D01*
X0060150Y0070627D01*
X0060076Y0070767D01*
X0060005Y0070909D01*
X0059937Y0071052D01*
X0059873Y0071197D01*
X0059813Y0071343D01*
X0059757Y0071491D01*
X0059704Y0071640D01*
X0059655Y0071791D01*
X0059610Y0071943D01*
X0059569Y0072096D01*
X0059531Y0072249D01*
X0059498Y0072404D01*
X0059468Y0072560D01*
X0059442Y0072716D01*
X0059421Y0072873D01*
X0059403Y0073030D01*
X0059389Y0073188D01*
X0059379Y0073346D01*
X0059373Y0073504D01*
X0059371Y0073662D01*
X0059371Y0404371D02*
X0059373Y0404529D01*
X0059379Y0404687D01*
X0059389Y0404845D01*
X0059403Y0405003D01*
X0059421Y0405160D01*
X0059442Y0405317D01*
X0059468Y0405473D01*
X0059498Y0405629D01*
X0059531Y0405784D01*
X0059569Y0405937D01*
X0059610Y0406090D01*
X0059655Y0406242D01*
X0059704Y0406393D01*
X0059757Y0406542D01*
X0059813Y0406690D01*
X0059873Y0406836D01*
X0059937Y0406981D01*
X0060005Y0407124D01*
X0060076Y0407266D01*
X0060150Y0407406D01*
X0060228Y0407543D01*
X0060310Y0407679D01*
X0060394Y0407813D01*
X0060483Y0407944D01*
X0060574Y0408073D01*
X0060669Y0408200D01*
X0060766Y0408325D01*
X0060867Y0408447D01*
X0060971Y0408566D01*
X0061078Y0408683D01*
X0061188Y0408797D01*
X0061301Y0408908D01*
X0061416Y0409017D01*
X0061534Y0409122D01*
X0061655Y0409224D01*
X0061778Y0409324D01*
X0061904Y0409420D01*
X0062032Y0409513D01*
X0062162Y0409603D01*
X0062295Y0409689D01*
X0062430Y0409773D01*
X0062566Y0409852D01*
X0062705Y0409929D01*
X0062846Y0410001D01*
X0062988Y0410071D01*
X0063132Y0410136D01*
X0063278Y0410198D01*
X0063425Y0410256D01*
X0063574Y0410311D01*
X0063724Y0410362D01*
X0063875Y0410409D01*
X0064027Y0410452D01*
X0064180Y0410491D01*
X0064335Y0410527D01*
X0064490Y0410558D01*
X0064646Y0410586D01*
X0064802Y0410610D01*
X0064959Y0410630D01*
X0065117Y0410646D01*
X0065274Y0410658D01*
X0065433Y0410666D01*
X0065591Y0410670D01*
X0065749Y0410670D01*
X0065907Y0410666D01*
X0066066Y0410658D01*
X0066223Y0410646D01*
X0066381Y0410630D01*
X0066538Y0410610D01*
X0066694Y0410586D01*
X0066850Y0410558D01*
X0067005Y0410527D01*
X0067160Y0410491D01*
X0067313Y0410452D01*
X0067465Y0410409D01*
X0067616Y0410362D01*
X0067766Y0410311D01*
X0067915Y0410256D01*
X0068062Y0410198D01*
X0068208Y0410136D01*
X0068352Y0410071D01*
X0068494Y0410001D01*
X0068635Y0409929D01*
X0068774Y0409852D01*
X0068910Y0409773D01*
X0069045Y0409689D01*
X0069178Y0409603D01*
X0069308Y0409513D01*
X0069436Y0409420D01*
X0069562Y0409324D01*
X0069685Y0409224D01*
X0069806Y0409122D01*
X0069924Y0409017D01*
X0070039Y0408908D01*
X0070152Y0408797D01*
X0070262Y0408683D01*
X0070369Y0408566D01*
X0070473Y0408447D01*
X0070574Y0408325D01*
X0070671Y0408200D01*
X0070766Y0408073D01*
X0070857Y0407944D01*
X0070946Y0407813D01*
X0071030Y0407679D01*
X0071112Y0407543D01*
X0071190Y0407406D01*
X0071264Y0407266D01*
X0071335Y0407124D01*
X0071403Y0406981D01*
X0071467Y0406836D01*
X0071527Y0406690D01*
X0071583Y0406542D01*
X0071636Y0406393D01*
X0071685Y0406242D01*
X0071730Y0406090D01*
X0071771Y0405937D01*
X0071809Y0405784D01*
X0071842Y0405629D01*
X0071872Y0405473D01*
X0071898Y0405317D01*
X0071919Y0405160D01*
X0071937Y0405003D01*
X0071951Y0404845D01*
X0071961Y0404687D01*
X0071967Y0404529D01*
X0071969Y0404371D01*
X0071967Y0404213D01*
X0071961Y0404055D01*
X0071951Y0403897D01*
X0071937Y0403739D01*
X0071919Y0403582D01*
X0071898Y0403425D01*
X0071872Y0403269D01*
X0071842Y0403113D01*
X0071809Y0402958D01*
X0071771Y0402805D01*
X0071730Y0402652D01*
X0071685Y0402500D01*
X0071636Y0402349D01*
X0071583Y0402200D01*
X0071527Y0402052D01*
X0071467Y0401906D01*
X0071403Y0401761D01*
X0071335Y0401618D01*
X0071264Y0401476D01*
X0071190Y0401336D01*
X0071112Y0401199D01*
X0071030Y0401063D01*
X0070946Y0400929D01*
X0070857Y0400798D01*
X0070766Y0400669D01*
X0070671Y0400542D01*
X0070574Y0400417D01*
X0070473Y0400295D01*
X0070369Y0400176D01*
X0070262Y0400059D01*
X0070152Y0399945D01*
X0070039Y0399834D01*
X0069924Y0399725D01*
X0069806Y0399620D01*
X0069685Y0399518D01*
X0069562Y0399418D01*
X0069436Y0399322D01*
X0069308Y0399229D01*
X0069178Y0399139D01*
X0069045Y0399053D01*
X0068910Y0398969D01*
X0068774Y0398890D01*
X0068635Y0398813D01*
X0068494Y0398741D01*
X0068352Y0398671D01*
X0068208Y0398606D01*
X0068062Y0398544D01*
X0067915Y0398486D01*
X0067766Y0398431D01*
X0067616Y0398380D01*
X0067465Y0398333D01*
X0067313Y0398290D01*
X0067160Y0398251D01*
X0067005Y0398215D01*
X0066850Y0398184D01*
X0066694Y0398156D01*
X0066538Y0398132D01*
X0066381Y0398112D01*
X0066223Y0398096D01*
X0066066Y0398084D01*
X0065907Y0398076D01*
X0065749Y0398072D01*
X0065591Y0398072D01*
X0065433Y0398076D01*
X0065274Y0398084D01*
X0065117Y0398096D01*
X0064959Y0398112D01*
X0064802Y0398132D01*
X0064646Y0398156D01*
X0064490Y0398184D01*
X0064335Y0398215D01*
X0064180Y0398251D01*
X0064027Y0398290D01*
X0063875Y0398333D01*
X0063724Y0398380D01*
X0063574Y0398431D01*
X0063425Y0398486D01*
X0063278Y0398544D01*
X0063132Y0398606D01*
X0062988Y0398671D01*
X0062846Y0398741D01*
X0062705Y0398813D01*
X0062566Y0398890D01*
X0062430Y0398969D01*
X0062295Y0399053D01*
X0062162Y0399139D01*
X0062032Y0399229D01*
X0061904Y0399322D01*
X0061778Y0399418D01*
X0061655Y0399518D01*
X0061534Y0399620D01*
X0061416Y0399725D01*
X0061301Y0399834D01*
X0061188Y0399945D01*
X0061078Y0400059D01*
X0060971Y0400176D01*
X0060867Y0400295D01*
X0060766Y0400417D01*
X0060669Y0400542D01*
X0060574Y0400669D01*
X0060483Y0400798D01*
X0060394Y0400929D01*
X0060310Y0401063D01*
X0060228Y0401199D01*
X0060150Y0401336D01*
X0060076Y0401476D01*
X0060005Y0401618D01*
X0059937Y0401761D01*
X0059873Y0401906D01*
X0059813Y0402052D01*
X0059757Y0402200D01*
X0059704Y0402349D01*
X0059655Y0402500D01*
X0059610Y0402652D01*
X0059569Y0402805D01*
X0059531Y0402958D01*
X0059498Y0403113D01*
X0059468Y0403269D01*
X0059442Y0403425D01*
X0059421Y0403582D01*
X0059403Y0403739D01*
X0059389Y0403897D01*
X0059379Y0404055D01*
X0059373Y0404213D01*
X0059371Y0404371D01*
X0390080Y0404371D02*
X0390082Y0404529D01*
X0390088Y0404687D01*
X0390098Y0404845D01*
X0390112Y0405003D01*
X0390130Y0405160D01*
X0390151Y0405317D01*
X0390177Y0405473D01*
X0390207Y0405629D01*
X0390240Y0405784D01*
X0390278Y0405937D01*
X0390319Y0406090D01*
X0390364Y0406242D01*
X0390413Y0406393D01*
X0390466Y0406542D01*
X0390522Y0406690D01*
X0390582Y0406836D01*
X0390646Y0406981D01*
X0390714Y0407124D01*
X0390785Y0407266D01*
X0390859Y0407406D01*
X0390937Y0407543D01*
X0391019Y0407679D01*
X0391103Y0407813D01*
X0391192Y0407944D01*
X0391283Y0408073D01*
X0391378Y0408200D01*
X0391475Y0408325D01*
X0391576Y0408447D01*
X0391680Y0408566D01*
X0391787Y0408683D01*
X0391897Y0408797D01*
X0392010Y0408908D01*
X0392125Y0409017D01*
X0392243Y0409122D01*
X0392364Y0409224D01*
X0392487Y0409324D01*
X0392613Y0409420D01*
X0392741Y0409513D01*
X0392871Y0409603D01*
X0393004Y0409689D01*
X0393139Y0409773D01*
X0393275Y0409852D01*
X0393414Y0409929D01*
X0393555Y0410001D01*
X0393697Y0410071D01*
X0393841Y0410136D01*
X0393987Y0410198D01*
X0394134Y0410256D01*
X0394283Y0410311D01*
X0394433Y0410362D01*
X0394584Y0410409D01*
X0394736Y0410452D01*
X0394889Y0410491D01*
X0395044Y0410527D01*
X0395199Y0410558D01*
X0395355Y0410586D01*
X0395511Y0410610D01*
X0395668Y0410630D01*
X0395826Y0410646D01*
X0395983Y0410658D01*
X0396142Y0410666D01*
X0396300Y0410670D01*
X0396458Y0410670D01*
X0396616Y0410666D01*
X0396775Y0410658D01*
X0396932Y0410646D01*
X0397090Y0410630D01*
X0397247Y0410610D01*
X0397403Y0410586D01*
X0397559Y0410558D01*
X0397714Y0410527D01*
X0397869Y0410491D01*
X0398022Y0410452D01*
X0398174Y0410409D01*
X0398325Y0410362D01*
X0398475Y0410311D01*
X0398624Y0410256D01*
X0398771Y0410198D01*
X0398917Y0410136D01*
X0399061Y0410071D01*
X0399203Y0410001D01*
X0399344Y0409929D01*
X0399483Y0409852D01*
X0399619Y0409773D01*
X0399754Y0409689D01*
X0399887Y0409603D01*
X0400017Y0409513D01*
X0400145Y0409420D01*
X0400271Y0409324D01*
X0400394Y0409224D01*
X0400515Y0409122D01*
X0400633Y0409017D01*
X0400748Y0408908D01*
X0400861Y0408797D01*
X0400971Y0408683D01*
X0401078Y0408566D01*
X0401182Y0408447D01*
X0401283Y0408325D01*
X0401380Y0408200D01*
X0401475Y0408073D01*
X0401566Y0407944D01*
X0401655Y0407813D01*
X0401739Y0407679D01*
X0401821Y0407543D01*
X0401899Y0407406D01*
X0401973Y0407266D01*
X0402044Y0407124D01*
X0402112Y0406981D01*
X0402176Y0406836D01*
X0402236Y0406690D01*
X0402292Y0406542D01*
X0402345Y0406393D01*
X0402394Y0406242D01*
X0402439Y0406090D01*
X0402480Y0405937D01*
X0402518Y0405784D01*
X0402551Y0405629D01*
X0402581Y0405473D01*
X0402607Y0405317D01*
X0402628Y0405160D01*
X0402646Y0405003D01*
X0402660Y0404845D01*
X0402670Y0404687D01*
X0402676Y0404529D01*
X0402678Y0404371D01*
X0402676Y0404213D01*
X0402670Y0404055D01*
X0402660Y0403897D01*
X0402646Y0403739D01*
X0402628Y0403582D01*
X0402607Y0403425D01*
X0402581Y0403269D01*
X0402551Y0403113D01*
X0402518Y0402958D01*
X0402480Y0402805D01*
X0402439Y0402652D01*
X0402394Y0402500D01*
X0402345Y0402349D01*
X0402292Y0402200D01*
X0402236Y0402052D01*
X0402176Y0401906D01*
X0402112Y0401761D01*
X0402044Y0401618D01*
X0401973Y0401476D01*
X0401899Y0401336D01*
X0401821Y0401199D01*
X0401739Y0401063D01*
X0401655Y0400929D01*
X0401566Y0400798D01*
X0401475Y0400669D01*
X0401380Y0400542D01*
X0401283Y0400417D01*
X0401182Y0400295D01*
X0401078Y0400176D01*
X0400971Y0400059D01*
X0400861Y0399945D01*
X0400748Y0399834D01*
X0400633Y0399725D01*
X0400515Y0399620D01*
X0400394Y0399518D01*
X0400271Y0399418D01*
X0400145Y0399322D01*
X0400017Y0399229D01*
X0399887Y0399139D01*
X0399754Y0399053D01*
X0399619Y0398969D01*
X0399483Y0398890D01*
X0399344Y0398813D01*
X0399203Y0398741D01*
X0399061Y0398671D01*
X0398917Y0398606D01*
X0398771Y0398544D01*
X0398624Y0398486D01*
X0398475Y0398431D01*
X0398325Y0398380D01*
X0398174Y0398333D01*
X0398022Y0398290D01*
X0397869Y0398251D01*
X0397714Y0398215D01*
X0397559Y0398184D01*
X0397403Y0398156D01*
X0397247Y0398132D01*
X0397090Y0398112D01*
X0396932Y0398096D01*
X0396775Y0398084D01*
X0396616Y0398076D01*
X0396458Y0398072D01*
X0396300Y0398072D01*
X0396142Y0398076D01*
X0395983Y0398084D01*
X0395826Y0398096D01*
X0395668Y0398112D01*
X0395511Y0398132D01*
X0395355Y0398156D01*
X0395199Y0398184D01*
X0395044Y0398215D01*
X0394889Y0398251D01*
X0394736Y0398290D01*
X0394584Y0398333D01*
X0394433Y0398380D01*
X0394283Y0398431D01*
X0394134Y0398486D01*
X0393987Y0398544D01*
X0393841Y0398606D01*
X0393697Y0398671D01*
X0393555Y0398741D01*
X0393414Y0398813D01*
X0393275Y0398890D01*
X0393139Y0398969D01*
X0393004Y0399053D01*
X0392871Y0399139D01*
X0392741Y0399229D01*
X0392613Y0399322D01*
X0392487Y0399418D01*
X0392364Y0399518D01*
X0392243Y0399620D01*
X0392125Y0399725D01*
X0392010Y0399834D01*
X0391897Y0399945D01*
X0391787Y0400059D01*
X0391680Y0400176D01*
X0391576Y0400295D01*
X0391475Y0400417D01*
X0391378Y0400542D01*
X0391283Y0400669D01*
X0391192Y0400798D01*
X0391103Y0400929D01*
X0391019Y0401063D01*
X0390937Y0401199D01*
X0390859Y0401336D01*
X0390785Y0401476D01*
X0390714Y0401618D01*
X0390646Y0401761D01*
X0390582Y0401906D01*
X0390522Y0402052D01*
X0390466Y0402200D01*
X0390413Y0402349D01*
X0390364Y0402500D01*
X0390319Y0402652D01*
X0390278Y0402805D01*
X0390240Y0402958D01*
X0390207Y0403113D01*
X0390177Y0403269D01*
X0390151Y0403425D01*
X0390130Y0403582D01*
X0390112Y0403739D01*
X0390098Y0403897D01*
X0390088Y0404055D01*
X0390082Y0404213D01*
X0390080Y0404371D01*
X0390080Y0073662D02*
X0390082Y0073820D01*
X0390088Y0073978D01*
X0390098Y0074136D01*
X0390112Y0074294D01*
X0390130Y0074451D01*
X0390151Y0074608D01*
X0390177Y0074764D01*
X0390207Y0074920D01*
X0390240Y0075075D01*
X0390278Y0075228D01*
X0390319Y0075381D01*
X0390364Y0075533D01*
X0390413Y0075684D01*
X0390466Y0075833D01*
X0390522Y0075981D01*
X0390582Y0076127D01*
X0390646Y0076272D01*
X0390714Y0076415D01*
X0390785Y0076557D01*
X0390859Y0076697D01*
X0390937Y0076834D01*
X0391019Y0076970D01*
X0391103Y0077104D01*
X0391192Y0077235D01*
X0391283Y0077364D01*
X0391378Y0077491D01*
X0391475Y0077616D01*
X0391576Y0077738D01*
X0391680Y0077857D01*
X0391787Y0077974D01*
X0391897Y0078088D01*
X0392010Y0078199D01*
X0392125Y0078308D01*
X0392243Y0078413D01*
X0392364Y0078515D01*
X0392487Y0078615D01*
X0392613Y0078711D01*
X0392741Y0078804D01*
X0392871Y0078894D01*
X0393004Y0078980D01*
X0393139Y0079064D01*
X0393275Y0079143D01*
X0393414Y0079220D01*
X0393555Y0079292D01*
X0393697Y0079362D01*
X0393841Y0079427D01*
X0393987Y0079489D01*
X0394134Y0079547D01*
X0394283Y0079602D01*
X0394433Y0079653D01*
X0394584Y0079700D01*
X0394736Y0079743D01*
X0394889Y0079782D01*
X0395044Y0079818D01*
X0395199Y0079849D01*
X0395355Y0079877D01*
X0395511Y0079901D01*
X0395668Y0079921D01*
X0395826Y0079937D01*
X0395983Y0079949D01*
X0396142Y0079957D01*
X0396300Y0079961D01*
X0396458Y0079961D01*
X0396616Y0079957D01*
X0396775Y0079949D01*
X0396932Y0079937D01*
X0397090Y0079921D01*
X0397247Y0079901D01*
X0397403Y0079877D01*
X0397559Y0079849D01*
X0397714Y0079818D01*
X0397869Y0079782D01*
X0398022Y0079743D01*
X0398174Y0079700D01*
X0398325Y0079653D01*
X0398475Y0079602D01*
X0398624Y0079547D01*
X0398771Y0079489D01*
X0398917Y0079427D01*
X0399061Y0079362D01*
X0399203Y0079292D01*
X0399344Y0079220D01*
X0399483Y0079143D01*
X0399619Y0079064D01*
X0399754Y0078980D01*
X0399887Y0078894D01*
X0400017Y0078804D01*
X0400145Y0078711D01*
X0400271Y0078615D01*
X0400394Y0078515D01*
X0400515Y0078413D01*
X0400633Y0078308D01*
X0400748Y0078199D01*
X0400861Y0078088D01*
X0400971Y0077974D01*
X0401078Y0077857D01*
X0401182Y0077738D01*
X0401283Y0077616D01*
X0401380Y0077491D01*
X0401475Y0077364D01*
X0401566Y0077235D01*
X0401655Y0077104D01*
X0401739Y0076970D01*
X0401821Y0076834D01*
X0401899Y0076697D01*
X0401973Y0076557D01*
X0402044Y0076415D01*
X0402112Y0076272D01*
X0402176Y0076127D01*
X0402236Y0075981D01*
X0402292Y0075833D01*
X0402345Y0075684D01*
X0402394Y0075533D01*
X0402439Y0075381D01*
X0402480Y0075228D01*
X0402518Y0075075D01*
X0402551Y0074920D01*
X0402581Y0074764D01*
X0402607Y0074608D01*
X0402628Y0074451D01*
X0402646Y0074294D01*
X0402660Y0074136D01*
X0402670Y0073978D01*
X0402676Y0073820D01*
X0402678Y0073662D01*
X0402676Y0073504D01*
X0402670Y0073346D01*
X0402660Y0073188D01*
X0402646Y0073030D01*
X0402628Y0072873D01*
X0402607Y0072716D01*
X0402581Y0072560D01*
X0402551Y0072404D01*
X0402518Y0072249D01*
X0402480Y0072096D01*
X0402439Y0071943D01*
X0402394Y0071791D01*
X0402345Y0071640D01*
X0402292Y0071491D01*
X0402236Y0071343D01*
X0402176Y0071197D01*
X0402112Y0071052D01*
X0402044Y0070909D01*
X0401973Y0070767D01*
X0401899Y0070627D01*
X0401821Y0070490D01*
X0401739Y0070354D01*
X0401655Y0070220D01*
X0401566Y0070089D01*
X0401475Y0069960D01*
X0401380Y0069833D01*
X0401283Y0069708D01*
X0401182Y0069586D01*
X0401078Y0069467D01*
X0400971Y0069350D01*
X0400861Y0069236D01*
X0400748Y0069125D01*
X0400633Y0069016D01*
X0400515Y0068911D01*
X0400394Y0068809D01*
X0400271Y0068709D01*
X0400145Y0068613D01*
X0400017Y0068520D01*
X0399887Y0068430D01*
X0399754Y0068344D01*
X0399619Y0068260D01*
X0399483Y0068181D01*
X0399344Y0068104D01*
X0399203Y0068032D01*
X0399061Y0067962D01*
X0398917Y0067897D01*
X0398771Y0067835D01*
X0398624Y0067777D01*
X0398475Y0067722D01*
X0398325Y0067671D01*
X0398174Y0067624D01*
X0398022Y0067581D01*
X0397869Y0067542D01*
X0397714Y0067506D01*
X0397559Y0067475D01*
X0397403Y0067447D01*
X0397247Y0067423D01*
X0397090Y0067403D01*
X0396932Y0067387D01*
X0396775Y0067375D01*
X0396616Y0067367D01*
X0396458Y0067363D01*
X0396300Y0067363D01*
X0396142Y0067367D01*
X0395983Y0067375D01*
X0395826Y0067387D01*
X0395668Y0067403D01*
X0395511Y0067423D01*
X0395355Y0067447D01*
X0395199Y0067475D01*
X0395044Y0067506D01*
X0394889Y0067542D01*
X0394736Y0067581D01*
X0394584Y0067624D01*
X0394433Y0067671D01*
X0394283Y0067722D01*
X0394134Y0067777D01*
X0393987Y0067835D01*
X0393841Y0067897D01*
X0393697Y0067962D01*
X0393555Y0068032D01*
X0393414Y0068104D01*
X0393275Y0068181D01*
X0393139Y0068260D01*
X0393004Y0068344D01*
X0392871Y0068430D01*
X0392741Y0068520D01*
X0392613Y0068613D01*
X0392487Y0068709D01*
X0392364Y0068809D01*
X0392243Y0068911D01*
X0392125Y0069016D01*
X0392010Y0069125D01*
X0391897Y0069236D01*
X0391787Y0069350D01*
X0391680Y0069467D01*
X0391576Y0069586D01*
X0391475Y0069708D01*
X0391378Y0069833D01*
X0391283Y0069960D01*
X0391192Y0070089D01*
X0391103Y0070220D01*
X0391019Y0070354D01*
X0390937Y0070490D01*
X0390859Y0070627D01*
X0390785Y0070767D01*
X0390714Y0070909D01*
X0390646Y0071052D01*
X0390582Y0071197D01*
X0390522Y0071343D01*
X0390466Y0071491D01*
X0390413Y0071640D01*
X0390364Y0071791D01*
X0390319Y0071943D01*
X0390278Y0072096D01*
X0390240Y0072249D01*
X0390207Y0072404D01*
X0390177Y0072560D01*
X0390151Y0072716D01*
X0390130Y0072873D01*
X0390112Y0073030D01*
X0390098Y0073188D01*
X0390088Y0073346D01*
X0390082Y0073504D01*
X0390080Y0073662D01*
M02*
