%
M48
M72
T01C0.01378
T02C0.01969
T03C0.03150
T04C0.03543
T05C0.04000
T06C0.04724
T07C0.12598
%
T01
X359371Y55040
X355631Y58387
X344528Y71564
X345788Y83977
X343199Y89883
X354371Y105028
X341599Y113505
X337914Y109568
X315001Y105028
X315001Y89280
X315001Y71564
X269017Y71546
X265080Y74135
X259526Y79269
X253269Y82009
X259883Y89280
X272450Y101271
X270850Y117442
X269250Y124858
X267048Y133190
X264577Y135779
X259883Y120776
X253977Y106997
X244135Y108965
X213898Y93820
X189017Y87312
X192954Y65658
X209961Y58387
X222481Y65658
X255946Y65658
X315001Y120776
X315001Y140461
X314556Y168765
X336209Y168765
X334241Y192387
X334241Y210103
X343199Y240955
X345788Y243426
X330304Y259316
X341851Y263111
X341851Y267048
X351957Y271127
X345788Y280828
X335946Y286733
X339883Y290670
X345788Y290670
X345788Y298544
X347398Y312324
X350976Y312324
X354554Y312324
X358131Y312324
X371643Y310497
X375580Y310497
X371643Y300654
X377548Y290812
X385422Y302623
X393032Y300513
X399202Y302623
X407076Y284906
X389095Y257206
X407076Y253410
X407076Y227820
X407076Y204198
X399646Y189674
X399646Y169989
X399646Y148335
X383454Y373489
X371643Y353804
X361047Y349725
X343820Y339883
X338190Y343359
X333702Y339422
X333702Y329580
X341576Y329580
X341851Y318229
X343820Y312324
X322166Y314292
X316261Y314292
X316261Y300513
X322166Y290670
X305571Y281327
X300513Y286733
X282796Y286733
X282796Y298544
X269861Y286374
X270985Y282796
X266546Y277708
X266654Y273938
X263873Y280686
X258111Y271166
X253417Y257826
X261143Y255237
X263673Y252707
X271249Y265221
X281091Y265221
X278298Y249893
X280828Y247363
X275650Y239898
X274922Y235552
X270985Y237520
X268426Y232206
X265978Y228960
X272756Y227876
X275650Y225709
X282428Y217835
X284028Y221772
X285628Y227678
X287228Y231138
X298808Y229788
X298808Y212072
X298808Y192387
X288965Y168765
X282428Y170001
X255946Y193611
X243426Y190276
X237161Y190193
X233583Y190276
X233583Y194213
X217835Y194213
X217835Y190276
X218544Y199517
X217300Y207166
X206733Y199517
X200119Y196802
X196891Y199517
X196891Y185737
X206733Y185737
X200119Y169476
X207993Y164686
X219804Y164686
X219804Y143032
X207993Y143032
X212639Y128650
X190985Y122745
X178465Y141064
X172619Y143532
X168674Y150166
X172560Y152875
X177737Y159548
X181674Y159666
X182402Y152875
X172560Y164686
X168174Y167198
X164686Y164686
X164686Y152875
X145946Y165552
X138072Y163583
X138072Y151772
X125316Y148938
X125316Y136506
X124056Y124713
X137127Y117442
X148938Y95788
X164686Y105631
X165394Y128650
X118733Y172166
X104127Y181054
X99048Y172166
X103630Y166654
X103630Y158780
X98465Y152272
X103630Y148938
X98465Y144398
X91851Y150906
X87174Y154056
X94440Y160749
X87174Y164056
X87174Y174056
X87174Y184056
X87174Y194056
X78072Y211930
X95788Y221772
X101694Y229646
X102481Y233583
X97560Y233583
X91851Y233583
X91851Y241457
X97560Y241457
X102481Y241457
X102481Y249331
X97560Y249135
X91851Y249331
X83977Y253269
X76103Y265080
X87174Y284269
X96052Y286875
X87174Y294269
X87174Y304269
X87174Y314269
X87174Y324269
X87174Y334269
X96052Y330182
X103662Y322166
X87174Y344269
X87174Y354269
X87174Y364269
X87174Y374269
X82009Y385158
X86209Y420733
X103662Y422560
X113769Y416796
X131308Y418001
X136406Y420930
X141308Y418001
X151308Y418001
X161339Y417639
X171379Y417442
X182666Y420733
X194213Y419971
X188572Y408922
X178465Y406812
X184635Y383331
X171308Y382001
X161308Y382001
X151308Y382001
X141308Y382001
X136013Y388450
X131308Y382001
X127284Y373347
X131485Y361678
X109831Y351835
X113769Y381363
X113769Y399080
X96052Y385300
X51174Y104056
X51174Y114056
X51174Y124056
X51174Y134056
X40670Y152875
X51174Y164056
X51174Y174056
X51174Y184056
X51174Y194056
X48544Y217835
X40670Y233583
X48544Y241457
X48544Y263111
X44607Y276891
X51174Y284269
X51174Y294269
X51174Y304269
X46839Y310497
X51174Y314269
X51174Y324269
X46839Y328213
X51174Y334269
X51174Y344269
X51174Y354269
X51174Y364269
X46839Y369552
X51174Y374269
X131221Y296576
X137391Y302623
X149202Y314434
X161013Y326245
X164950Y314434
X178465Y298544
X182076Y295725
X180036Y285725
X184233Y274981
X193174Y285385
X200383Y275064
X206288Y275064
X207674Y271166
X214162Y267190
X204323Y260315
X200423Y257509
X202235Y249184
X196752Y247363
X193174Y246166
X196174Y233261
X183111Y231013
X170591Y227678
X164686Y227678
X158780Y227678
X152875Y227678
X146969Y225709
X139095Y229220
X137127Y236900
X135158Y243426
X135158Y251300
X124918Y262103
X122950Y273914
X137127Y278859
X140084Y276756
X141864Y273476
X142916Y269666
X146572Y264072
X152875Y261143
X156812Y261143
X160749Y261143
X164686Y260522
X167213Y257020
X162763Y249952
X160174Y244166
X156812Y237520
X167174Y236166
X166194Y243780
X175237Y254635
X181143Y260540
X186339Y259174
X190085Y261143
X213898Y243426
X214607Y234950
X215867Y225709
X217835Y220980
X206733Y215265
X226418Y232981
X231024Y239017
X230355Y248729
X222393Y250797
X219804Y253269
X243426Y245394
X246103Y238887
X239489Y229646
X238229Y223139
X248072Y211328
X254174Y207166
X261715Y220077
X265080Y221772
X296576Y249331
X314556Y249473
X314556Y259316
X267048Y298544
X263111Y314292
X259174Y322166
X265524Y326103
X269292Y329580
X269292Y335485
X281103Y335485
X281103Y329580
X286733Y329056
X289322Y332511
X295504Y332709
X294607Y328859
X300513Y335946
X295985Y337324
X296576Y345788
X283072Y353202
X283072Y359107
X283072Y366981
X284765Y371379
X288702Y375316
X292363Y370918
X296576Y365473
X308111Y359107
X312048Y355170
X308111Y351233
X317954Y359107
X333977Y367442
X338190Y361076
X329765Y376824
X348765Y383190
X357143Y379253
X361047Y391064
X351694Y400906
X349223Y398317
X344083Y412859
X353662Y418623
X361536Y418623
X373611Y422702
X373611Y393174
X397233Y353804
X404843Y333977
X385422Y330182
X375580Y330182
X368790Y330040
X373611Y277032
X302481Y330040
X296576Y314292
X282796Y314292
X282296Y321166
X278859Y322166
X269017Y318166
X253269Y314292
X247363Y315577
X243426Y322166
X235552Y325483
X233257Y331158
X237796Y333517
X233583Y337914
X225383Y335095
X225709Y328072
X217509Y323284
X229646Y318166
X227678Y314292
X233583Y315577
X225709Y306418
X225576Y300225
X222674Y294166
X228365Y289389
X225709Y286985
X221772Y285385
X219438Y278308
X205938Y287308
X202989Y294166
X197824Y295725
X197083Y304009
X186339Y320198
X192245Y324135
X184635Y330182
X200383Y330182
X214162Y340024
X229800Y357572
X235828Y357139
X229320Y368560
X222036Y365615
X233737Y377257
X218099Y395143
X202351Y377426
X208257Y365615
X186603Y355772
X188308Y349920
X172560Y351694
X172824Y365615
X159044Y286875
X111800Y286875
X107599Y270985
X108686Y262658
X123347Y219804
X137127Y219804
X137127Y198150
X150906Y198150
X158780Y198150
X168623Y198150
X178465Y198150
X117442Y206024
X87174Y144056
X87174Y134056
X94528Y130619
X87174Y124056
X87174Y114056
X94528Y108965
X87174Y104056
X106339Y81406
X106339Y65658
X120119Y65658
X138127Y55918
X151615Y61721
X156812Y76103
X167363Y65658
X106339Y124713
X241457Y143032
X241457Y176497
X241515Y287166
X235475Y288527
X255513Y349265
X255513Y359107
X271261Y376824
X277154Y387269
X280828Y391064
X284765Y393032
X283060Y412859
X259174Y403127
X302481Y381221
X368150Y197548
X368150Y171957
X361536Y158780
X368150Y148335
X371379Y139095
X354371Y136524
X387835Y124713
X372087Y81406
X361536Y78072
T02
X235706Y298517
X243580Y298517
X243580Y306391
X235706Y306391
T03
X292717Y236261
X332087Y236261
X394174Y322166
X394174Y332166
X394174Y342166
T04
X367284Y234292
X397206Y234292
T05
X240237Y391064
X250237Y391064
X260237Y391064
X270237Y391064
T06
X65761Y212430
X65761Y226209
X66261Y248863
X66261Y262643
T07
X396379Y73662
X396379Y404371
X65670Y404371
X65670Y73662
M30
