G75*
%MOIN*%
%OFA0B0*%
%FSLAX25Y25*%
%IPPOS*%
%LPD*%
%AMOC8*
5,1,8,0,0,1.08239X$1,22.5*
%
%ADD10C,0.00600*%
%ADD11C,0.00300*%
%ADD12C,0.00800*%
%ADD13C,0.00000*%
%ADD14C,0.00400*%
%ADD15C,0.00500*%
%ADD16C,0.01575*%
%ADD17R,0.00984X0.00984*%
%ADD18C,0.01969*%
%ADD19C,0.00472*%
%ADD20C,0.00787*%
%ADD21C,0.01000*%
%ADD22R,0.00787X0.00787*%
%ADD23C,0.02000*%
%ADD24C,0.00197*%
%ADD25C,0.00700*%
%ADD26C,0.01600*%
D10*
X0073544Y0042166D02*
X0388505Y0042166D01*
X0382879Y0073662D02*
X0382883Y0073993D01*
X0382895Y0074324D01*
X0382916Y0074655D01*
X0382944Y0074985D01*
X0382981Y0075315D01*
X0383025Y0075643D01*
X0383078Y0075970D01*
X0383138Y0076296D01*
X0383207Y0076620D01*
X0383284Y0076942D01*
X0383368Y0077263D01*
X0383460Y0077581D01*
X0383560Y0077897D01*
X0383668Y0078210D01*
X0383784Y0078521D01*
X0383907Y0078828D01*
X0384037Y0079133D01*
X0384175Y0079434D01*
X0384320Y0079732D01*
X0384473Y0080026D01*
X0384633Y0080316D01*
X0384800Y0080602D01*
X0384973Y0080884D01*
X0385154Y0081162D01*
X0385342Y0081435D01*
X0385536Y0081704D01*
X0385736Y0081968D01*
X0385943Y0082226D01*
X0386157Y0082480D01*
X0386376Y0082728D01*
X0386602Y0082971D01*
X0386833Y0083208D01*
X0387070Y0083439D01*
X0387313Y0083665D01*
X0387561Y0083884D01*
X0387815Y0084098D01*
X0388073Y0084305D01*
X0388337Y0084505D01*
X0388606Y0084699D01*
X0388879Y0084887D01*
X0389157Y0085068D01*
X0389439Y0085241D01*
X0389725Y0085408D01*
X0390015Y0085568D01*
X0390309Y0085721D01*
X0390607Y0085866D01*
X0390908Y0086004D01*
X0391213Y0086134D01*
X0391520Y0086257D01*
X0391831Y0086373D01*
X0392144Y0086481D01*
X0392460Y0086581D01*
X0392778Y0086673D01*
X0393099Y0086757D01*
X0393421Y0086834D01*
X0393745Y0086903D01*
X0394071Y0086963D01*
X0394398Y0087016D01*
X0394726Y0087060D01*
X0395056Y0087097D01*
X0395386Y0087125D01*
X0395717Y0087146D01*
X0396048Y0087158D01*
X0396379Y0087162D01*
X0396710Y0087158D01*
X0397041Y0087146D01*
X0397372Y0087125D01*
X0397702Y0087097D01*
X0398032Y0087060D01*
X0398360Y0087016D01*
X0398687Y0086963D01*
X0399013Y0086903D01*
X0399337Y0086834D01*
X0399659Y0086757D01*
X0399980Y0086673D01*
X0400298Y0086581D01*
X0400614Y0086481D01*
X0400927Y0086373D01*
X0401238Y0086257D01*
X0401545Y0086134D01*
X0401850Y0086004D01*
X0402151Y0085866D01*
X0402449Y0085721D01*
X0402743Y0085568D01*
X0403033Y0085408D01*
X0403319Y0085241D01*
X0403601Y0085068D01*
X0403879Y0084887D01*
X0404152Y0084699D01*
X0404421Y0084505D01*
X0404685Y0084305D01*
X0404943Y0084098D01*
X0405197Y0083884D01*
X0405445Y0083665D01*
X0405688Y0083439D01*
X0405925Y0083208D01*
X0406156Y0082971D01*
X0406382Y0082728D01*
X0406601Y0082480D01*
X0406815Y0082226D01*
X0407022Y0081968D01*
X0407222Y0081704D01*
X0407416Y0081435D01*
X0407604Y0081162D01*
X0407785Y0080884D01*
X0407958Y0080602D01*
X0408125Y0080316D01*
X0408285Y0080026D01*
X0408438Y0079732D01*
X0408583Y0079434D01*
X0408721Y0079133D01*
X0408851Y0078828D01*
X0408974Y0078521D01*
X0409090Y0078210D01*
X0409198Y0077897D01*
X0409298Y0077581D01*
X0409390Y0077263D01*
X0409474Y0076942D01*
X0409551Y0076620D01*
X0409620Y0076296D01*
X0409680Y0075970D01*
X0409733Y0075643D01*
X0409777Y0075315D01*
X0409814Y0074985D01*
X0409842Y0074655D01*
X0409863Y0074324D01*
X0409875Y0073993D01*
X0409879Y0073662D01*
X0409875Y0073331D01*
X0409863Y0073000D01*
X0409842Y0072669D01*
X0409814Y0072339D01*
X0409777Y0072009D01*
X0409733Y0071681D01*
X0409680Y0071354D01*
X0409620Y0071028D01*
X0409551Y0070704D01*
X0409474Y0070382D01*
X0409390Y0070061D01*
X0409298Y0069743D01*
X0409198Y0069427D01*
X0409090Y0069114D01*
X0408974Y0068803D01*
X0408851Y0068496D01*
X0408721Y0068191D01*
X0408583Y0067890D01*
X0408438Y0067592D01*
X0408285Y0067298D01*
X0408125Y0067008D01*
X0407958Y0066722D01*
X0407785Y0066440D01*
X0407604Y0066162D01*
X0407416Y0065889D01*
X0407222Y0065620D01*
X0407022Y0065356D01*
X0406815Y0065098D01*
X0406601Y0064844D01*
X0406382Y0064596D01*
X0406156Y0064353D01*
X0405925Y0064116D01*
X0405688Y0063885D01*
X0405445Y0063659D01*
X0405197Y0063440D01*
X0404943Y0063226D01*
X0404685Y0063019D01*
X0404421Y0062819D01*
X0404152Y0062625D01*
X0403879Y0062437D01*
X0403601Y0062256D01*
X0403319Y0062083D01*
X0403033Y0061916D01*
X0402743Y0061756D01*
X0402449Y0061603D01*
X0402151Y0061458D01*
X0401850Y0061320D01*
X0401545Y0061190D01*
X0401238Y0061067D01*
X0400927Y0060951D01*
X0400614Y0060843D01*
X0400298Y0060743D01*
X0399980Y0060651D01*
X0399659Y0060567D01*
X0399337Y0060490D01*
X0399013Y0060421D01*
X0398687Y0060361D01*
X0398360Y0060308D01*
X0398032Y0060264D01*
X0397702Y0060227D01*
X0397372Y0060199D01*
X0397041Y0060178D01*
X0396710Y0060166D01*
X0396379Y0060162D01*
X0396048Y0060166D01*
X0395717Y0060178D01*
X0395386Y0060199D01*
X0395056Y0060227D01*
X0394726Y0060264D01*
X0394398Y0060308D01*
X0394071Y0060361D01*
X0393745Y0060421D01*
X0393421Y0060490D01*
X0393099Y0060567D01*
X0392778Y0060651D01*
X0392460Y0060743D01*
X0392144Y0060843D01*
X0391831Y0060951D01*
X0391520Y0061067D01*
X0391213Y0061190D01*
X0390908Y0061320D01*
X0390607Y0061458D01*
X0390309Y0061603D01*
X0390015Y0061756D01*
X0389725Y0061916D01*
X0389439Y0062083D01*
X0389157Y0062256D01*
X0388879Y0062437D01*
X0388606Y0062625D01*
X0388337Y0062819D01*
X0388073Y0063019D01*
X0387815Y0063226D01*
X0387561Y0063440D01*
X0387313Y0063659D01*
X0387070Y0063885D01*
X0386833Y0064116D01*
X0386602Y0064353D01*
X0386376Y0064596D01*
X0386157Y0064844D01*
X0385943Y0065098D01*
X0385736Y0065356D01*
X0385536Y0065620D01*
X0385342Y0065889D01*
X0385154Y0066162D01*
X0384973Y0066440D01*
X0384800Y0066722D01*
X0384633Y0067008D01*
X0384473Y0067298D01*
X0384320Y0067592D01*
X0384175Y0067890D01*
X0384037Y0068191D01*
X0383907Y0068496D01*
X0383784Y0068803D01*
X0383668Y0069114D01*
X0383560Y0069427D01*
X0383460Y0069743D01*
X0383368Y0070061D01*
X0383284Y0070382D01*
X0383207Y0070704D01*
X0383138Y0071028D01*
X0383078Y0071354D01*
X0383025Y0071681D01*
X0382981Y0072009D01*
X0382944Y0072339D01*
X0382916Y0072669D01*
X0382895Y0073000D01*
X0382883Y0073331D01*
X0382879Y0073662D01*
X0388505Y0042166D02*
X0389456Y0042177D01*
X0390407Y0042212D01*
X0391357Y0042269D01*
X0392305Y0042350D01*
X0393251Y0042453D01*
X0394194Y0042579D01*
X0395133Y0042728D01*
X0396069Y0042899D01*
X0397000Y0043094D01*
X0397927Y0043310D01*
X0398848Y0043549D01*
X0399763Y0043810D01*
X0400671Y0044093D01*
X0401572Y0044398D01*
X0402466Y0044724D01*
X0403351Y0045073D01*
X0404228Y0045442D01*
X0405096Y0045832D01*
X0405953Y0046244D01*
X0406801Y0046676D01*
X0407638Y0047128D01*
X0408464Y0047600D01*
X0409278Y0048092D01*
X0410080Y0048604D01*
X0410870Y0049135D01*
X0411646Y0049685D01*
X0412409Y0050253D01*
X0413158Y0050840D01*
X0413892Y0051445D01*
X0414612Y0052067D01*
X0415317Y0052707D01*
X0416005Y0053363D01*
X0416678Y0054036D01*
X0417334Y0054724D01*
X0417974Y0055429D01*
X0418596Y0056149D01*
X0419201Y0056883D01*
X0419788Y0057632D01*
X0420356Y0058395D01*
X0420906Y0059171D01*
X0421437Y0059961D01*
X0421949Y0060763D01*
X0422441Y0061577D01*
X0422913Y0062403D01*
X0423365Y0063240D01*
X0423797Y0064088D01*
X0424209Y0064945D01*
X0424599Y0065813D01*
X0424968Y0066690D01*
X0425317Y0067575D01*
X0425643Y0068469D01*
X0425948Y0069370D01*
X0426231Y0070278D01*
X0426492Y0071193D01*
X0426731Y0072114D01*
X0426947Y0073041D01*
X0427142Y0073972D01*
X0427313Y0074908D01*
X0427462Y0075847D01*
X0427588Y0076790D01*
X0427691Y0077736D01*
X0427772Y0078684D01*
X0427829Y0079634D01*
X0427864Y0080585D01*
X0427875Y0081536D01*
X0427875Y0120906D01*
X0420001Y0136654D01*
X0420001Y0341379D01*
X0427875Y0357127D01*
X0427875Y0396497D01*
X0382879Y0404371D02*
X0382883Y0404702D01*
X0382895Y0405033D01*
X0382916Y0405364D01*
X0382944Y0405694D01*
X0382981Y0406024D01*
X0383025Y0406352D01*
X0383078Y0406679D01*
X0383138Y0407005D01*
X0383207Y0407329D01*
X0383284Y0407651D01*
X0383368Y0407972D01*
X0383460Y0408290D01*
X0383560Y0408606D01*
X0383668Y0408919D01*
X0383784Y0409230D01*
X0383907Y0409537D01*
X0384037Y0409842D01*
X0384175Y0410143D01*
X0384320Y0410441D01*
X0384473Y0410735D01*
X0384633Y0411025D01*
X0384800Y0411311D01*
X0384973Y0411593D01*
X0385154Y0411871D01*
X0385342Y0412144D01*
X0385536Y0412413D01*
X0385736Y0412677D01*
X0385943Y0412935D01*
X0386157Y0413189D01*
X0386376Y0413437D01*
X0386602Y0413680D01*
X0386833Y0413917D01*
X0387070Y0414148D01*
X0387313Y0414374D01*
X0387561Y0414593D01*
X0387815Y0414807D01*
X0388073Y0415014D01*
X0388337Y0415214D01*
X0388606Y0415408D01*
X0388879Y0415596D01*
X0389157Y0415777D01*
X0389439Y0415950D01*
X0389725Y0416117D01*
X0390015Y0416277D01*
X0390309Y0416430D01*
X0390607Y0416575D01*
X0390908Y0416713D01*
X0391213Y0416843D01*
X0391520Y0416966D01*
X0391831Y0417082D01*
X0392144Y0417190D01*
X0392460Y0417290D01*
X0392778Y0417382D01*
X0393099Y0417466D01*
X0393421Y0417543D01*
X0393745Y0417612D01*
X0394071Y0417672D01*
X0394398Y0417725D01*
X0394726Y0417769D01*
X0395056Y0417806D01*
X0395386Y0417834D01*
X0395717Y0417855D01*
X0396048Y0417867D01*
X0396379Y0417871D01*
X0396710Y0417867D01*
X0397041Y0417855D01*
X0397372Y0417834D01*
X0397702Y0417806D01*
X0398032Y0417769D01*
X0398360Y0417725D01*
X0398687Y0417672D01*
X0399013Y0417612D01*
X0399337Y0417543D01*
X0399659Y0417466D01*
X0399980Y0417382D01*
X0400298Y0417290D01*
X0400614Y0417190D01*
X0400927Y0417082D01*
X0401238Y0416966D01*
X0401545Y0416843D01*
X0401850Y0416713D01*
X0402151Y0416575D01*
X0402449Y0416430D01*
X0402743Y0416277D01*
X0403033Y0416117D01*
X0403319Y0415950D01*
X0403601Y0415777D01*
X0403879Y0415596D01*
X0404152Y0415408D01*
X0404421Y0415214D01*
X0404685Y0415014D01*
X0404943Y0414807D01*
X0405197Y0414593D01*
X0405445Y0414374D01*
X0405688Y0414148D01*
X0405925Y0413917D01*
X0406156Y0413680D01*
X0406382Y0413437D01*
X0406601Y0413189D01*
X0406815Y0412935D01*
X0407022Y0412677D01*
X0407222Y0412413D01*
X0407416Y0412144D01*
X0407604Y0411871D01*
X0407785Y0411593D01*
X0407958Y0411311D01*
X0408125Y0411025D01*
X0408285Y0410735D01*
X0408438Y0410441D01*
X0408583Y0410143D01*
X0408721Y0409842D01*
X0408851Y0409537D01*
X0408974Y0409230D01*
X0409090Y0408919D01*
X0409198Y0408606D01*
X0409298Y0408290D01*
X0409390Y0407972D01*
X0409474Y0407651D01*
X0409551Y0407329D01*
X0409620Y0407005D01*
X0409680Y0406679D01*
X0409733Y0406352D01*
X0409777Y0406024D01*
X0409814Y0405694D01*
X0409842Y0405364D01*
X0409863Y0405033D01*
X0409875Y0404702D01*
X0409879Y0404371D01*
X0409875Y0404040D01*
X0409863Y0403709D01*
X0409842Y0403378D01*
X0409814Y0403048D01*
X0409777Y0402718D01*
X0409733Y0402390D01*
X0409680Y0402063D01*
X0409620Y0401737D01*
X0409551Y0401413D01*
X0409474Y0401091D01*
X0409390Y0400770D01*
X0409298Y0400452D01*
X0409198Y0400136D01*
X0409090Y0399823D01*
X0408974Y0399512D01*
X0408851Y0399205D01*
X0408721Y0398900D01*
X0408583Y0398599D01*
X0408438Y0398301D01*
X0408285Y0398007D01*
X0408125Y0397717D01*
X0407958Y0397431D01*
X0407785Y0397149D01*
X0407604Y0396871D01*
X0407416Y0396598D01*
X0407222Y0396329D01*
X0407022Y0396065D01*
X0406815Y0395807D01*
X0406601Y0395553D01*
X0406382Y0395305D01*
X0406156Y0395062D01*
X0405925Y0394825D01*
X0405688Y0394594D01*
X0405445Y0394368D01*
X0405197Y0394149D01*
X0404943Y0393935D01*
X0404685Y0393728D01*
X0404421Y0393528D01*
X0404152Y0393334D01*
X0403879Y0393146D01*
X0403601Y0392965D01*
X0403319Y0392792D01*
X0403033Y0392625D01*
X0402743Y0392465D01*
X0402449Y0392312D01*
X0402151Y0392167D01*
X0401850Y0392029D01*
X0401545Y0391899D01*
X0401238Y0391776D01*
X0400927Y0391660D01*
X0400614Y0391552D01*
X0400298Y0391452D01*
X0399980Y0391360D01*
X0399659Y0391276D01*
X0399337Y0391199D01*
X0399013Y0391130D01*
X0398687Y0391070D01*
X0398360Y0391017D01*
X0398032Y0390973D01*
X0397702Y0390936D01*
X0397372Y0390908D01*
X0397041Y0390887D01*
X0396710Y0390875D01*
X0396379Y0390871D01*
X0396048Y0390875D01*
X0395717Y0390887D01*
X0395386Y0390908D01*
X0395056Y0390936D01*
X0394726Y0390973D01*
X0394398Y0391017D01*
X0394071Y0391070D01*
X0393745Y0391130D01*
X0393421Y0391199D01*
X0393099Y0391276D01*
X0392778Y0391360D01*
X0392460Y0391452D01*
X0392144Y0391552D01*
X0391831Y0391660D01*
X0391520Y0391776D01*
X0391213Y0391899D01*
X0390908Y0392029D01*
X0390607Y0392167D01*
X0390309Y0392312D01*
X0390015Y0392465D01*
X0389725Y0392625D01*
X0389439Y0392792D01*
X0389157Y0392965D01*
X0388879Y0393146D01*
X0388606Y0393334D01*
X0388337Y0393528D01*
X0388073Y0393728D01*
X0387815Y0393935D01*
X0387561Y0394149D01*
X0387313Y0394368D01*
X0387070Y0394594D01*
X0386833Y0394825D01*
X0386602Y0395062D01*
X0386376Y0395305D01*
X0386157Y0395553D01*
X0385943Y0395807D01*
X0385736Y0396065D01*
X0385536Y0396329D01*
X0385342Y0396598D01*
X0385154Y0396871D01*
X0384973Y0397149D01*
X0384800Y0397431D01*
X0384633Y0397717D01*
X0384473Y0398007D01*
X0384320Y0398301D01*
X0384175Y0398599D01*
X0384037Y0398900D01*
X0383907Y0399205D01*
X0383784Y0399512D01*
X0383668Y0399823D01*
X0383560Y0400136D01*
X0383460Y0400452D01*
X0383368Y0400770D01*
X0383284Y0401091D01*
X0383207Y0401413D01*
X0383138Y0401737D01*
X0383078Y0402063D01*
X0383025Y0402390D01*
X0382981Y0402718D01*
X0382944Y0403048D01*
X0382916Y0403378D01*
X0382895Y0403709D01*
X0382883Y0404040D01*
X0382879Y0404371D01*
X0388505Y0435867D02*
X0389456Y0435856D01*
X0390407Y0435821D01*
X0391357Y0435764D01*
X0392305Y0435683D01*
X0393251Y0435580D01*
X0394194Y0435454D01*
X0395133Y0435305D01*
X0396069Y0435134D01*
X0397000Y0434939D01*
X0397927Y0434723D01*
X0398848Y0434484D01*
X0399763Y0434223D01*
X0400671Y0433940D01*
X0401572Y0433635D01*
X0402466Y0433309D01*
X0403351Y0432960D01*
X0404228Y0432591D01*
X0405096Y0432201D01*
X0405953Y0431789D01*
X0406801Y0431357D01*
X0407638Y0430905D01*
X0408464Y0430433D01*
X0409278Y0429941D01*
X0410080Y0429429D01*
X0410870Y0428898D01*
X0411646Y0428348D01*
X0412409Y0427780D01*
X0413158Y0427193D01*
X0413892Y0426588D01*
X0414612Y0425966D01*
X0415317Y0425326D01*
X0416005Y0424670D01*
X0416678Y0423997D01*
X0417334Y0423309D01*
X0417974Y0422604D01*
X0418596Y0421884D01*
X0419201Y0421150D01*
X0419788Y0420401D01*
X0420356Y0419638D01*
X0420906Y0418862D01*
X0421437Y0418072D01*
X0421949Y0417270D01*
X0422441Y0416456D01*
X0422913Y0415630D01*
X0423365Y0414793D01*
X0423797Y0413945D01*
X0424209Y0413088D01*
X0424599Y0412220D01*
X0424968Y0411343D01*
X0425317Y0410458D01*
X0425643Y0409564D01*
X0425948Y0408663D01*
X0426231Y0407755D01*
X0426492Y0406840D01*
X0426731Y0405919D01*
X0426947Y0404992D01*
X0427142Y0404061D01*
X0427313Y0403125D01*
X0427462Y0402186D01*
X0427588Y0401243D01*
X0427691Y0400297D01*
X0427772Y0399349D01*
X0427829Y0398399D01*
X0427864Y0397448D01*
X0427875Y0396497D01*
X0388505Y0435867D02*
X0073544Y0435867D01*
X0052170Y0404371D02*
X0052174Y0404702D01*
X0052186Y0405033D01*
X0052207Y0405364D01*
X0052235Y0405694D01*
X0052272Y0406024D01*
X0052316Y0406352D01*
X0052369Y0406679D01*
X0052429Y0407005D01*
X0052498Y0407329D01*
X0052575Y0407651D01*
X0052659Y0407972D01*
X0052751Y0408290D01*
X0052851Y0408606D01*
X0052959Y0408919D01*
X0053075Y0409230D01*
X0053198Y0409537D01*
X0053328Y0409842D01*
X0053466Y0410143D01*
X0053611Y0410441D01*
X0053764Y0410735D01*
X0053924Y0411025D01*
X0054091Y0411311D01*
X0054264Y0411593D01*
X0054445Y0411871D01*
X0054633Y0412144D01*
X0054827Y0412413D01*
X0055027Y0412677D01*
X0055234Y0412935D01*
X0055448Y0413189D01*
X0055667Y0413437D01*
X0055893Y0413680D01*
X0056124Y0413917D01*
X0056361Y0414148D01*
X0056604Y0414374D01*
X0056852Y0414593D01*
X0057106Y0414807D01*
X0057364Y0415014D01*
X0057628Y0415214D01*
X0057897Y0415408D01*
X0058170Y0415596D01*
X0058448Y0415777D01*
X0058730Y0415950D01*
X0059016Y0416117D01*
X0059306Y0416277D01*
X0059600Y0416430D01*
X0059898Y0416575D01*
X0060199Y0416713D01*
X0060504Y0416843D01*
X0060811Y0416966D01*
X0061122Y0417082D01*
X0061435Y0417190D01*
X0061751Y0417290D01*
X0062069Y0417382D01*
X0062390Y0417466D01*
X0062712Y0417543D01*
X0063036Y0417612D01*
X0063362Y0417672D01*
X0063689Y0417725D01*
X0064017Y0417769D01*
X0064347Y0417806D01*
X0064677Y0417834D01*
X0065008Y0417855D01*
X0065339Y0417867D01*
X0065670Y0417871D01*
X0066001Y0417867D01*
X0066332Y0417855D01*
X0066663Y0417834D01*
X0066993Y0417806D01*
X0067323Y0417769D01*
X0067651Y0417725D01*
X0067978Y0417672D01*
X0068304Y0417612D01*
X0068628Y0417543D01*
X0068950Y0417466D01*
X0069271Y0417382D01*
X0069589Y0417290D01*
X0069905Y0417190D01*
X0070218Y0417082D01*
X0070529Y0416966D01*
X0070836Y0416843D01*
X0071141Y0416713D01*
X0071442Y0416575D01*
X0071740Y0416430D01*
X0072034Y0416277D01*
X0072324Y0416117D01*
X0072610Y0415950D01*
X0072892Y0415777D01*
X0073170Y0415596D01*
X0073443Y0415408D01*
X0073712Y0415214D01*
X0073976Y0415014D01*
X0074234Y0414807D01*
X0074488Y0414593D01*
X0074736Y0414374D01*
X0074979Y0414148D01*
X0075216Y0413917D01*
X0075447Y0413680D01*
X0075673Y0413437D01*
X0075892Y0413189D01*
X0076106Y0412935D01*
X0076313Y0412677D01*
X0076513Y0412413D01*
X0076707Y0412144D01*
X0076895Y0411871D01*
X0077076Y0411593D01*
X0077249Y0411311D01*
X0077416Y0411025D01*
X0077576Y0410735D01*
X0077729Y0410441D01*
X0077874Y0410143D01*
X0078012Y0409842D01*
X0078142Y0409537D01*
X0078265Y0409230D01*
X0078381Y0408919D01*
X0078489Y0408606D01*
X0078589Y0408290D01*
X0078681Y0407972D01*
X0078765Y0407651D01*
X0078842Y0407329D01*
X0078911Y0407005D01*
X0078971Y0406679D01*
X0079024Y0406352D01*
X0079068Y0406024D01*
X0079105Y0405694D01*
X0079133Y0405364D01*
X0079154Y0405033D01*
X0079166Y0404702D01*
X0079170Y0404371D01*
X0079166Y0404040D01*
X0079154Y0403709D01*
X0079133Y0403378D01*
X0079105Y0403048D01*
X0079068Y0402718D01*
X0079024Y0402390D01*
X0078971Y0402063D01*
X0078911Y0401737D01*
X0078842Y0401413D01*
X0078765Y0401091D01*
X0078681Y0400770D01*
X0078589Y0400452D01*
X0078489Y0400136D01*
X0078381Y0399823D01*
X0078265Y0399512D01*
X0078142Y0399205D01*
X0078012Y0398900D01*
X0077874Y0398599D01*
X0077729Y0398301D01*
X0077576Y0398007D01*
X0077416Y0397717D01*
X0077249Y0397431D01*
X0077076Y0397149D01*
X0076895Y0396871D01*
X0076707Y0396598D01*
X0076513Y0396329D01*
X0076313Y0396065D01*
X0076106Y0395807D01*
X0075892Y0395553D01*
X0075673Y0395305D01*
X0075447Y0395062D01*
X0075216Y0394825D01*
X0074979Y0394594D01*
X0074736Y0394368D01*
X0074488Y0394149D01*
X0074234Y0393935D01*
X0073976Y0393728D01*
X0073712Y0393528D01*
X0073443Y0393334D01*
X0073170Y0393146D01*
X0072892Y0392965D01*
X0072610Y0392792D01*
X0072324Y0392625D01*
X0072034Y0392465D01*
X0071740Y0392312D01*
X0071442Y0392167D01*
X0071141Y0392029D01*
X0070836Y0391899D01*
X0070529Y0391776D01*
X0070218Y0391660D01*
X0069905Y0391552D01*
X0069589Y0391452D01*
X0069271Y0391360D01*
X0068950Y0391276D01*
X0068628Y0391199D01*
X0068304Y0391130D01*
X0067978Y0391070D01*
X0067651Y0391017D01*
X0067323Y0390973D01*
X0066993Y0390936D01*
X0066663Y0390908D01*
X0066332Y0390887D01*
X0066001Y0390875D01*
X0065670Y0390871D01*
X0065339Y0390875D01*
X0065008Y0390887D01*
X0064677Y0390908D01*
X0064347Y0390936D01*
X0064017Y0390973D01*
X0063689Y0391017D01*
X0063362Y0391070D01*
X0063036Y0391130D01*
X0062712Y0391199D01*
X0062390Y0391276D01*
X0062069Y0391360D01*
X0061751Y0391452D01*
X0061435Y0391552D01*
X0061122Y0391660D01*
X0060811Y0391776D01*
X0060504Y0391899D01*
X0060199Y0392029D01*
X0059898Y0392167D01*
X0059600Y0392312D01*
X0059306Y0392465D01*
X0059016Y0392625D01*
X0058730Y0392792D01*
X0058448Y0392965D01*
X0058170Y0393146D01*
X0057897Y0393334D01*
X0057628Y0393528D01*
X0057364Y0393728D01*
X0057106Y0393935D01*
X0056852Y0394149D01*
X0056604Y0394368D01*
X0056361Y0394594D01*
X0056124Y0394825D01*
X0055893Y0395062D01*
X0055667Y0395305D01*
X0055448Y0395553D01*
X0055234Y0395807D01*
X0055027Y0396065D01*
X0054827Y0396329D01*
X0054633Y0396598D01*
X0054445Y0396871D01*
X0054264Y0397149D01*
X0054091Y0397431D01*
X0053924Y0397717D01*
X0053764Y0398007D01*
X0053611Y0398301D01*
X0053466Y0398599D01*
X0053328Y0398900D01*
X0053198Y0399205D01*
X0053075Y0399512D01*
X0052959Y0399823D01*
X0052851Y0400136D01*
X0052751Y0400452D01*
X0052659Y0400770D01*
X0052575Y0401091D01*
X0052498Y0401413D01*
X0052429Y0401737D01*
X0052369Y0402063D01*
X0052316Y0402390D01*
X0052272Y0402718D01*
X0052235Y0403048D01*
X0052207Y0403378D01*
X0052186Y0403709D01*
X0052174Y0404040D01*
X0052170Y0404371D01*
X0034174Y0396497D02*
X0034174Y0081536D01*
X0052170Y0073662D02*
X0052174Y0073993D01*
X0052186Y0074324D01*
X0052207Y0074655D01*
X0052235Y0074985D01*
X0052272Y0075315D01*
X0052316Y0075643D01*
X0052369Y0075970D01*
X0052429Y0076296D01*
X0052498Y0076620D01*
X0052575Y0076942D01*
X0052659Y0077263D01*
X0052751Y0077581D01*
X0052851Y0077897D01*
X0052959Y0078210D01*
X0053075Y0078521D01*
X0053198Y0078828D01*
X0053328Y0079133D01*
X0053466Y0079434D01*
X0053611Y0079732D01*
X0053764Y0080026D01*
X0053924Y0080316D01*
X0054091Y0080602D01*
X0054264Y0080884D01*
X0054445Y0081162D01*
X0054633Y0081435D01*
X0054827Y0081704D01*
X0055027Y0081968D01*
X0055234Y0082226D01*
X0055448Y0082480D01*
X0055667Y0082728D01*
X0055893Y0082971D01*
X0056124Y0083208D01*
X0056361Y0083439D01*
X0056604Y0083665D01*
X0056852Y0083884D01*
X0057106Y0084098D01*
X0057364Y0084305D01*
X0057628Y0084505D01*
X0057897Y0084699D01*
X0058170Y0084887D01*
X0058448Y0085068D01*
X0058730Y0085241D01*
X0059016Y0085408D01*
X0059306Y0085568D01*
X0059600Y0085721D01*
X0059898Y0085866D01*
X0060199Y0086004D01*
X0060504Y0086134D01*
X0060811Y0086257D01*
X0061122Y0086373D01*
X0061435Y0086481D01*
X0061751Y0086581D01*
X0062069Y0086673D01*
X0062390Y0086757D01*
X0062712Y0086834D01*
X0063036Y0086903D01*
X0063362Y0086963D01*
X0063689Y0087016D01*
X0064017Y0087060D01*
X0064347Y0087097D01*
X0064677Y0087125D01*
X0065008Y0087146D01*
X0065339Y0087158D01*
X0065670Y0087162D01*
X0066001Y0087158D01*
X0066332Y0087146D01*
X0066663Y0087125D01*
X0066993Y0087097D01*
X0067323Y0087060D01*
X0067651Y0087016D01*
X0067978Y0086963D01*
X0068304Y0086903D01*
X0068628Y0086834D01*
X0068950Y0086757D01*
X0069271Y0086673D01*
X0069589Y0086581D01*
X0069905Y0086481D01*
X0070218Y0086373D01*
X0070529Y0086257D01*
X0070836Y0086134D01*
X0071141Y0086004D01*
X0071442Y0085866D01*
X0071740Y0085721D01*
X0072034Y0085568D01*
X0072324Y0085408D01*
X0072610Y0085241D01*
X0072892Y0085068D01*
X0073170Y0084887D01*
X0073443Y0084699D01*
X0073712Y0084505D01*
X0073976Y0084305D01*
X0074234Y0084098D01*
X0074488Y0083884D01*
X0074736Y0083665D01*
X0074979Y0083439D01*
X0075216Y0083208D01*
X0075447Y0082971D01*
X0075673Y0082728D01*
X0075892Y0082480D01*
X0076106Y0082226D01*
X0076313Y0081968D01*
X0076513Y0081704D01*
X0076707Y0081435D01*
X0076895Y0081162D01*
X0077076Y0080884D01*
X0077249Y0080602D01*
X0077416Y0080316D01*
X0077576Y0080026D01*
X0077729Y0079732D01*
X0077874Y0079434D01*
X0078012Y0079133D01*
X0078142Y0078828D01*
X0078265Y0078521D01*
X0078381Y0078210D01*
X0078489Y0077897D01*
X0078589Y0077581D01*
X0078681Y0077263D01*
X0078765Y0076942D01*
X0078842Y0076620D01*
X0078911Y0076296D01*
X0078971Y0075970D01*
X0079024Y0075643D01*
X0079068Y0075315D01*
X0079105Y0074985D01*
X0079133Y0074655D01*
X0079154Y0074324D01*
X0079166Y0073993D01*
X0079170Y0073662D01*
X0079166Y0073331D01*
X0079154Y0073000D01*
X0079133Y0072669D01*
X0079105Y0072339D01*
X0079068Y0072009D01*
X0079024Y0071681D01*
X0078971Y0071354D01*
X0078911Y0071028D01*
X0078842Y0070704D01*
X0078765Y0070382D01*
X0078681Y0070061D01*
X0078589Y0069743D01*
X0078489Y0069427D01*
X0078381Y0069114D01*
X0078265Y0068803D01*
X0078142Y0068496D01*
X0078012Y0068191D01*
X0077874Y0067890D01*
X0077729Y0067592D01*
X0077576Y0067298D01*
X0077416Y0067008D01*
X0077249Y0066722D01*
X0077076Y0066440D01*
X0076895Y0066162D01*
X0076707Y0065889D01*
X0076513Y0065620D01*
X0076313Y0065356D01*
X0076106Y0065098D01*
X0075892Y0064844D01*
X0075673Y0064596D01*
X0075447Y0064353D01*
X0075216Y0064116D01*
X0074979Y0063885D01*
X0074736Y0063659D01*
X0074488Y0063440D01*
X0074234Y0063226D01*
X0073976Y0063019D01*
X0073712Y0062819D01*
X0073443Y0062625D01*
X0073170Y0062437D01*
X0072892Y0062256D01*
X0072610Y0062083D01*
X0072324Y0061916D01*
X0072034Y0061756D01*
X0071740Y0061603D01*
X0071442Y0061458D01*
X0071141Y0061320D01*
X0070836Y0061190D01*
X0070529Y0061067D01*
X0070218Y0060951D01*
X0069905Y0060843D01*
X0069589Y0060743D01*
X0069271Y0060651D01*
X0068950Y0060567D01*
X0068628Y0060490D01*
X0068304Y0060421D01*
X0067978Y0060361D01*
X0067651Y0060308D01*
X0067323Y0060264D01*
X0066993Y0060227D01*
X0066663Y0060199D01*
X0066332Y0060178D01*
X0066001Y0060166D01*
X0065670Y0060162D01*
X0065339Y0060166D01*
X0065008Y0060178D01*
X0064677Y0060199D01*
X0064347Y0060227D01*
X0064017Y0060264D01*
X0063689Y0060308D01*
X0063362Y0060361D01*
X0063036Y0060421D01*
X0062712Y0060490D01*
X0062390Y0060567D01*
X0062069Y0060651D01*
X0061751Y0060743D01*
X0061435Y0060843D01*
X0061122Y0060951D01*
X0060811Y0061067D01*
X0060504Y0061190D01*
X0060199Y0061320D01*
X0059898Y0061458D01*
X0059600Y0061603D01*
X0059306Y0061756D01*
X0059016Y0061916D01*
X0058730Y0062083D01*
X0058448Y0062256D01*
X0058170Y0062437D01*
X0057897Y0062625D01*
X0057628Y0062819D01*
X0057364Y0063019D01*
X0057106Y0063226D01*
X0056852Y0063440D01*
X0056604Y0063659D01*
X0056361Y0063885D01*
X0056124Y0064116D01*
X0055893Y0064353D01*
X0055667Y0064596D01*
X0055448Y0064844D01*
X0055234Y0065098D01*
X0055027Y0065356D01*
X0054827Y0065620D01*
X0054633Y0065889D01*
X0054445Y0066162D01*
X0054264Y0066440D01*
X0054091Y0066722D01*
X0053924Y0067008D01*
X0053764Y0067298D01*
X0053611Y0067592D01*
X0053466Y0067890D01*
X0053328Y0068191D01*
X0053198Y0068496D01*
X0053075Y0068803D01*
X0052959Y0069114D01*
X0052851Y0069427D01*
X0052751Y0069743D01*
X0052659Y0070061D01*
X0052575Y0070382D01*
X0052498Y0070704D01*
X0052429Y0071028D01*
X0052369Y0071354D01*
X0052316Y0071681D01*
X0052272Y0072009D01*
X0052235Y0072339D01*
X0052207Y0072669D01*
X0052186Y0073000D01*
X0052174Y0073331D01*
X0052170Y0073662D01*
X0034174Y0081536D02*
X0034185Y0080585D01*
X0034220Y0079634D01*
X0034277Y0078684D01*
X0034358Y0077736D01*
X0034461Y0076790D01*
X0034587Y0075847D01*
X0034736Y0074908D01*
X0034907Y0073972D01*
X0035102Y0073041D01*
X0035318Y0072114D01*
X0035557Y0071193D01*
X0035818Y0070278D01*
X0036101Y0069370D01*
X0036406Y0068469D01*
X0036732Y0067575D01*
X0037081Y0066690D01*
X0037450Y0065813D01*
X0037840Y0064945D01*
X0038252Y0064088D01*
X0038684Y0063240D01*
X0039136Y0062403D01*
X0039608Y0061577D01*
X0040100Y0060763D01*
X0040612Y0059961D01*
X0041143Y0059171D01*
X0041693Y0058395D01*
X0042261Y0057632D01*
X0042848Y0056883D01*
X0043453Y0056149D01*
X0044075Y0055429D01*
X0044715Y0054724D01*
X0045371Y0054036D01*
X0046044Y0053363D01*
X0046732Y0052707D01*
X0047437Y0052067D01*
X0048157Y0051445D01*
X0048891Y0050840D01*
X0049640Y0050253D01*
X0050403Y0049685D01*
X0051179Y0049135D01*
X0051969Y0048604D01*
X0052771Y0048092D01*
X0053585Y0047600D01*
X0054411Y0047128D01*
X0055248Y0046676D01*
X0056096Y0046244D01*
X0056953Y0045832D01*
X0057821Y0045442D01*
X0058698Y0045073D01*
X0059583Y0044724D01*
X0060477Y0044398D01*
X0061378Y0044093D01*
X0062286Y0043810D01*
X0063201Y0043549D01*
X0064122Y0043310D01*
X0065049Y0043094D01*
X0065980Y0042899D01*
X0066916Y0042728D01*
X0067855Y0042579D01*
X0068798Y0042453D01*
X0069744Y0042350D01*
X0070692Y0042269D01*
X0071642Y0042212D01*
X0072593Y0042177D01*
X0073544Y0042166D01*
X0109774Y0098866D02*
X0113974Y0098866D01*
X0116374Y0098866D01*
X0120574Y0098866D01*
X0120574Y0118466D02*
X0109774Y0118466D01*
X0156806Y0116966D02*
X0167606Y0116966D01*
X0167606Y0097366D02*
X0163406Y0097366D01*
X0161006Y0097366D01*
X0156806Y0097366D01*
X0210261Y0149238D02*
X0210261Y0155638D01*
X0212039Y0155638D01*
X0212113Y0155636D01*
X0212188Y0155630D01*
X0212261Y0155620D01*
X0212335Y0155607D01*
X0212407Y0155590D01*
X0212478Y0155568D01*
X0212549Y0155544D01*
X0212617Y0155515D01*
X0212685Y0155483D01*
X0212750Y0155447D01*
X0212813Y0155409D01*
X0212875Y0155366D01*
X0212934Y0155321D01*
X0212991Y0155273D01*
X0213045Y0155222D01*
X0213096Y0155168D01*
X0213144Y0155111D01*
X0213189Y0155052D01*
X0213232Y0154990D01*
X0213270Y0154927D01*
X0213306Y0154862D01*
X0213338Y0154794D01*
X0213367Y0154726D01*
X0213391Y0154655D01*
X0213413Y0154584D01*
X0213430Y0154512D01*
X0213443Y0154438D01*
X0213453Y0154365D01*
X0213459Y0154290D01*
X0213461Y0154216D01*
X0213459Y0154142D01*
X0213453Y0154067D01*
X0213443Y0153994D01*
X0213430Y0153920D01*
X0213413Y0153848D01*
X0213391Y0153777D01*
X0213367Y0153706D01*
X0213338Y0153638D01*
X0213306Y0153570D01*
X0213270Y0153505D01*
X0213232Y0153442D01*
X0213189Y0153380D01*
X0213144Y0153321D01*
X0213096Y0153264D01*
X0213045Y0153210D01*
X0212991Y0153159D01*
X0212934Y0153111D01*
X0212875Y0153066D01*
X0212813Y0153023D01*
X0212750Y0152985D01*
X0212685Y0152949D01*
X0212617Y0152917D01*
X0212549Y0152888D01*
X0212478Y0152864D01*
X0212407Y0152842D01*
X0212335Y0152825D01*
X0212261Y0152812D01*
X0212188Y0152802D01*
X0212113Y0152796D01*
X0212039Y0152794D01*
X0212039Y0152793D02*
X0210261Y0152793D01*
X0212039Y0152794D02*
X0212122Y0152792D01*
X0212205Y0152786D01*
X0212288Y0152776D01*
X0212371Y0152763D01*
X0212452Y0152745D01*
X0212533Y0152724D01*
X0212612Y0152699D01*
X0212690Y0152670D01*
X0212767Y0152638D01*
X0212842Y0152602D01*
X0212916Y0152563D01*
X0212987Y0152520D01*
X0213057Y0152474D01*
X0213124Y0152424D01*
X0213189Y0152372D01*
X0213251Y0152317D01*
X0213311Y0152258D01*
X0213368Y0152197D01*
X0213422Y0152134D01*
X0213473Y0152068D01*
X0213520Y0151999D01*
X0213565Y0151929D01*
X0213606Y0151856D01*
X0213643Y0151782D01*
X0213678Y0151706D01*
X0213708Y0151628D01*
X0213735Y0151550D01*
X0213758Y0151469D01*
X0213778Y0151388D01*
X0213793Y0151306D01*
X0213805Y0151224D01*
X0213813Y0151141D01*
X0213817Y0151058D01*
X0213817Y0150974D01*
X0213813Y0150891D01*
X0213805Y0150808D01*
X0213793Y0150726D01*
X0213778Y0150644D01*
X0213758Y0150563D01*
X0213735Y0150482D01*
X0213708Y0150404D01*
X0213678Y0150326D01*
X0213643Y0150250D01*
X0213606Y0150176D01*
X0213565Y0150103D01*
X0213520Y0150033D01*
X0213473Y0149964D01*
X0213422Y0149898D01*
X0213368Y0149835D01*
X0213311Y0149774D01*
X0213251Y0149715D01*
X0213189Y0149660D01*
X0213124Y0149608D01*
X0213057Y0149558D01*
X0212987Y0149512D01*
X0212916Y0149469D01*
X0212842Y0149430D01*
X0212767Y0149394D01*
X0212690Y0149362D01*
X0212612Y0149333D01*
X0212533Y0149308D01*
X0212452Y0149287D01*
X0212371Y0149269D01*
X0212288Y0149256D01*
X0212205Y0149246D01*
X0212122Y0149240D01*
X0212039Y0149238D01*
X0210261Y0149238D01*
X0216073Y0150660D02*
X0216073Y0152082D01*
X0216075Y0152156D01*
X0216081Y0152231D01*
X0216091Y0152304D01*
X0216104Y0152378D01*
X0216121Y0152450D01*
X0216143Y0152521D01*
X0216167Y0152592D01*
X0216196Y0152660D01*
X0216228Y0152728D01*
X0216264Y0152793D01*
X0216302Y0152856D01*
X0216345Y0152918D01*
X0216390Y0152977D01*
X0216438Y0153034D01*
X0216489Y0153088D01*
X0216543Y0153139D01*
X0216600Y0153187D01*
X0216659Y0153232D01*
X0216721Y0153275D01*
X0216784Y0153313D01*
X0216849Y0153349D01*
X0216917Y0153381D01*
X0216985Y0153410D01*
X0217056Y0153434D01*
X0217127Y0153456D01*
X0217199Y0153473D01*
X0217273Y0153486D01*
X0217346Y0153496D01*
X0217421Y0153502D01*
X0217495Y0153504D01*
X0217569Y0153502D01*
X0217644Y0153496D01*
X0217717Y0153486D01*
X0217791Y0153473D01*
X0217863Y0153456D01*
X0217934Y0153434D01*
X0218005Y0153410D01*
X0218073Y0153381D01*
X0218141Y0153349D01*
X0218206Y0153313D01*
X0218269Y0153275D01*
X0218331Y0153232D01*
X0218390Y0153187D01*
X0218447Y0153139D01*
X0218501Y0153088D01*
X0218552Y0153034D01*
X0218600Y0152977D01*
X0218645Y0152918D01*
X0218688Y0152856D01*
X0218726Y0152793D01*
X0218762Y0152728D01*
X0218794Y0152660D01*
X0218823Y0152592D01*
X0218847Y0152521D01*
X0218869Y0152450D01*
X0218886Y0152378D01*
X0218899Y0152304D01*
X0218909Y0152231D01*
X0218915Y0152156D01*
X0218917Y0152082D01*
X0218917Y0150660D01*
X0218915Y0150586D01*
X0218909Y0150511D01*
X0218899Y0150438D01*
X0218886Y0150364D01*
X0218869Y0150292D01*
X0218847Y0150221D01*
X0218823Y0150150D01*
X0218794Y0150082D01*
X0218762Y0150014D01*
X0218726Y0149949D01*
X0218688Y0149886D01*
X0218645Y0149824D01*
X0218600Y0149765D01*
X0218552Y0149708D01*
X0218501Y0149654D01*
X0218447Y0149603D01*
X0218390Y0149555D01*
X0218331Y0149510D01*
X0218269Y0149467D01*
X0218206Y0149429D01*
X0218141Y0149393D01*
X0218073Y0149361D01*
X0218005Y0149332D01*
X0217934Y0149308D01*
X0217863Y0149286D01*
X0217791Y0149269D01*
X0217717Y0149256D01*
X0217644Y0149246D01*
X0217569Y0149240D01*
X0217495Y0149238D01*
X0217421Y0149240D01*
X0217346Y0149246D01*
X0217273Y0149256D01*
X0217199Y0149269D01*
X0217127Y0149286D01*
X0217056Y0149308D01*
X0216985Y0149332D01*
X0216917Y0149361D01*
X0216849Y0149393D01*
X0216784Y0149429D01*
X0216721Y0149467D01*
X0216659Y0149510D01*
X0216600Y0149555D01*
X0216543Y0149603D01*
X0216489Y0149654D01*
X0216438Y0149708D01*
X0216390Y0149765D01*
X0216345Y0149824D01*
X0216302Y0149886D01*
X0216264Y0149949D01*
X0216228Y0150014D01*
X0216196Y0150082D01*
X0216167Y0150150D01*
X0216143Y0150221D01*
X0216121Y0150292D01*
X0216104Y0150364D01*
X0216091Y0150438D01*
X0216081Y0150511D01*
X0216075Y0150586D01*
X0216073Y0150660D01*
X0221499Y0150304D02*
X0221499Y0155638D01*
X0224688Y0152082D02*
X0224688Y0150304D01*
X0224690Y0150240D01*
X0224696Y0150175D01*
X0224705Y0150112D01*
X0224719Y0150049D01*
X0224736Y0149987D01*
X0224757Y0149926D01*
X0224782Y0149866D01*
X0224810Y0149808D01*
X0224842Y0149752D01*
X0224877Y0149698D01*
X0224915Y0149646D01*
X0224956Y0149596D01*
X0225001Y0149550D01*
X0225047Y0149505D01*
X0225097Y0149464D01*
X0225149Y0149426D01*
X0225203Y0149391D01*
X0225259Y0149359D01*
X0225317Y0149331D01*
X0225377Y0149306D01*
X0225438Y0149285D01*
X0225500Y0149268D01*
X0225563Y0149254D01*
X0225626Y0149245D01*
X0225691Y0149239D01*
X0225755Y0149237D01*
X0225755Y0149238D02*
X0227533Y0149238D01*
X0227533Y0151371D02*
X0224688Y0151371D01*
X0224688Y0152082D02*
X0224690Y0152156D01*
X0224696Y0152231D01*
X0224706Y0152304D01*
X0224719Y0152378D01*
X0224736Y0152450D01*
X0224758Y0152521D01*
X0224782Y0152592D01*
X0224811Y0152660D01*
X0224843Y0152728D01*
X0224879Y0152793D01*
X0224917Y0152856D01*
X0224960Y0152918D01*
X0225005Y0152977D01*
X0225053Y0153034D01*
X0225104Y0153088D01*
X0225158Y0153139D01*
X0225215Y0153187D01*
X0225274Y0153232D01*
X0225336Y0153275D01*
X0225399Y0153313D01*
X0225464Y0153349D01*
X0225532Y0153381D01*
X0225600Y0153410D01*
X0225671Y0153434D01*
X0225742Y0153456D01*
X0225814Y0153473D01*
X0225888Y0153486D01*
X0225961Y0153496D01*
X0226036Y0153502D01*
X0226110Y0153504D01*
X0226184Y0153502D01*
X0226259Y0153496D01*
X0226332Y0153486D01*
X0226406Y0153473D01*
X0226478Y0153456D01*
X0226549Y0153434D01*
X0226620Y0153410D01*
X0226688Y0153381D01*
X0226756Y0153349D01*
X0226821Y0153313D01*
X0226884Y0153275D01*
X0226946Y0153232D01*
X0227005Y0153187D01*
X0227062Y0153139D01*
X0227116Y0153088D01*
X0227167Y0153034D01*
X0227215Y0152977D01*
X0227260Y0152918D01*
X0227303Y0152856D01*
X0227341Y0152793D01*
X0227377Y0152728D01*
X0227409Y0152660D01*
X0227438Y0152592D01*
X0227462Y0152521D01*
X0227484Y0152450D01*
X0227501Y0152378D01*
X0227514Y0152304D01*
X0227524Y0152231D01*
X0227530Y0152156D01*
X0227532Y0152082D01*
X0227533Y0152082D02*
X0227533Y0151371D01*
X0230293Y0151371D02*
X0233138Y0153504D01*
X0231538Y0152260D02*
X0233138Y0149238D01*
X0230293Y0149238D02*
X0230293Y0155638D01*
X0222566Y0149237D02*
X0222502Y0149239D01*
X0222437Y0149245D01*
X0222374Y0149254D01*
X0222311Y0149268D01*
X0222249Y0149285D01*
X0222188Y0149306D01*
X0222128Y0149331D01*
X0222070Y0149359D01*
X0222014Y0149391D01*
X0221960Y0149426D01*
X0221908Y0149464D01*
X0221858Y0149505D01*
X0221812Y0149550D01*
X0221767Y0149596D01*
X0221726Y0149646D01*
X0221688Y0149698D01*
X0221653Y0149752D01*
X0221621Y0149808D01*
X0221593Y0149866D01*
X0221568Y0149926D01*
X0221547Y0149987D01*
X0221530Y0150049D01*
X0221516Y0150112D01*
X0221507Y0150175D01*
X0221501Y0150240D01*
X0221499Y0150304D01*
X0238692Y0149238D02*
X0242248Y0149238D01*
X0240470Y0149238D02*
X0240470Y0155638D01*
X0238692Y0154216D01*
X0244600Y0149593D02*
X0244955Y0149593D01*
X0244955Y0149238D01*
X0244600Y0149238D01*
X0244600Y0149593D01*
X0250330Y0150127D02*
X0250390Y0150254D01*
X0250446Y0150383D01*
X0250499Y0150513D01*
X0250549Y0150645D01*
X0250595Y0150778D01*
X0250637Y0150912D01*
X0250676Y0151047D01*
X0250712Y0151184D01*
X0250743Y0151321D01*
X0250771Y0151459D01*
X0250796Y0151597D01*
X0250816Y0151736D01*
X0250833Y0151876D01*
X0250846Y0152016D01*
X0250855Y0152157D01*
X0250861Y0152297D01*
X0250863Y0152438D01*
X0247308Y0152438D02*
X0247310Y0152579D01*
X0247316Y0152719D01*
X0247325Y0152860D01*
X0247338Y0153000D01*
X0247355Y0153140D01*
X0247375Y0153279D01*
X0247400Y0153417D01*
X0247428Y0153555D01*
X0247459Y0153692D01*
X0247495Y0153829D01*
X0247534Y0153964D01*
X0247576Y0154098D01*
X0247622Y0154231D01*
X0247672Y0154363D01*
X0247725Y0154493D01*
X0247781Y0154622D01*
X0247841Y0154749D01*
X0249085Y0155638D02*
X0249156Y0155636D01*
X0249227Y0155630D01*
X0249297Y0155621D01*
X0249367Y0155607D01*
X0249436Y0155590D01*
X0249503Y0155570D01*
X0249570Y0155545D01*
X0249635Y0155517D01*
X0249699Y0155486D01*
X0249761Y0155451D01*
X0249821Y0155413D01*
X0249879Y0155372D01*
X0249934Y0155328D01*
X0249987Y0155280D01*
X0250037Y0155230D01*
X0250085Y0155178D01*
X0250130Y0155123D01*
X0250171Y0155065D01*
X0250210Y0155005D01*
X0250245Y0154944D01*
X0250277Y0154880D01*
X0250305Y0154815D01*
X0250330Y0154749D01*
X0250508Y0154216D02*
X0247663Y0150660D01*
X0249085Y0149237D02*
X0249156Y0149239D01*
X0249227Y0149245D01*
X0249297Y0149254D01*
X0249367Y0149268D01*
X0249436Y0149285D01*
X0249503Y0149305D01*
X0249570Y0149330D01*
X0249635Y0149358D01*
X0249699Y0149389D01*
X0249761Y0149424D01*
X0249821Y0149462D01*
X0249878Y0149503D01*
X0249934Y0149547D01*
X0249987Y0149595D01*
X0250037Y0149645D01*
X0250085Y0149697D01*
X0250130Y0149752D01*
X0250171Y0149810D01*
X0250210Y0149870D01*
X0250245Y0149931D01*
X0250277Y0149995D01*
X0250305Y0150060D01*
X0250330Y0150126D01*
X0249085Y0149237D02*
X0249014Y0149239D01*
X0248943Y0149245D01*
X0248873Y0149254D01*
X0248803Y0149268D01*
X0248734Y0149285D01*
X0248667Y0149305D01*
X0248600Y0149330D01*
X0248535Y0149358D01*
X0248471Y0149389D01*
X0248409Y0149424D01*
X0248349Y0149462D01*
X0248291Y0149503D01*
X0248236Y0149547D01*
X0248183Y0149595D01*
X0248133Y0149645D01*
X0248085Y0149697D01*
X0248040Y0149752D01*
X0247999Y0149810D01*
X0247960Y0149870D01*
X0247925Y0149931D01*
X0247893Y0149995D01*
X0247865Y0150060D01*
X0247840Y0150126D01*
X0250863Y0152438D02*
X0250861Y0152579D01*
X0250855Y0152719D01*
X0250846Y0152860D01*
X0250833Y0153000D01*
X0250816Y0153140D01*
X0250796Y0153279D01*
X0250771Y0153417D01*
X0250743Y0153555D01*
X0250712Y0153692D01*
X0250676Y0153829D01*
X0250637Y0153964D01*
X0250595Y0154098D01*
X0250549Y0154231D01*
X0250499Y0154363D01*
X0250446Y0154493D01*
X0250390Y0154622D01*
X0250330Y0154749D01*
X0249085Y0155638D02*
X0249014Y0155636D01*
X0248943Y0155630D01*
X0248873Y0155621D01*
X0248803Y0155607D01*
X0248734Y0155590D01*
X0248667Y0155570D01*
X0248600Y0155545D01*
X0248535Y0155517D01*
X0248471Y0155486D01*
X0248409Y0155451D01*
X0248349Y0155413D01*
X0248291Y0155372D01*
X0248236Y0155328D01*
X0248183Y0155280D01*
X0248133Y0155230D01*
X0248085Y0155178D01*
X0248040Y0155123D01*
X0247999Y0155065D01*
X0247960Y0155005D01*
X0247925Y0154944D01*
X0247893Y0154880D01*
X0247865Y0154815D01*
X0247840Y0154749D01*
X0247308Y0152438D02*
X0247310Y0152297D01*
X0247316Y0152157D01*
X0247325Y0152016D01*
X0247338Y0151876D01*
X0247355Y0151736D01*
X0247375Y0151597D01*
X0247400Y0151459D01*
X0247428Y0151321D01*
X0247459Y0151184D01*
X0247495Y0151047D01*
X0247534Y0150912D01*
X0247576Y0150778D01*
X0247622Y0150645D01*
X0247672Y0150513D01*
X0247725Y0150383D01*
X0247781Y0150254D01*
X0247841Y0150127D01*
X0298844Y0180734D02*
X0298844Y0187134D01*
X0300622Y0187134D01*
X0300696Y0187132D01*
X0300771Y0187126D01*
X0300844Y0187116D01*
X0300918Y0187103D01*
X0300990Y0187086D01*
X0301061Y0187064D01*
X0301132Y0187040D01*
X0301200Y0187011D01*
X0301268Y0186979D01*
X0301333Y0186943D01*
X0301396Y0186905D01*
X0301458Y0186862D01*
X0301517Y0186817D01*
X0301574Y0186769D01*
X0301628Y0186718D01*
X0301679Y0186664D01*
X0301727Y0186607D01*
X0301772Y0186548D01*
X0301815Y0186486D01*
X0301853Y0186423D01*
X0301889Y0186358D01*
X0301921Y0186290D01*
X0301950Y0186222D01*
X0301974Y0186151D01*
X0301996Y0186080D01*
X0302013Y0186008D01*
X0302026Y0185934D01*
X0302036Y0185861D01*
X0302042Y0185786D01*
X0302044Y0185712D01*
X0302042Y0185638D01*
X0302036Y0185563D01*
X0302026Y0185490D01*
X0302013Y0185416D01*
X0301996Y0185344D01*
X0301974Y0185273D01*
X0301950Y0185202D01*
X0301921Y0185134D01*
X0301889Y0185066D01*
X0301853Y0185001D01*
X0301815Y0184938D01*
X0301772Y0184876D01*
X0301727Y0184817D01*
X0301679Y0184760D01*
X0301628Y0184706D01*
X0301574Y0184655D01*
X0301517Y0184607D01*
X0301458Y0184562D01*
X0301396Y0184519D01*
X0301333Y0184481D01*
X0301268Y0184445D01*
X0301200Y0184413D01*
X0301132Y0184384D01*
X0301061Y0184360D01*
X0300990Y0184338D01*
X0300918Y0184321D01*
X0300844Y0184308D01*
X0300771Y0184298D01*
X0300696Y0184292D01*
X0300622Y0184290D01*
X0300622Y0184289D02*
X0298844Y0184289D01*
X0300622Y0184290D02*
X0300705Y0184288D01*
X0300788Y0184282D01*
X0300871Y0184272D01*
X0300954Y0184259D01*
X0301035Y0184241D01*
X0301116Y0184220D01*
X0301195Y0184195D01*
X0301273Y0184166D01*
X0301350Y0184134D01*
X0301425Y0184098D01*
X0301499Y0184059D01*
X0301570Y0184016D01*
X0301640Y0183970D01*
X0301707Y0183920D01*
X0301772Y0183868D01*
X0301834Y0183813D01*
X0301894Y0183754D01*
X0301951Y0183693D01*
X0302005Y0183630D01*
X0302056Y0183564D01*
X0302103Y0183495D01*
X0302148Y0183425D01*
X0302189Y0183352D01*
X0302226Y0183278D01*
X0302261Y0183202D01*
X0302291Y0183124D01*
X0302318Y0183046D01*
X0302341Y0182965D01*
X0302361Y0182884D01*
X0302376Y0182802D01*
X0302388Y0182720D01*
X0302396Y0182637D01*
X0302400Y0182554D01*
X0302400Y0182470D01*
X0302396Y0182387D01*
X0302388Y0182304D01*
X0302376Y0182222D01*
X0302361Y0182140D01*
X0302341Y0182059D01*
X0302318Y0181978D01*
X0302291Y0181900D01*
X0302261Y0181822D01*
X0302226Y0181746D01*
X0302189Y0181672D01*
X0302148Y0181599D01*
X0302103Y0181529D01*
X0302056Y0181460D01*
X0302005Y0181394D01*
X0301951Y0181331D01*
X0301894Y0181270D01*
X0301834Y0181211D01*
X0301772Y0181156D01*
X0301707Y0181104D01*
X0301640Y0181054D01*
X0301570Y0181008D01*
X0301499Y0180965D01*
X0301425Y0180926D01*
X0301350Y0180890D01*
X0301273Y0180858D01*
X0301195Y0180829D01*
X0301116Y0180804D01*
X0301035Y0180783D01*
X0300954Y0180765D01*
X0300871Y0180752D01*
X0300788Y0180742D01*
X0300705Y0180736D01*
X0300622Y0180734D01*
X0298844Y0180734D01*
X0304655Y0182156D02*
X0304655Y0183578D01*
X0304657Y0183652D01*
X0304663Y0183727D01*
X0304673Y0183800D01*
X0304686Y0183874D01*
X0304703Y0183946D01*
X0304725Y0184017D01*
X0304749Y0184088D01*
X0304778Y0184156D01*
X0304810Y0184224D01*
X0304846Y0184289D01*
X0304884Y0184352D01*
X0304927Y0184414D01*
X0304972Y0184473D01*
X0305020Y0184530D01*
X0305071Y0184584D01*
X0305125Y0184635D01*
X0305182Y0184683D01*
X0305241Y0184728D01*
X0305303Y0184771D01*
X0305366Y0184809D01*
X0305431Y0184845D01*
X0305499Y0184877D01*
X0305567Y0184906D01*
X0305638Y0184930D01*
X0305709Y0184952D01*
X0305781Y0184969D01*
X0305855Y0184982D01*
X0305928Y0184992D01*
X0306003Y0184998D01*
X0306077Y0185000D01*
X0306151Y0184998D01*
X0306226Y0184992D01*
X0306299Y0184982D01*
X0306373Y0184969D01*
X0306445Y0184952D01*
X0306516Y0184930D01*
X0306587Y0184906D01*
X0306655Y0184877D01*
X0306723Y0184845D01*
X0306788Y0184809D01*
X0306851Y0184771D01*
X0306913Y0184728D01*
X0306972Y0184683D01*
X0307029Y0184635D01*
X0307083Y0184584D01*
X0307134Y0184530D01*
X0307182Y0184473D01*
X0307227Y0184414D01*
X0307270Y0184352D01*
X0307308Y0184289D01*
X0307344Y0184224D01*
X0307376Y0184156D01*
X0307405Y0184088D01*
X0307429Y0184017D01*
X0307451Y0183946D01*
X0307468Y0183874D01*
X0307481Y0183800D01*
X0307491Y0183727D01*
X0307497Y0183652D01*
X0307499Y0183578D01*
X0307500Y0183578D02*
X0307500Y0182156D01*
X0307499Y0182156D02*
X0307497Y0182082D01*
X0307491Y0182007D01*
X0307481Y0181934D01*
X0307468Y0181860D01*
X0307451Y0181788D01*
X0307429Y0181717D01*
X0307405Y0181646D01*
X0307376Y0181578D01*
X0307344Y0181510D01*
X0307308Y0181445D01*
X0307270Y0181382D01*
X0307227Y0181320D01*
X0307182Y0181261D01*
X0307134Y0181204D01*
X0307083Y0181150D01*
X0307029Y0181099D01*
X0306972Y0181051D01*
X0306913Y0181006D01*
X0306851Y0180963D01*
X0306788Y0180925D01*
X0306723Y0180889D01*
X0306655Y0180857D01*
X0306587Y0180828D01*
X0306516Y0180804D01*
X0306445Y0180782D01*
X0306373Y0180765D01*
X0306299Y0180752D01*
X0306226Y0180742D01*
X0306151Y0180736D01*
X0306077Y0180734D01*
X0306003Y0180736D01*
X0305928Y0180742D01*
X0305855Y0180752D01*
X0305781Y0180765D01*
X0305709Y0180782D01*
X0305638Y0180804D01*
X0305567Y0180828D01*
X0305499Y0180857D01*
X0305431Y0180889D01*
X0305366Y0180925D01*
X0305303Y0180963D01*
X0305241Y0181006D01*
X0305182Y0181051D01*
X0305125Y0181099D01*
X0305071Y0181150D01*
X0305020Y0181204D01*
X0304972Y0181261D01*
X0304927Y0181320D01*
X0304884Y0181382D01*
X0304846Y0181445D01*
X0304810Y0181510D01*
X0304778Y0181578D01*
X0304749Y0181646D01*
X0304725Y0181717D01*
X0304703Y0181788D01*
X0304686Y0181860D01*
X0304673Y0181934D01*
X0304663Y0182007D01*
X0304657Y0182082D01*
X0304655Y0182156D01*
X0310082Y0181801D02*
X0310082Y0187134D01*
X0313542Y0187134D02*
X0313542Y0180734D01*
X0313542Y0182867D02*
X0316387Y0185001D01*
X0314787Y0183756D02*
X0316387Y0180734D01*
X0319820Y0180734D02*
X0321420Y0180734D01*
X0321420Y0183934D01*
X0321420Y0183223D02*
X0319820Y0183223D01*
X0321420Y0183934D02*
X0321418Y0183998D01*
X0321412Y0184063D01*
X0321403Y0184126D01*
X0321389Y0184189D01*
X0321372Y0184251D01*
X0321351Y0184312D01*
X0321326Y0184372D01*
X0321298Y0184430D01*
X0321266Y0184486D01*
X0321231Y0184540D01*
X0321193Y0184592D01*
X0321152Y0184642D01*
X0321107Y0184688D01*
X0321061Y0184733D01*
X0321011Y0184774D01*
X0320959Y0184812D01*
X0320905Y0184847D01*
X0320849Y0184879D01*
X0320791Y0184907D01*
X0320731Y0184932D01*
X0320670Y0184953D01*
X0320608Y0184970D01*
X0320545Y0184984D01*
X0320482Y0184993D01*
X0320417Y0184999D01*
X0320353Y0185001D01*
X0318931Y0185001D01*
X0319820Y0183222D02*
X0319750Y0183220D01*
X0319681Y0183214D01*
X0319612Y0183204D01*
X0319543Y0183191D01*
X0319476Y0183173D01*
X0319409Y0183152D01*
X0319344Y0183127D01*
X0319280Y0183099D01*
X0319218Y0183067D01*
X0319158Y0183031D01*
X0319100Y0182993D01*
X0319044Y0182951D01*
X0318991Y0182906D01*
X0318940Y0182858D01*
X0318892Y0182807D01*
X0318847Y0182754D01*
X0318805Y0182698D01*
X0318767Y0182640D01*
X0318731Y0182580D01*
X0318699Y0182518D01*
X0318671Y0182454D01*
X0318646Y0182389D01*
X0318625Y0182322D01*
X0318607Y0182255D01*
X0318594Y0182186D01*
X0318584Y0182117D01*
X0318578Y0182048D01*
X0318576Y0181978D01*
X0318578Y0181908D01*
X0318584Y0181839D01*
X0318594Y0181770D01*
X0318607Y0181701D01*
X0318625Y0181634D01*
X0318646Y0181567D01*
X0318671Y0181502D01*
X0318699Y0181438D01*
X0318731Y0181376D01*
X0318767Y0181316D01*
X0318805Y0181258D01*
X0318847Y0181202D01*
X0318892Y0181149D01*
X0318940Y0181098D01*
X0318991Y0181050D01*
X0319044Y0181005D01*
X0319100Y0180963D01*
X0319158Y0180925D01*
X0319218Y0180889D01*
X0319280Y0180857D01*
X0319344Y0180829D01*
X0319409Y0180804D01*
X0319476Y0180783D01*
X0319543Y0180765D01*
X0319612Y0180752D01*
X0319681Y0180742D01*
X0319750Y0180736D01*
X0319820Y0180734D01*
X0311149Y0180734D02*
X0311085Y0180736D01*
X0311020Y0180742D01*
X0310957Y0180751D01*
X0310894Y0180765D01*
X0310832Y0180782D01*
X0310771Y0180803D01*
X0310711Y0180828D01*
X0310653Y0180856D01*
X0310597Y0180888D01*
X0310543Y0180923D01*
X0310491Y0180961D01*
X0310441Y0181002D01*
X0310395Y0181047D01*
X0310350Y0181093D01*
X0310309Y0181143D01*
X0310271Y0181195D01*
X0310236Y0181249D01*
X0310204Y0181305D01*
X0310176Y0181363D01*
X0310151Y0181423D01*
X0310130Y0181484D01*
X0310113Y0181546D01*
X0310099Y0181609D01*
X0310090Y0181672D01*
X0310084Y0181737D01*
X0310082Y0181801D01*
X0309224Y0191234D02*
X0310291Y0194078D01*
X0311357Y0191234D01*
X0312424Y0195501D01*
X0314817Y0194078D02*
X0314817Y0192656D01*
X0314819Y0192582D01*
X0314825Y0192507D01*
X0314835Y0192434D01*
X0314848Y0192360D01*
X0314865Y0192288D01*
X0314887Y0192217D01*
X0314911Y0192146D01*
X0314940Y0192078D01*
X0314972Y0192010D01*
X0315008Y0191945D01*
X0315046Y0191882D01*
X0315089Y0191820D01*
X0315134Y0191761D01*
X0315182Y0191704D01*
X0315233Y0191650D01*
X0315287Y0191599D01*
X0315344Y0191551D01*
X0315403Y0191506D01*
X0315465Y0191463D01*
X0315528Y0191425D01*
X0315593Y0191389D01*
X0315661Y0191357D01*
X0315729Y0191328D01*
X0315800Y0191304D01*
X0315871Y0191282D01*
X0315943Y0191265D01*
X0316017Y0191252D01*
X0316090Y0191242D01*
X0316165Y0191236D01*
X0316239Y0191234D01*
X0316313Y0191236D01*
X0316388Y0191242D01*
X0316461Y0191252D01*
X0316535Y0191265D01*
X0316607Y0191282D01*
X0316678Y0191304D01*
X0316749Y0191328D01*
X0316817Y0191357D01*
X0316885Y0191389D01*
X0316950Y0191425D01*
X0317013Y0191463D01*
X0317075Y0191506D01*
X0317134Y0191551D01*
X0317191Y0191599D01*
X0317245Y0191650D01*
X0317296Y0191704D01*
X0317344Y0191761D01*
X0317389Y0191820D01*
X0317432Y0191882D01*
X0317470Y0191945D01*
X0317506Y0192010D01*
X0317538Y0192078D01*
X0317567Y0192146D01*
X0317591Y0192217D01*
X0317613Y0192288D01*
X0317630Y0192360D01*
X0317643Y0192434D01*
X0317653Y0192507D01*
X0317659Y0192582D01*
X0317661Y0192656D01*
X0317662Y0192656D02*
X0317662Y0194078D01*
X0317661Y0194078D02*
X0317659Y0194152D01*
X0317653Y0194227D01*
X0317643Y0194300D01*
X0317630Y0194374D01*
X0317613Y0194446D01*
X0317591Y0194517D01*
X0317567Y0194588D01*
X0317538Y0194656D01*
X0317506Y0194724D01*
X0317470Y0194789D01*
X0317432Y0194852D01*
X0317389Y0194914D01*
X0317344Y0194973D01*
X0317296Y0195030D01*
X0317245Y0195084D01*
X0317191Y0195135D01*
X0317134Y0195183D01*
X0317075Y0195228D01*
X0317013Y0195271D01*
X0316950Y0195309D01*
X0316885Y0195345D01*
X0316817Y0195377D01*
X0316749Y0195406D01*
X0316678Y0195430D01*
X0316607Y0195452D01*
X0316535Y0195469D01*
X0316461Y0195482D01*
X0316388Y0195492D01*
X0316313Y0195498D01*
X0316239Y0195500D01*
X0316165Y0195498D01*
X0316090Y0195492D01*
X0316017Y0195482D01*
X0315943Y0195469D01*
X0315871Y0195452D01*
X0315800Y0195430D01*
X0315729Y0195406D01*
X0315661Y0195377D01*
X0315593Y0195345D01*
X0315528Y0195309D01*
X0315465Y0195271D01*
X0315403Y0195228D01*
X0315344Y0195183D01*
X0315287Y0195135D01*
X0315233Y0195084D01*
X0315182Y0195030D01*
X0315134Y0194973D01*
X0315089Y0194914D01*
X0315046Y0194852D01*
X0315008Y0194789D01*
X0314972Y0194724D01*
X0314940Y0194656D01*
X0314911Y0194588D01*
X0314887Y0194517D01*
X0314865Y0194446D01*
X0314848Y0194374D01*
X0314835Y0194300D01*
X0314825Y0194227D01*
X0314819Y0194152D01*
X0314817Y0194078D01*
X0309224Y0191234D02*
X0308157Y0195501D01*
X0305978Y0195501D02*
X0303845Y0195501D01*
X0304556Y0197634D02*
X0304556Y0192301D01*
X0304555Y0192301D02*
X0304557Y0192237D01*
X0304563Y0192172D01*
X0304572Y0192109D01*
X0304586Y0192046D01*
X0304603Y0191984D01*
X0304624Y0191923D01*
X0304649Y0191863D01*
X0304677Y0191805D01*
X0304709Y0191749D01*
X0304744Y0191695D01*
X0304782Y0191643D01*
X0304823Y0191593D01*
X0304868Y0191547D01*
X0304914Y0191502D01*
X0304964Y0191461D01*
X0305016Y0191423D01*
X0305070Y0191388D01*
X0305126Y0191356D01*
X0305184Y0191328D01*
X0305244Y0191303D01*
X0305305Y0191282D01*
X0305367Y0191265D01*
X0305430Y0191251D01*
X0305493Y0191242D01*
X0305558Y0191236D01*
X0305622Y0191234D01*
X0305978Y0191234D01*
X0301333Y0193012D02*
X0299555Y0193723D01*
X0299556Y0193723D02*
X0299501Y0193747D01*
X0299448Y0193774D01*
X0299397Y0193805D01*
X0299348Y0193839D01*
X0299302Y0193876D01*
X0299258Y0193916D01*
X0299216Y0193958D01*
X0299178Y0194004D01*
X0299142Y0194051D01*
X0299110Y0194101D01*
X0299080Y0194153D01*
X0299055Y0194207D01*
X0299032Y0194262D01*
X0299014Y0194318D01*
X0298999Y0194376D01*
X0298987Y0194434D01*
X0298980Y0194493D01*
X0298976Y0194553D01*
X0298977Y0194612D01*
X0298981Y0194672D01*
X0298989Y0194731D01*
X0299000Y0194789D01*
X0299016Y0194846D01*
X0299035Y0194903D01*
X0299057Y0194958D01*
X0299084Y0195011D01*
X0299113Y0195063D01*
X0299146Y0195112D01*
X0299182Y0195160D01*
X0299221Y0195205D01*
X0299263Y0195247D01*
X0299307Y0195287D01*
X0299354Y0195323D01*
X0299403Y0195357D01*
X0299454Y0195387D01*
X0299507Y0195414D01*
X0299562Y0195438D01*
X0299618Y0195457D01*
X0299675Y0195474D01*
X0299734Y0195486D01*
X0299792Y0195495D01*
X0299852Y0195500D01*
X0299911Y0195501D01*
X0299022Y0191589D02*
X0299167Y0191539D01*
X0299314Y0191493D01*
X0299461Y0191450D01*
X0299610Y0191411D01*
X0299760Y0191376D01*
X0299910Y0191344D01*
X0300061Y0191317D01*
X0300213Y0191293D01*
X0300365Y0191274D01*
X0300518Y0191258D01*
X0300671Y0191246D01*
X0300824Y0191238D01*
X0300978Y0191234D01*
X0301037Y0191235D01*
X0301097Y0191240D01*
X0301155Y0191249D01*
X0301214Y0191261D01*
X0301271Y0191278D01*
X0301327Y0191297D01*
X0301382Y0191321D01*
X0301435Y0191348D01*
X0301486Y0191378D01*
X0301535Y0191412D01*
X0301582Y0191448D01*
X0301626Y0191488D01*
X0301668Y0191530D01*
X0301707Y0191575D01*
X0301743Y0191623D01*
X0301776Y0191672D01*
X0301805Y0191724D01*
X0301832Y0191777D01*
X0301854Y0191832D01*
X0301873Y0191889D01*
X0301889Y0191946D01*
X0301900Y0192004D01*
X0301908Y0192063D01*
X0301912Y0192123D01*
X0301913Y0192182D01*
X0301909Y0192242D01*
X0301902Y0192301D01*
X0301890Y0192359D01*
X0301875Y0192417D01*
X0301857Y0192473D01*
X0301834Y0192528D01*
X0301809Y0192582D01*
X0301779Y0192634D01*
X0301747Y0192684D01*
X0301711Y0192731D01*
X0301673Y0192777D01*
X0301631Y0192819D01*
X0301587Y0192859D01*
X0301541Y0192896D01*
X0301492Y0192930D01*
X0301441Y0192961D01*
X0301388Y0192988D01*
X0301333Y0193012D01*
X0301511Y0195145D02*
X0301403Y0195192D01*
X0301293Y0195235D01*
X0301182Y0195276D01*
X0301070Y0195313D01*
X0300958Y0195347D01*
X0300844Y0195378D01*
X0300729Y0195405D01*
X0300613Y0195429D01*
X0300497Y0195449D01*
X0300381Y0195466D01*
X0300264Y0195480D01*
X0300146Y0195490D01*
X0300029Y0195497D01*
X0299911Y0195501D01*
X0300622Y0201734D02*
X0298844Y0201734D01*
X0298844Y0208134D01*
X0300622Y0208134D01*
X0300696Y0208132D01*
X0300771Y0208126D01*
X0300844Y0208116D01*
X0300918Y0208103D01*
X0300990Y0208086D01*
X0301061Y0208064D01*
X0301132Y0208040D01*
X0301200Y0208011D01*
X0301268Y0207979D01*
X0301333Y0207943D01*
X0301396Y0207905D01*
X0301458Y0207862D01*
X0301517Y0207817D01*
X0301574Y0207769D01*
X0301628Y0207718D01*
X0301679Y0207664D01*
X0301727Y0207607D01*
X0301772Y0207548D01*
X0301815Y0207486D01*
X0301853Y0207423D01*
X0301889Y0207358D01*
X0301921Y0207290D01*
X0301950Y0207222D01*
X0301974Y0207151D01*
X0301996Y0207080D01*
X0302013Y0207008D01*
X0302026Y0206934D01*
X0302036Y0206861D01*
X0302042Y0206786D01*
X0302044Y0206712D01*
X0302042Y0206638D01*
X0302036Y0206563D01*
X0302026Y0206490D01*
X0302013Y0206416D01*
X0301996Y0206344D01*
X0301974Y0206273D01*
X0301950Y0206202D01*
X0301921Y0206134D01*
X0301889Y0206066D01*
X0301853Y0206001D01*
X0301815Y0205938D01*
X0301772Y0205876D01*
X0301727Y0205817D01*
X0301679Y0205760D01*
X0301628Y0205706D01*
X0301574Y0205655D01*
X0301517Y0205607D01*
X0301458Y0205562D01*
X0301396Y0205519D01*
X0301333Y0205481D01*
X0301268Y0205445D01*
X0301200Y0205413D01*
X0301132Y0205384D01*
X0301061Y0205360D01*
X0300990Y0205338D01*
X0300918Y0205321D01*
X0300844Y0205308D01*
X0300771Y0205298D01*
X0300696Y0205292D01*
X0300622Y0205290D01*
X0300622Y0205289D02*
X0298844Y0205289D01*
X0300622Y0205290D02*
X0300705Y0205288D01*
X0300788Y0205282D01*
X0300871Y0205272D01*
X0300954Y0205259D01*
X0301035Y0205241D01*
X0301116Y0205220D01*
X0301195Y0205195D01*
X0301273Y0205166D01*
X0301350Y0205134D01*
X0301425Y0205098D01*
X0301499Y0205059D01*
X0301570Y0205016D01*
X0301640Y0204970D01*
X0301707Y0204920D01*
X0301772Y0204868D01*
X0301834Y0204813D01*
X0301894Y0204754D01*
X0301951Y0204693D01*
X0302005Y0204630D01*
X0302056Y0204564D01*
X0302103Y0204495D01*
X0302148Y0204425D01*
X0302189Y0204352D01*
X0302226Y0204278D01*
X0302261Y0204202D01*
X0302291Y0204124D01*
X0302318Y0204046D01*
X0302341Y0203965D01*
X0302361Y0203884D01*
X0302376Y0203802D01*
X0302388Y0203720D01*
X0302396Y0203637D01*
X0302400Y0203554D01*
X0302400Y0203470D01*
X0302396Y0203387D01*
X0302388Y0203304D01*
X0302376Y0203222D01*
X0302361Y0203140D01*
X0302341Y0203059D01*
X0302318Y0202978D01*
X0302291Y0202900D01*
X0302261Y0202822D01*
X0302226Y0202746D01*
X0302189Y0202672D01*
X0302148Y0202599D01*
X0302103Y0202529D01*
X0302056Y0202460D01*
X0302005Y0202394D01*
X0301951Y0202331D01*
X0301894Y0202270D01*
X0301834Y0202211D01*
X0301772Y0202156D01*
X0301707Y0202104D01*
X0301640Y0202054D01*
X0301570Y0202008D01*
X0301499Y0201965D01*
X0301425Y0201926D01*
X0301350Y0201890D01*
X0301273Y0201858D01*
X0301195Y0201829D01*
X0301116Y0201804D01*
X0301035Y0201783D01*
X0300954Y0201765D01*
X0300871Y0201752D01*
X0300788Y0201742D01*
X0300705Y0201736D01*
X0300622Y0201734D01*
X0305871Y0201734D02*
X0307471Y0201734D01*
X0307471Y0204934D01*
X0307471Y0204223D02*
X0305871Y0204223D01*
X0307471Y0204934D02*
X0307469Y0204998D01*
X0307463Y0205063D01*
X0307454Y0205126D01*
X0307440Y0205189D01*
X0307423Y0205251D01*
X0307402Y0205312D01*
X0307377Y0205372D01*
X0307349Y0205430D01*
X0307317Y0205486D01*
X0307282Y0205540D01*
X0307244Y0205592D01*
X0307203Y0205642D01*
X0307158Y0205688D01*
X0307112Y0205733D01*
X0307062Y0205774D01*
X0307010Y0205812D01*
X0306956Y0205847D01*
X0306900Y0205879D01*
X0306842Y0205907D01*
X0306782Y0205932D01*
X0306721Y0205953D01*
X0306659Y0205970D01*
X0306596Y0205984D01*
X0306533Y0205993D01*
X0306468Y0205999D01*
X0306404Y0206001D01*
X0304982Y0206001D01*
X0305871Y0204222D02*
X0305801Y0204220D01*
X0305732Y0204214D01*
X0305663Y0204204D01*
X0305594Y0204191D01*
X0305527Y0204173D01*
X0305460Y0204152D01*
X0305395Y0204127D01*
X0305331Y0204099D01*
X0305269Y0204067D01*
X0305209Y0204031D01*
X0305151Y0203993D01*
X0305095Y0203951D01*
X0305042Y0203906D01*
X0304991Y0203858D01*
X0304943Y0203807D01*
X0304898Y0203754D01*
X0304856Y0203698D01*
X0304818Y0203640D01*
X0304782Y0203580D01*
X0304750Y0203518D01*
X0304722Y0203454D01*
X0304697Y0203389D01*
X0304676Y0203322D01*
X0304658Y0203255D01*
X0304645Y0203186D01*
X0304635Y0203117D01*
X0304629Y0203048D01*
X0304627Y0202978D01*
X0304629Y0202908D01*
X0304635Y0202839D01*
X0304645Y0202770D01*
X0304658Y0202701D01*
X0304676Y0202634D01*
X0304697Y0202567D01*
X0304722Y0202502D01*
X0304750Y0202438D01*
X0304782Y0202376D01*
X0304818Y0202316D01*
X0304856Y0202258D01*
X0304898Y0202202D01*
X0304943Y0202149D01*
X0304991Y0202098D01*
X0305042Y0202050D01*
X0305095Y0202005D01*
X0305151Y0201963D01*
X0305209Y0201925D01*
X0305269Y0201889D01*
X0305331Y0201857D01*
X0305395Y0201829D01*
X0305460Y0201804D01*
X0305527Y0201783D01*
X0305594Y0201765D01*
X0305663Y0201752D01*
X0305732Y0201742D01*
X0305801Y0201736D01*
X0305871Y0201734D01*
X0310432Y0201734D02*
X0310432Y0206001D01*
X0312566Y0206001D01*
X0312566Y0205289D01*
X0313991Y0206001D02*
X0316124Y0206001D01*
X0314702Y0208134D02*
X0314702Y0202801D01*
X0314704Y0202737D01*
X0314710Y0202672D01*
X0314719Y0202609D01*
X0314733Y0202546D01*
X0314750Y0202484D01*
X0314771Y0202423D01*
X0314796Y0202363D01*
X0314824Y0202305D01*
X0314856Y0202249D01*
X0314891Y0202195D01*
X0314929Y0202143D01*
X0314970Y0202093D01*
X0315015Y0202047D01*
X0315061Y0202002D01*
X0315111Y0201961D01*
X0315163Y0201923D01*
X0315217Y0201888D01*
X0315273Y0201856D01*
X0315331Y0201828D01*
X0315391Y0201803D01*
X0315452Y0201782D01*
X0315514Y0201765D01*
X0315577Y0201751D01*
X0315640Y0201742D01*
X0315705Y0201736D01*
X0315769Y0201734D01*
X0316124Y0201734D01*
X0318399Y0203156D02*
X0318399Y0204578D01*
X0318401Y0204652D01*
X0318407Y0204727D01*
X0318417Y0204800D01*
X0318430Y0204874D01*
X0318447Y0204946D01*
X0318469Y0205017D01*
X0318493Y0205088D01*
X0318522Y0205156D01*
X0318554Y0205224D01*
X0318590Y0205289D01*
X0318628Y0205352D01*
X0318671Y0205414D01*
X0318716Y0205473D01*
X0318764Y0205530D01*
X0318815Y0205584D01*
X0318869Y0205635D01*
X0318926Y0205683D01*
X0318985Y0205728D01*
X0319047Y0205771D01*
X0319110Y0205809D01*
X0319175Y0205845D01*
X0319243Y0205877D01*
X0319311Y0205906D01*
X0319382Y0205930D01*
X0319453Y0205952D01*
X0319525Y0205969D01*
X0319599Y0205982D01*
X0319672Y0205992D01*
X0319747Y0205998D01*
X0319821Y0206000D01*
X0319895Y0205998D01*
X0319970Y0205992D01*
X0320043Y0205982D01*
X0320117Y0205969D01*
X0320189Y0205952D01*
X0320260Y0205930D01*
X0320331Y0205906D01*
X0320399Y0205877D01*
X0320467Y0205845D01*
X0320532Y0205809D01*
X0320595Y0205771D01*
X0320657Y0205728D01*
X0320716Y0205683D01*
X0320773Y0205635D01*
X0320827Y0205584D01*
X0320878Y0205530D01*
X0320926Y0205473D01*
X0320971Y0205414D01*
X0321014Y0205352D01*
X0321052Y0205289D01*
X0321088Y0205224D01*
X0321120Y0205156D01*
X0321149Y0205088D01*
X0321173Y0205017D01*
X0321195Y0204946D01*
X0321212Y0204874D01*
X0321225Y0204800D01*
X0321235Y0204727D01*
X0321241Y0204652D01*
X0321243Y0204578D01*
X0321244Y0204578D02*
X0321244Y0203156D01*
X0321243Y0203156D02*
X0321241Y0203082D01*
X0321235Y0203007D01*
X0321225Y0202934D01*
X0321212Y0202860D01*
X0321195Y0202788D01*
X0321173Y0202717D01*
X0321149Y0202646D01*
X0321120Y0202578D01*
X0321088Y0202510D01*
X0321052Y0202445D01*
X0321014Y0202382D01*
X0320971Y0202320D01*
X0320926Y0202261D01*
X0320878Y0202204D01*
X0320827Y0202150D01*
X0320773Y0202099D01*
X0320716Y0202051D01*
X0320657Y0202006D01*
X0320595Y0201963D01*
X0320532Y0201925D01*
X0320467Y0201889D01*
X0320399Y0201857D01*
X0320331Y0201828D01*
X0320260Y0201804D01*
X0320189Y0201782D01*
X0320117Y0201765D01*
X0320043Y0201752D01*
X0319970Y0201742D01*
X0319895Y0201736D01*
X0319821Y0201734D01*
X0319747Y0201736D01*
X0319672Y0201742D01*
X0319599Y0201752D01*
X0319525Y0201765D01*
X0319453Y0201782D01*
X0319382Y0201804D01*
X0319311Y0201828D01*
X0319243Y0201857D01*
X0319175Y0201889D01*
X0319110Y0201925D01*
X0319047Y0201963D01*
X0318985Y0202006D01*
X0318926Y0202051D01*
X0318869Y0202099D01*
X0318815Y0202150D01*
X0318764Y0202204D01*
X0318716Y0202261D01*
X0318671Y0202320D01*
X0318628Y0202382D01*
X0318590Y0202445D01*
X0318554Y0202510D01*
X0318522Y0202578D01*
X0318493Y0202646D01*
X0318469Y0202717D01*
X0318447Y0202788D01*
X0318430Y0202860D01*
X0318417Y0202934D01*
X0318407Y0203007D01*
X0318401Y0203082D01*
X0318399Y0203156D01*
X0324266Y0204223D02*
X0326044Y0203512D01*
X0326043Y0203512D02*
X0326098Y0203488D01*
X0326151Y0203461D01*
X0326202Y0203430D01*
X0326251Y0203396D01*
X0326297Y0203359D01*
X0326341Y0203319D01*
X0326383Y0203277D01*
X0326421Y0203231D01*
X0326457Y0203184D01*
X0326489Y0203134D01*
X0326519Y0203082D01*
X0326544Y0203028D01*
X0326567Y0202973D01*
X0326585Y0202917D01*
X0326600Y0202859D01*
X0326612Y0202801D01*
X0326619Y0202742D01*
X0326623Y0202682D01*
X0326622Y0202623D01*
X0326618Y0202563D01*
X0326610Y0202504D01*
X0326599Y0202446D01*
X0326583Y0202389D01*
X0326564Y0202332D01*
X0326542Y0202277D01*
X0326515Y0202224D01*
X0326486Y0202172D01*
X0326453Y0202123D01*
X0326417Y0202075D01*
X0326378Y0202030D01*
X0326336Y0201988D01*
X0326292Y0201948D01*
X0326245Y0201912D01*
X0326196Y0201878D01*
X0326145Y0201848D01*
X0326092Y0201821D01*
X0326037Y0201797D01*
X0325981Y0201778D01*
X0325924Y0201761D01*
X0325865Y0201749D01*
X0325807Y0201740D01*
X0325747Y0201735D01*
X0325688Y0201734D01*
X0326222Y0205645D02*
X0326114Y0205692D01*
X0326004Y0205735D01*
X0325893Y0205776D01*
X0325781Y0205813D01*
X0325669Y0205847D01*
X0325555Y0205878D01*
X0325440Y0205905D01*
X0325324Y0205929D01*
X0325208Y0205949D01*
X0325092Y0205966D01*
X0324975Y0205980D01*
X0324857Y0205990D01*
X0324740Y0205997D01*
X0324622Y0206001D01*
X0324621Y0206001D02*
X0324562Y0206000D01*
X0324502Y0205995D01*
X0324444Y0205986D01*
X0324385Y0205974D01*
X0324328Y0205957D01*
X0324272Y0205938D01*
X0324217Y0205914D01*
X0324164Y0205887D01*
X0324113Y0205857D01*
X0324064Y0205823D01*
X0324017Y0205787D01*
X0323973Y0205747D01*
X0323931Y0205705D01*
X0323892Y0205660D01*
X0323856Y0205612D01*
X0323823Y0205563D01*
X0323794Y0205511D01*
X0323767Y0205458D01*
X0323745Y0205403D01*
X0323726Y0205346D01*
X0323710Y0205289D01*
X0323699Y0205231D01*
X0323691Y0205172D01*
X0323687Y0205112D01*
X0323686Y0205053D01*
X0323690Y0204993D01*
X0323697Y0204934D01*
X0323709Y0204876D01*
X0323724Y0204818D01*
X0323742Y0204762D01*
X0323765Y0204707D01*
X0323790Y0204653D01*
X0323820Y0204601D01*
X0323852Y0204551D01*
X0323888Y0204504D01*
X0323926Y0204458D01*
X0323968Y0204416D01*
X0324012Y0204376D01*
X0324058Y0204339D01*
X0324107Y0204305D01*
X0324158Y0204274D01*
X0324211Y0204247D01*
X0324266Y0204223D01*
X0323732Y0202089D02*
X0323877Y0202039D01*
X0324024Y0201993D01*
X0324171Y0201950D01*
X0324320Y0201911D01*
X0324470Y0201876D01*
X0324620Y0201844D01*
X0324771Y0201817D01*
X0324923Y0201793D01*
X0325075Y0201774D01*
X0325228Y0201758D01*
X0325381Y0201746D01*
X0325534Y0201738D01*
X0325688Y0201734D01*
X0328861Y0201734D02*
X0331705Y0201734D01*
X0328861Y0201734D02*
X0331705Y0206001D01*
X0328861Y0206001D01*
X0334701Y0197634D02*
X0334701Y0192301D01*
X0334703Y0192237D01*
X0334709Y0192172D01*
X0334718Y0192109D01*
X0334732Y0192046D01*
X0334749Y0191984D01*
X0334770Y0191923D01*
X0334795Y0191863D01*
X0334823Y0191805D01*
X0334855Y0191749D01*
X0334890Y0191695D01*
X0334928Y0191643D01*
X0334969Y0191593D01*
X0335014Y0191547D01*
X0335060Y0191502D01*
X0335110Y0191461D01*
X0335162Y0191423D01*
X0335216Y0191388D01*
X0335272Y0191356D01*
X0335330Y0191328D01*
X0335390Y0191303D01*
X0335451Y0191282D01*
X0335513Y0191265D01*
X0335576Y0191251D01*
X0335639Y0191242D01*
X0335704Y0191236D01*
X0335768Y0191234D01*
X0333635Y0193723D02*
X0335768Y0195145D01*
X0332021Y0195501D02*
X0329888Y0189101D01*
X0329177Y0189101D01*
X0330599Y0191234D02*
X0329177Y0195501D01*
X0327098Y0195501D02*
X0324253Y0191234D01*
X0327098Y0191234D01*
X0327098Y0195501D02*
X0324253Y0195501D01*
X0322523Y0195501D02*
X0322523Y0194789D01*
X0322523Y0195501D02*
X0320389Y0195501D01*
X0320389Y0191234D01*
X0242174Y0285466D02*
X0242174Y0289566D01*
X0247974Y0292166D02*
X0249174Y0292166D01*
X0249174Y0293366D01*
X0249174Y0310966D02*
X0249174Y0312166D01*
X0247974Y0312166D01*
X0244074Y0314866D02*
X0244074Y0318966D01*
X0230374Y0312166D02*
X0229174Y0312166D01*
X0229174Y0310966D01*
X0226774Y0303066D02*
X0222674Y0303066D01*
X0229174Y0293366D02*
X0229174Y0292166D01*
X0230374Y0292166D01*
X0248774Y0337366D02*
X0252974Y0337366D01*
X0255374Y0337366D01*
X0259574Y0337366D01*
X0255374Y0337366D02*
X0255372Y0337435D01*
X0255366Y0337503D01*
X0255356Y0337571D01*
X0255343Y0337638D01*
X0255325Y0337704D01*
X0255304Y0337769D01*
X0255279Y0337833D01*
X0255251Y0337895D01*
X0255219Y0337956D01*
X0255184Y0338015D01*
X0255145Y0338071D01*
X0255103Y0338126D01*
X0255058Y0338177D01*
X0255010Y0338227D01*
X0254960Y0338273D01*
X0254907Y0338316D01*
X0254851Y0338357D01*
X0254794Y0338394D01*
X0254734Y0338427D01*
X0254672Y0338458D01*
X0254609Y0338484D01*
X0254545Y0338507D01*
X0254479Y0338527D01*
X0254412Y0338542D01*
X0254345Y0338554D01*
X0254277Y0338562D01*
X0254208Y0338566D01*
X0254140Y0338566D01*
X0254071Y0338562D01*
X0254003Y0338554D01*
X0253936Y0338542D01*
X0253869Y0338527D01*
X0253803Y0338507D01*
X0253739Y0338484D01*
X0253676Y0338458D01*
X0253614Y0338427D01*
X0253554Y0338394D01*
X0253497Y0338357D01*
X0253441Y0338316D01*
X0253388Y0338273D01*
X0253338Y0338227D01*
X0253290Y0338177D01*
X0253245Y0338126D01*
X0253203Y0338071D01*
X0253164Y0338015D01*
X0253129Y0337956D01*
X0253097Y0337895D01*
X0253069Y0337833D01*
X0253044Y0337769D01*
X0253023Y0337704D01*
X0253005Y0337638D01*
X0252992Y0337571D01*
X0252982Y0337503D01*
X0252976Y0337435D01*
X0252974Y0337366D01*
X0248774Y0356966D02*
X0259574Y0356966D01*
X0150374Y0347466D02*
X0150374Y0332866D01*
X0123974Y0332866D01*
X0123974Y0347466D01*
X0150374Y0347466D01*
X0150374Y0309340D02*
X0123974Y0309340D01*
X0123974Y0294740D01*
X0150374Y0294740D01*
X0150374Y0309340D01*
X0034174Y0396497D02*
X0034185Y0397448D01*
X0034220Y0398399D01*
X0034277Y0399349D01*
X0034358Y0400297D01*
X0034461Y0401243D01*
X0034587Y0402186D01*
X0034736Y0403125D01*
X0034907Y0404061D01*
X0035102Y0404992D01*
X0035318Y0405919D01*
X0035557Y0406840D01*
X0035818Y0407755D01*
X0036101Y0408663D01*
X0036406Y0409564D01*
X0036732Y0410458D01*
X0037081Y0411343D01*
X0037450Y0412220D01*
X0037840Y0413088D01*
X0038252Y0413945D01*
X0038684Y0414793D01*
X0039136Y0415630D01*
X0039608Y0416456D01*
X0040100Y0417270D01*
X0040612Y0418072D01*
X0041143Y0418862D01*
X0041693Y0419638D01*
X0042261Y0420401D01*
X0042848Y0421150D01*
X0043453Y0421884D01*
X0044075Y0422604D01*
X0044715Y0423309D01*
X0045371Y0423997D01*
X0046044Y0424670D01*
X0046732Y0425326D01*
X0047437Y0425966D01*
X0048157Y0426588D01*
X0048891Y0427193D01*
X0049640Y0427780D01*
X0050403Y0428348D01*
X0051179Y0428898D01*
X0051969Y0429429D01*
X0052771Y0429941D01*
X0053585Y0430433D01*
X0054411Y0430905D01*
X0055248Y0431357D01*
X0056096Y0431789D01*
X0056953Y0432201D01*
X0057821Y0432591D01*
X0058698Y0432960D01*
X0059583Y0433309D01*
X0060477Y0433635D01*
X0061378Y0433940D01*
X0062286Y0434223D01*
X0063201Y0434484D01*
X0064122Y0434723D01*
X0065049Y0434939D01*
X0065980Y0435134D01*
X0066916Y0435305D01*
X0067855Y0435454D01*
X0068798Y0435580D01*
X0069744Y0435683D01*
X0070692Y0435764D01*
X0071642Y0435821D01*
X0072593Y0435856D01*
X0073544Y0435867D01*
X0388174Y0332167D02*
X0388176Y0332016D01*
X0388182Y0331866D01*
X0388191Y0331716D01*
X0388204Y0331566D01*
X0388221Y0331417D01*
X0388242Y0331268D01*
X0388266Y0331120D01*
X0388294Y0330972D01*
X0388326Y0330825D01*
X0388361Y0330679D01*
X0388400Y0330534D01*
X0388443Y0330390D01*
X0388489Y0330247D01*
X0388539Y0330105D01*
X0388593Y0329964D01*
X0388650Y0329825D01*
X0388710Y0329687D01*
X0388774Y0329551D01*
X0388841Y0329417D01*
X0388912Y0329284D01*
X0388985Y0329153D01*
X0389063Y0329024D01*
X0389143Y0328897D01*
X0389226Y0328772D01*
X0389313Y0328649D01*
X0389403Y0328528D01*
X0389495Y0328410D01*
X0389591Y0328294D01*
X0389689Y0328180D01*
X0389438Y0328483D02*
X0389532Y0328364D01*
X0389630Y0328248D01*
X0389730Y0328134D01*
X0389834Y0328023D01*
X0389940Y0327915D01*
X0390048Y0327809D01*
X0390160Y0327707D01*
X0390274Y0327607D01*
X0390390Y0327509D01*
X0390509Y0327415D01*
X0390630Y0327324D01*
X0390754Y0327236D01*
X0390880Y0327151D01*
X0391007Y0327070D01*
X0391137Y0326991D01*
X0391269Y0326916D01*
X0391402Y0326845D01*
X0391538Y0326776D01*
X0391675Y0326711D01*
X0391813Y0326650D01*
X0391954Y0326592D01*
X0392095Y0326538D01*
X0392238Y0326487D01*
X0392382Y0326440D01*
X0392528Y0326396D01*
X0392674Y0326357D01*
X0392821Y0326321D01*
X0392969Y0326288D01*
X0393118Y0326260D01*
X0393268Y0326235D01*
X0393418Y0326214D01*
X0393569Y0326197D01*
X0393720Y0326183D01*
X0393871Y0326174D01*
X0394023Y0326168D01*
X0394174Y0326166D01*
X0394325Y0326168D01*
X0394477Y0326174D01*
X0394628Y0326183D01*
X0394779Y0326197D01*
X0394930Y0326214D01*
X0395080Y0326235D01*
X0395230Y0326260D01*
X0395379Y0326288D01*
X0395527Y0326321D01*
X0395674Y0326357D01*
X0395820Y0326396D01*
X0395966Y0326440D01*
X0396110Y0326487D01*
X0396253Y0326538D01*
X0396394Y0326592D01*
X0396535Y0326650D01*
X0396673Y0326711D01*
X0396810Y0326776D01*
X0396946Y0326845D01*
X0397079Y0326916D01*
X0397211Y0326991D01*
X0397341Y0327070D01*
X0397468Y0327151D01*
X0397594Y0327236D01*
X0397718Y0327324D01*
X0397839Y0327415D01*
X0397958Y0327509D01*
X0398074Y0327607D01*
X0398188Y0327707D01*
X0398300Y0327809D01*
X0398408Y0327915D01*
X0398514Y0328023D01*
X0398618Y0328134D01*
X0398718Y0328248D01*
X0398816Y0328364D01*
X0398910Y0328483D01*
X0394174Y0338166D02*
X0394024Y0338164D01*
X0393873Y0338158D01*
X0393723Y0338149D01*
X0393574Y0338136D01*
X0393424Y0338119D01*
X0393275Y0338098D01*
X0393127Y0338074D01*
X0392979Y0338046D01*
X0392832Y0338014D01*
X0392686Y0337979D01*
X0392541Y0337939D01*
X0392397Y0337897D01*
X0392254Y0337850D01*
X0392112Y0337800D01*
X0391971Y0337747D01*
X0391832Y0337690D01*
X0391694Y0337630D01*
X0391558Y0337566D01*
X0391424Y0337499D01*
X0391291Y0337428D01*
X0391160Y0337354D01*
X0391031Y0337277D01*
X0390904Y0337196D01*
X0390779Y0337113D01*
X0390656Y0337026D01*
X0390535Y0336937D01*
X0390417Y0336844D01*
X0390301Y0336748D01*
X0390187Y0336650D01*
X0390076Y0336549D01*
X0389967Y0336444D01*
X0389862Y0336338D01*
X0389758Y0336228D01*
X0389658Y0336116D01*
X0389560Y0336002D01*
X0389466Y0335885D01*
X0389374Y0335766D01*
X0389565Y0336007D02*
X0389467Y0335887D01*
X0389373Y0335765D01*
X0389282Y0335640D01*
X0389194Y0335513D01*
X0389110Y0335384D01*
X0389029Y0335253D01*
X0388951Y0335119D01*
X0388877Y0334984D01*
X0388806Y0334847D01*
X0388739Y0334708D01*
X0388675Y0334567D01*
X0388615Y0334425D01*
X0388559Y0334281D01*
X0388507Y0334136D01*
X0388458Y0333989D01*
X0388413Y0333842D01*
X0388372Y0333693D01*
X0388334Y0333543D01*
X0388301Y0333392D01*
X0388271Y0333241D01*
X0388245Y0333089D01*
X0388224Y0332936D01*
X0388206Y0332782D01*
X0388192Y0332629D01*
X0388182Y0332475D01*
X0388176Y0332320D01*
X0388174Y0332166D01*
X0394174Y0338166D02*
X0394328Y0338164D01*
X0394482Y0338158D01*
X0394636Y0338148D01*
X0394790Y0338134D01*
X0394943Y0338117D01*
X0395095Y0338095D01*
X0395247Y0338069D01*
X0395399Y0338040D01*
X0395549Y0338006D01*
X0395699Y0337969D01*
X0395847Y0337928D01*
X0395995Y0337883D01*
X0396141Y0337834D01*
X0396286Y0337782D01*
X0396429Y0337726D01*
X0396572Y0337666D01*
X0396712Y0337603D01*
X0396851Y0337536D01*
X0396988Y0337465D01*
X0397123Y0337391D01*
X0397256Y0337314D01*
X0397388Y0337233D01*
X0397517Y0337149D01*
X0397644Y0337061D01*
X0397768Y0336970D01*
X0397890Y0336877D01*
X0398010Y0336779D01*
X0398127Y0336679D01*
X0398242Y0336576D01*
X0398354Y0336470D01*
X0398463Y0336362D01*
X0398569Y0336250D01*
X0398673Y0336136D01*
X0398773Y0336019D01*
X0398871Y0335900D01*
X0398965Y0335778D01*
X0399056Y0335653D01*
D11*
X0410324Y0289102D02*
X0414024Y0289102D01*
X0410324Y0287046D01*
X0414024Y0287046D01*
X0414024Y0285587D02*
X0410324Y0284354D01*
X0414024Y0283121D01*
X0413099Y0283429D02*
X0413099Y0285279D01*
X0414024Y0281961D02*
X0414024Y0281138D01*
X0414022Y0281082D01*
X0414016Y0281026D01*
X0414007Y0280971D01*
X0413994Y0280916D01*
X0413977Y0280863D01*
X0413956Y0280811D01*
X0413932Y0280760D01*
X0413904Y0280711D01*
X0413874Y0280664D01*
X0413840Y0280619D01*
X0413803Y0280577D01*
X0413763Y0280537D01*
X0413721Y0280500D01*
X0413676Y0280466D01*
X0413629Y0280436D01*
X0413580Y0280408D01*
X0413529Y0280384D01*
X0413477Y0280363D01*
X0413424Y0280346D01*
X0413369Y0280333D01*
X0413314Y0280324D01*
X0413258Y0280318D01*
X0413202Y0280316D01*
X0411146Y0280316D01*
X0411090Y0280318D01*
X0411034Y0280324D01*
X0410979Y0280333D01*
X0410924Y0280346D01*
X0410871Y0280363D01*
X0410819Y0280384D01*
X0410768Y0280408D01*
X0410719Y0280436D01*
X0410672Y0280466D01*
X0410627Y0280500D01*
X0410585Y0280537D01*
X0410545Y0280577D01*
X0410508Y0280619D01*
X0410474Y0280664D01*
X0410444Y0280711D01*
X0410416Y0280760D01*
X0410392Y0280810D01*
X0410371Y0280863D01*
X0410354Y0280916D01*
X0410341Y0280971D01*
X0410332Y0281026D01*
X0410326Y0281082D01*
X0410324Y0281138D01*
X0410324Y0281961D01*
X0267024Y0335466D02*
X0265588Y0335988D01*
X0264152Y0335466D01*
X0265588Y0335988D02*
X0266502Y0337163D01*
X0265588Y0335988D02*
X0264674Y0337163D01*
X0265588Y0335988D02*
X0265588Y0334422D01*
X0254502Y0294463D02*
X0253588Y0293288D01*
X0255024Y0292766D01*
X0253588Y0293288D02*
X0252152Y0292766D01*
X0253588Y0293288D02*
X0252674Y0294463D01*
X0253588Y0293288D02*
X0253588Y0291722D01*
X0118899Y0145749D02*
X0118901Y0145805D01*
X0118907Y0145860D01*
X0118917Y0145914D01*
X0118930Y0145968D01*
X0118948Y0146021D01*
X0118969Y0146072D01*
X0118993Y0146122D01*
X0119021Y0146170D01*
X0119053Y0146216D01*
X0119087Y0146260D01*
X0119125Y0146301D01*
X0119165Y0146339D01*
X0119208Y0146374D01*
X0119253Y0146406D01*
X0119301Y0146435D01*
X0119350Y0146461D01*
X0119401Y0146483D01*
X0119453Y0146501D01*
X0119507Y0146515D01*
X0119562Y0146526D01*
X0119617Y0146533D01*
X0119672Y0146536D01*
X0119728Y0146535D01*
X0119783Y0146530D01*
X0119838Y0146521D01*
X0119892Y0146509D01*
X0119945Y0146492D01*
X0119997Y0146472D01*
X0120047Y0146448D01*
X0120095Y0146421D01*
X0120142Y0146391D01*
X0120186Y0146357D01*
X0120228Y0146320D01*
X0120266Y0146280D01*
X0120303Y0146238D01*
X0120336Y0146193D01*
X0120365Y0146147D01*
X0120392Y0146098D01*
X0120414Y0146047D01*
X0120434Y0145995D01*
X0120449Y0145941D01*
X0120461Y0145887D01*
X0120469Y0145832D01*
X0120473Y0145777D01*
X0120473Y0145721D01*
X0120469Y0145666D01*
X0120461Y0145611D01*
X0120449Y0145557D01*
X0120434Y0145503D01*
X0120414Y0145451D01*
X0120392Y0145400D01*
X0120365Y0145351D01*
X0120336Y0145305D01*
X0120303Y0145260D01*
X0120266Y0145218D01*
X0120228Y0145178D01*
X0120186Y0145141D01*
X0120142Y0145107D01*
X0120095Y0145077D01*
X0120047Y0145050D01*
X0119997Y0145026D01*
X0119945Y0145006D01*
X0119892Y0144989D01*
X0119838Y0144977D01*
X0119783Y0144968D01*
X0119728Y0144963D01*
X0119672Y0144962D01*
X0119617Y0144965D01*
X0119562Y0144972D01*
X0119507Y0144983D01*
X0119453Y0144997D01*
X0119401Y0145015D01*
X0119350Y0145037D01*
X0119301Y0145063D01*
X0119253Y0145092D01*
X0119208Y0145124D01*
X0119165Y0145159D01*
X0119125Y0145197D01*
X0119087Y0145238D01*
X0119053Y0145282D01*
X0119021Y0145328D01*
X0118993Y0145376D01*
X0118969Y0145426D01*
X0118948Y0145477D01*
X0118930Y0145530D01*
X0118917Y0145584D01*
X0118907Y0145638D01*
X0118901Y0145693D01*
X0118899Y0145749D01*
X0090040Y0104228D02*
X0090040Y0102171D01*
X0090040Y0103199D02*
X0086337Y0103199D01*
X0087160Y0102171D01*
X0051497Y0103135D02*
X0051497Y0105194D01*
X0051497Y0103135D02*
X0049438Y0104885D01*
X0047791Y0104267D02*
X0047793Y0104199D01*
X0047799Y0104131D01*
X0047808Y0104064D01*
X0047822Y0103997D01*
X0047839Y0103931D01*
X0047860Y0103867D01*
X0047885Y0103803D01*
X0047913Y0103742D01*
X0047945Y0103681D01*
X0047980Y0103623D01*
X0048019Y0103567D01*
X0048060Y0103513D01*
X0048105Y0103462D01*
X0048152Y0103413D01*
X0048202Y0103367D01*
X0048255Y0103324D01*
X0048310Y0103284D01*
X0048367Y0103247D01*
X0048427Y0103214D01*
X0048488Y0103184D01*
X0048550Y0103158D01*
X0048614Y0103135D01*
X0049438Y0104885D02*
X0049393Y0104929D01*
X0049347Y0104969D01*
X0049297Y0105007D01*
X0049246Y0105042D01*
X0049193Y0105073D01*
X0049137Y0105101D01*
X0049080Y0105125D01*
X0049022Y0105146D01*
X0048962Y0105163D01*
X0048902Y0105177D01*
X0048841Y0105186D01*
X0048779Y0105192D01*
X0048717Y0105194D01*
X0048659Y0105192D01*
X0048601Y0105187D01*
X0048543Y0105178D01*
X0048486Y0105165D01*
X0048431Y0105149D01*
X0048376Y0105129D01*
X0048322Y0105106D01*
X0048270Y0105079D01*
X0048220Y0105050D01*
X0048172Y0105017D01*
X0048126Y0104981D01*
X0048082Y0104943D01*
X0048041Y0104902D01*
X0048003Y0104858D01*
X0047967Y0104812D01*
X0047934Y0104764D01*
X0047905Y0104714D01*
X0047878Y0104662D01*
X0047855Y0104608D01*
X0047835Y0104553D01*
X0047819Y0104498D01*
X0047806Y0104441D01*
X0047797Y0104383D01*
X0047792Y0104325D01*
X0047790Y0104267D01*
X0125160Y0096956D02*
X0126597Y0097479D01*
X0128035Y0096956D01*
X0126597Y0097479D02*
X0127512Y0098655D01*
X0126597Y0097479D02*
X0126597Y0095911D01*
X0126597Y0097479D02*
X0125683Y0098655D01*
X0172192Y0095456D02*
X0173629Y0095979D01*
X0175066Y0095456D01*
X0173629Y0095979D02*
X0172714Y0097155D01*
X0173629Y0095979D02*
X0174544Y0097155D01*
X0173629Y0095979D02*
X0173629Y0094411D01*
X0090557Y0373130D02*
X0090557Y0375189D01*
X0090557Y0373130D02*
X0088498Y0374881D01*
X0086851Y0374263D02*
X0086853Y0374195D01*
X0086859Y0374127D01*
X0086868Y0374060D01*
X0086882Y0373993D01*
X0086899Y0373927D01*
X0086920Y0373863D01*
X0086945Y0373799D01*
X0086973Y0373738D01*
X0087005Y0373677D01*
X0087040Y0373619D01*
X0087079Y0373563D01*
X0087120Y0373509D01*
X0087165Y0373458D01*
X0087212Y0373409D01*
X0087262Y0373363D01*
X0087315Y0373320D01*
X0087370Y0373280D01*
X0087427Y0373243D01*
X0087487Y0373210D01*
X0087548Y0373180D01*
X0087610Y0373154D01*
X0087674Y0373131D01*
X0088499Y0374880D02*
X0088454Y0374924D01*
X0088408Y0374964D01*
X0088358Y0375002D01*
X0088307Y0375037D01*
X0088254Y0375068D01*
X0088198Y0375096D01*
X0088141Y0375120D01*
X0088083Y0375141D01*
X0088023Y0375158D01*
X0087963Y0375172D01*
X0087902Y0375181D01*
X0087840Y0375187D01*
X0087778Y0375189D01*
X0087778Y0375190D02*
X0087720Y0375188D01*
X0087662Y0375183D01*
X0087604Y0375174D01*
X0087547Y0375161D01*
X0087492Y0375145D01*
X0087437Y0375125D01*
X0087383Y0375102D01*
X0087331Y0375075D01*
X0087281Y0375046D01*
X0087233Y0375013D01*
X0087187Y0374977D01*
X0087143Y0374939D01*
X0087102Y0374898D01*
X0087064Y0374854D01*
X0087028Y0374808D01*
X0086995Y0374760D01*
X0086966Y0374710D01*
X0086939Y0374658D01*
X0086916Y0374604D01*
X0086896Y0374549D01*
X0086880Y0374494D01*
X0086867Y0374437D01*
X0086858Y0374379D01*
X0086853Y0374321D01*
X0086851Y0374263D01*
X0052011Y0374096D02*
X0052011Y0376154D01*
X0052011Y0375125D02*
X0048308Y0375125D01*
X0049131Y0374096D01*
D12*
X0058977Y0404371D02*
X0058979Y0404535D01*
X0058985Y0404699D01*
X0058995Y0404863D01*
X0059009Y0405027D01*
X0059027Y0405190D01*
X0059049Y0405353D01*
X0059076Y0405515D01*
X0059106Y0405677D01*
X0059140Y0405837D01*
X0059178Y0405997D01*
X0059219Y0406156D01*
X0059265Y0406314D01*
X0059315Y0406470D01*
X0059368Y0406626D01*
X0059425Y0406780D01*
X0059486Y0406932D01*
X0059551Y0407083D01*
X0059620Y0407233D01*
X0059692Y0407380D01*
X0059767Y0407526D01*
X0059847Y0407670D01*
X0059929Y0407812D01*
X0060015Y0407952D01*
X0060105Y0408089D01*
X0060198Y0408225D01*
X0060294Y0408358D01*
X0060394Y0408489D01*
X0060496Y0408617D01*
X0060602Y0408743D01*
X0060711Y0408866D01*
X0060823Y0408986D01*
X0060937Y0409104D01*
X0061055Y0409218D01*
X0061175Y0409330D01*
X0061298Y0409439D01*
X0061424Y0409545D01*
X0061552Y0409647D01*
X0061683Y0409747D01*
X0061816Y0409843D01*
X0061952Y0409936D01*
X0062089Y0410026D01*
X0062229Y0410112D01*
X0062371Y0410194D01*
X0062515Y0410274D01*
X0062661Y0410349D01*
X0062808Y0410421D01*
X0062958Y0410490D01*
X0063109Y0410555D01*
X0063261Y0410616D01*
X0063415Y0410673D01*
X0063571Y0410726D01*
X0063727Y0410776D01*
X0063885Y0410822D01*
X0064044Y0410863D01*
X0064204Y0410901D01*
X0064364Y0410935D01*
X0064526Y0410965D01*
X0064688Y0410992D01*
X0064851Y0411014D01*
X0065014Y0411032D01*
X0065178Y0411046D01*
X0065342Y0411056D01*
X0065506Y0411062D01*
X0065670Y0411064D01*
X0065834Y0411062D01*
X0065998Y0411056D01*
X0066162Y0411046D01*
X0066326Y0411032D01*
X0066489Y0411014D01*
X0066652Y0410992D01*
X0066814Y0410965D01*
X0066976Y0410935D01*
X0067136Y0410901D01*
X0067296Y0410863D01*
X0067455Y0410822D01*
X0067613Y0410776D01*
X0067769Y0410726D01*
X0067925Y0410673D01*
X0068079Y0410616D01*
X0068231Y0410555D01*
X0068382Y0410490D01*
X0068532Y0410421D01*
X0068679Y0410349D01*
X0068825Y0410274D01*
X0068969Y0410194D01*
X0069111Y0410112D01*
X0069251Y0410026D01*
X0069388Y0409936D01*
X0069524Y0409843D01*
X0069657Y0409747D01*
X0069788Y0409647D01*
X0069916Y0409545D01*
X0070042Y0409439D01*
X0070165Y0409330D01*
X0070285Y0409218D01*
X0070403Y0409104D01*
X0070517Y0408986D01*
X0070629Y0408866D01*
X0070738Y0408743D01*
X0070844Y0408617D01*
X0070946Y0408489D01*
X0071046Y0408358D01*
X0071142Y0408225D01*
X0071235Y0408089D01*
X0071325Y0407952D01*
X0071411Y0407812D01*
X0071493Y0407670D01*
X0071573Y0407526D01*
X0071648Y0407380D01*
X0071720Y0407233D01*
X0071789Y0407083D01*
X0071854Y0406932D01*
X0071915Y0406780D01*
X0071972Y0406626D01*
X0072025Y0406470D01*
X0072075Y0406314D01*
X0072121Y0406156D01*
X0072162Y0405997D01*
X0072200Y0405837D01*
X0072234Y0405677D01*
X0072264Y0405515D01*
X0072291Y0405353D01*
X0072313Y0405190D01*
X0072331Y0405027D01*
X0072345Y0404863D01*
X0072355Y0404699D01*
X0072361Y0404535D01*
X0072363Y0404371D01*
X0072361Y0404207D01*
X0072355Y0404043D01*
X0072345Y0403879D01*
X0072331Y0403715D01*
X0072313Y0403552D01*
X0072291Y0403389D01*
X0072264Y0403227D01*
X0072234Y0403065D01*
X0072200Y0402905D01*
X0072162Y0402745D01*
X0072121Y0402586D01*
X0072075Y0402428D01*
X0072025Y0402272D01*
X0071972Y0402116D01*
X0071915Y0401962D01*
X0071854Y0401810D01*
X0071789Y0401659D01*
X0071720Y0401509D01*
X0071648Y0401362D01*
X0071573Y0401216D01*
X0071493Y0401072D01*
X0071411Y0400930D01*
X0071325Y0400790D01*
X0071235Y0400653D01*
X0071142Y0400517D01*
X0071046Y0400384D01*
X0070946Y0400253D01*
X0070844Y0400125D01*
X0070738Y0399999D01*
X0070629Y0399876D01*
X0070517Y0399756D01*
X0070403Y0399638D01*
X0070285Y0399524D01*
X0070165Y0399412D01*
X0070042Y0399303D01*
X0069916Y0399197D01*
X0069788Y0399095D01*
X0069657Y0398995D01*
X0069524Y0398899D01*
X0069388Y0398806D01*
X0069251Y0398716D01*
X0069111Y0398630D01*
X0068969Y0398548D01*
X0068825Y0398468D01*
X0068679Y0398393D01*
X0068532Y0398321D01*
X0068382Y0398252D01*
X0068231Y0398187D01*
X0068079Y0398126D01*
X0067925Y0398069D01*
X0067769Y0398016D01*
X0067613Y0397966D01*
X0067455Y0397920D01*
X0067296Y0397879D01*
X0067136Y0397841D01*
X0066976Y0397807D01*
X0066814Y0397777D01*
X0066652Y0397750D01*
X0066489Y0397728D01*
X0066326Y0397710D01*
X0066162Y0397696D01*
X0065998Y0397686D01*
X0065834Y0397680D01*
X0065670Y0397678D01*
X0065506Y0397680D01*
X0065342Y0397686D01*
X0065178Y0397696D01*
X0065014Y0397710D01*
X0064851Y0397728D01*
X0064688Y0397750D01*
X0064526Y0397777D01*
X0064364Y0397807D01*
X0064204Y0397841D01*
X0064044Y0397879D01*
X0063885Y0397920D01*
X0063727Y0397966D01*
X0063571Y0398016D01*
X0063415Y0398069D01*
X0063261Y0398126D01*
X0063109Y0398187D01*
X0062958Y0398252D01*
X0062808Y0398321D01*
X0062661Y0398393D01*
X0062515Y0398468D01*
X0062371Y0398548D01*
X0062229Y0398630D01*
X0062089Y0398716D01*
X0061952Y0398806D01*
X0061816Y0398899D01*
X0061683Y0398995D01*
X0061552Y0399095D01*
X0061424Y0399197D01*
X0061298Y0399303D01*
X0061175Y0399412D01*
X0061055Y0399524D01*
X0060937Y0399638D01*
X0060823Y0399756D01*
X0060711Y0399876D01*
X0060602Y0399999D01*
X0060496Y0400125D01*
X0060394Y0400253D01*
X0060294Y0400384D01*
X0060198Y0400517D01*
X0060105Y0400653D01*
X0060015Y0400790D01*
X0059929Y0400930D01*
X0059847Y0401072D01*
X0059767Y0401216D01*
X0059692Y0401362D01*
X0059620Y0401509D01*
X0059551Y0401659D01*
X0059486Y0401810D01*
X0059425Y0401962D01*
X0059368Y0402116D01*
X0059315Y0402272D01*
X0059265Y0402428D01*
X0059219Y0402586D01*
X0059178Y0402745D01*
X0059140Y0402905D01*
X0059106Y0403065D01*
X0059076Y0403227D01*
X0059049Y0403389D01*
X0059027Y0403552D01*
X0059009Y0403715D01*
X0058995Y0403879D01*
X0058985Y0404043D01*
X0058979Y0404207D01*
X0058977Y0404371D01*
X0173439Y0362631D02*
X0173439Y0348631D01*
X0199239Y0348631D01*
X0199239Y0362631D01*
X0173439Y0362631D01*
X0159095Y0163465D02*
X0160473Y0162087D01*
X0160473Y0152245D02*
X0160473Y0150867D01*
X0159095Y0150867D01*
X0149253Y0150867D02*
X0147875Y0150867D01*
X0147875Y0152245D01*
X0147875Y0162087D02*
X0147875Y0163465D01*
X0149253Y0163465D01*
X0226809Y0091221D02*
X0226811Y0091292D01*
X0226817Y0091363D01*
X0226827Y0091434D01*
X0226841Y0091504D01*
X0226858Y0091573D01*
X0226880Y0091641D01*
X0226905Y0091707D01*
X0226934Y0091773D01*
X0226966Y0091836D01*
X0227002Y0091898D01*
X0227041Y0091957D01*
X0227084Y0092014D01*
X0227130Y0092069D01*
X0227178Y0092121D01*
X0227230Y0092171D01*
X0227284Y0092217D01*
X0227340Y0092260D01*
X0227399Y0092300D01*
X0227460Y0092337D01*
X0227523Y0092370D01*
X0227588Y0092400D01*
X0227654Y0092426D01*
X0227722Y0092449D01*
X0227791Y0092467D01*
X0227861Y0092482D01*
X0227931Y0092493D01*
X0228002Y0092500D01*
X0228073Y0092503D01*
X0228144Y0092502D01*
X0228216Y0092497D01*
X0228286Y0092488D01*
X0228356Y0092475D01*
X0228426Y0092459D01*
X0228494Y0092438D01*
X0228561Y0092414D01*
X0228627Y0092386D01*
X0228690Y0092354D01*
X0228752Y0092319D01*
X0228812Y0092281D01*
X0228870Y0092239D01*
X0228926Y0092194D01*
X0228978Y0092146D01*
X0229028Y0092095D01*
X0229076Y0092042D01*
X0229120Y0091986D01*
X0229161Y0091928D01*
X0229198Y0091867D01*
X0229232Y0091805D01*
X0229263Y0091740D01*
X0229290Y0091674D01*
X0229314Y0091607D01*
X0229333Y0091538D01*
X0229349Y0091469D01*
X0229361Y0091399D01*
X0229369Y0091328D01*
X0229373Y0091257D01*
X0229373Y0091185D01*
X0229369Y0091114D01*
X0229361Y0091043D01*
X0229349Y0090973D01*
X0229333Y0090904D01*
X0229314Y0090835D01*
X0229290Y0090768D01*
X0229263Y0090702D01*
X0229232Y0090637D01*
X0229198Y0090575D01*
X0229161Y0090514D01*
X0229120Y0090456D01*
X0229076Y0090400D01*
X0229028Y0090347D01*
X0228978Y0090296D01*
X0228926Y0090248D01*
X0228870Y0090203D01*
X0228812Y0090161D01*
X0228752Y0090123D01*
X0228690Y0090088D01*
X0228627Y0090056D01*
X0228561Y0090028D01*
X0228494Y0090004D01*
X0228426Y0089983D01*
X0228356Y0089967D01*
X0228286Y0089954D01*
X0228216Y0089945D01*
X0228144Y0089940D01*
X0228073Y0089939D01*
X0228002Y0089942D01*
X0227931Y0089949D01*
X0227861Y0089960D01*
X0227791Y0089975D01*
X0227722Y0089993D01*
X0227654Y0090016D01*
X0227588Y0090042D01*
X0227523Y0090072D01*
X0227460Y0090105D01*
X0227399Y0090142D01*
X0227340Y0090182D01*
X0227284Y0090225D01*
X0227230Y0090271D01*
X0227178Y0090321D01*
X0227130Y0090373D01*
X0227084Y0090428D01*
X0227041Y0090485D01*
X0227002Y0090544D01*
X0226966Y0090606D01*
X0226934Y0090669D01*
X0226905Y0090735D01*
X0226880Y0090801D01*
X0226858Y0090869D01*
X0226841Y0090938D01*
X0226827Y0091008D01*
X0226817Y0091079D01*
X0226811Y0091150D01*
X0226809Y0091221D01*
X0265946Y0071064D02*
X0265946Y0068505D01*
X0275788Y0068505D01*
X0275788Y0071064D01*
X0265946Y0068505D02*
X0294489Y0043505D01*
X0333859Y0043505D01*
X0362402Y0068505D01*
X0362402Y0071064D01*
X0362402Y0068505D02*
X0352560Y0068505D01*
X0352560Y0071064D01*
X0389686Y0073662D02*
X0389688Y0073826D01*
X0389694Y0073990D01*
X0389704Y0074154D01*
X0389718Y0074318D01*
X0389736Y0074481D01*
X0389758Y0074644D01*
X0389785Y0074806D01*
X0389815Y0074968D01*
X0389849Y0075128D01*
X0389887Y0075288D01*
X0389928Y0075447D01*
X0389974Y0075605D01*
X0390024Y0075761D01*
X0390077Y0075917D01*
X0390134Y0076071D01*
X0390195Y0076223D01*
X0390260Y0076374D01*
X0390329Y0076524D01*
X0390401Y0076671D01*
X0390476Y0076817D01*
X0390556Y0076961D01*
X0390638Y0077103D01*
X0390724Y0077243D01*
X0390814Y0077380D01*
X0390907Y0077516D01*
X0391003Y0077649D01*
X0391103Y0077780D01*
X0391205Y0077908D01*
X0391311Y0078034D01*
X0391420Y0078157D01*
X0391532Y0078277D01*
X0391646Y0078395D01*
X0391764Y0078509D01*
X0391884Y0078621D01*
X0392007Y0078730D01*
X0392133Y0078836D01*
X0392261Y0078938D01*
X0392392Y0079038D01*
X0392525Y0079134D01*
X0392661Y0079227D01*
X0392798Y0079317D01*
X0392938Y0079403D01*
X0393080Y0079485D01*
X0393224Y0079565D01*
X0393370Y0079640D01*
X0393517Y0079712D01*
X0393667Y0079781D01*
X0393818Y0079846D01*
X0393970Y0079907D01*
X0394124Y0079964D01*
X0394280Y0080017D01*
X0394436Y0080067D01*
X0394594Y0080113D01*
X0394753Y0080154D01*
X0394913Y0080192D01*
X0395073Y0080226D01*
X0395235Y0080256D01*
X0395397Y0080283D01*
X0395560Y0080305D01*
X0395723Y0080323D01*
X0395887Y0080337D01*
X0396051Y0080347D01*
X0396215Y0080353D01*
X0396379Y0080355D01*
X0396543Y0080353D01*
X0396707Y0080347D01*
X0396871Y0080337D01*
X0397035Y0080323D01*
X0397198Y0080305D01*
X0397361Y0080283D01*
X0397523Y0080256D01*
X0397685Y0080226D01*
X0397845Y0080192D01*
X0398005Y0080154D01*
X0398164Y0080113D01*
X0398322Y0080067D01*
X0398478Y0080017D01*
X0398634Y0079964D01*
X0398788Y0079907D01*
X0398940Y0079846D01*
X0399091Y0079781D01*
X0399241Y0079712D01*
X0399388Y0079640D01*
X0399534Y0079565D01*
X0399678Y0079485D01*
X0399820Y0079403D01*
X0399960Y0079317D01*
X0400097Y0079227D01*
X0400233Y0079134D01*
X0400366Y0079038D01*
X0400497Y0078938D01*
X0400625Y0078836D01*
X0400751Y0078730D01*
X0400874Y0078621D01*
X0400994Y0078509D01*
X0401112Y0078395D01*
X0401226Y0078277D01*
X0401338Y0078157D01*
X0401447Y0078034D01*
X0401553Y0077908D01*
X0401655Y0077780D01*
X0401755Y0077649D01*
X0401851Y0077516D01*
X0401944Y0077380D01*
X0402034Y0077243D01*
X0402120Y0077103D01*
X0402202Y0076961D01*
X0402282Y0076817D01*
X0402357Y0076671D01*
X0402429Y0076524D01*
X0402498Y0076374D01*
X0402563Y0076223D01*
X0402624Y0076071D01*
X0402681Y0075917D01*
X0402734Y0075761D01*
X0402784Y0075605D01*
X0402830Y0075447D01*
X0402871Y0075288D01*
X0402909Y0075128D01*
X0402943Y0074968D01*
X0402973Y0074806D01*
X0403000Y0074644D01*
X0403022Y0074481D01*
X0403040Y0074318D01*
X0403054Y0074154D01*
X0403064Y0073990D01*
X0403070Y0073826D01*
X0403072Y0073662D01*
X0403070Y0073498D01*
X0403064Y0073334D01*
X0403054Y0073170D01*
X0403040Y0073006D01*
X0403022Y0072843D01*
X0403000Y0072680D01*
X0402973Y0072518D01*
X0402943Y0072356D01*
X0402909Y0072196D01*
X0402871Y0072036D01*
X0402830Y0071877D01*
X0402784Y0071719D01*
X0402734Y0071563D01*
X0402681Y0071407D01*
X0402624Y0071253D01*
X0402563Y0071101D01*
X0402498Y0070950D01*
X0402429Y0070800D01*
X0402357Y0070653D01*
X0402282Y0070507D01*
X0402202Y0070363D01*
X0402120Y0070221D01*
X0402034Y0070081D01*
X0401944Y0069944D01*
X0401851Y0069808D01*
X0401755Y0069675D01*
X0401655Y0069544D01*
X0401553Y0069416D01*
X0401447Y0069290D01*
X0401338Y0069167D01*
X0401226Y0069047D01*
X0401112Y0068929D01*
X0400994Y0068815D01*
X0400874Y0068703D01*
X0400751Y0068594D01*
X0400625Y0068488D01*
X0400497Y0068386D01*
X0400366Y0068286D01*
X0400233Y0068190D01*
X0400097Y0068097D01*
X0399960Y0068007D01*
X0399820Y0067921D01*
X0399678Y0067839D01*
X0399534Y0067759D01*
X0399388Y0067684D01*
X0399241Y0067612D01*
X0399091Y0067543D01*
X0398940Y0067478D01*
X0398788Y0067417D01*
X0398634Y0067360D01*
X0398478Y0067307D01*
X0398322Y0067257D01*
X0398164Y0067211D01*
X0398005Y0067170D01*
X0397845Y0067132D01*
X0397685Y0067098D01*
X0397523Y0067068D01*
X0397361Y0067041D01*
X0397198Y0067019D01*
X0397035Y0067001D01*
X0396871Y0066987D01*
X0396707Y0066977D01*
X0396543Y0066971D01*
X0396379Y0066969D01*
X0396215Y0066971D01*
X0396051Y0066977D01*
X0395887Y0066987D01*
X0395723Y0067001D01*
X0395560Y0067019D01*
X0395397Y0067041D01*
X0395235Y0067068D01*
X0395073Y0067098D01*
X0394913Y0067132D01*
X0394753Y0067170D01*
X0394594Y0067211D01*
X0394436Y0067257D01*
X0394280Y0067307D01*
X0394124Y0067360D01*
X0393970Y0067417D01*
X0393818Y0067478D01*
X0393667Y0067543D01*
X0393517Y0067612D01*
X0393370Y0067684D01*
X0393224Y0067759D01*
X0393080Y0067839D01*
X0392938Y0067921D01*
X0392798Y0068007D01*
X0392661Y0068097D01*
X0392525Y0068190D01*
X0392392Y0068286D01*
X0392261Y0068386D01*
X0392133Y0068488D01*
X0392007Y0068594D01*
X0391884Y0068703D01*
X0391764Y0068815D01*
X0391646Y0068929D01*
X0391532Y0069047D01*
X0391420Y0069167D01*
X0391311Y0069290D01*
X0391205Y0069416D01*
X0391103Y0069544D01*
X0391003Y0069675D01*
X0390907Y0069808D01*
X0390814Y0069944D01*
X0390724Y0070081D01*
X0390638Y0070221D01*
X0390556Y0070363D01*
X0390476Y0070507D01*
X0390401Y0070653D01*
X0390329Y0070800D01*
X0390260Y0070950D01*
X0390195Y0071101D01*
X0390134Y0071253D01*
X0390077Y0071407D01*
X0390024Y0071563D01*
X0389974Y0071719D01*
X0389928Y0071877D01*
X0389887Y0072036D01*
X0389849Y0072196D01*
X0389815Y0072356D01*
X0389785Y0072518D01*
X0389758Y0072680D01*
X0389736Y0072843D01*
X0389718Y0073006D01*
X0389704Y0073170D01*
X0389694Y0073334D01*
X0389688Y0073498D01*
X0389686Y0073662D01*
X0362402Y0147048D02*
X0362402Y0149213D01*
X0352560Y0149213D01*
X0352560Y0147048D01*
X0362402Y0149213D02*
X0362402Y0152166D01*
X0265946Y0152166D01*
X0265946Y0149213D01*
X0265946Y0147048D01*
X0265946Y0149213D02*
X0275788Y0149213D01*
X0275788Y0147048D01*
X0058977Y0073662D02*
X0058979Y0073826D01*
X0058985Y0073990D01*
X0058995Y0074154D01*
X0059009Y0074318D01*
X0059027Y0074481D01*
X0059049Y0074644D01*
X0059076Y0074806D01*
X0059106Y0074968D01*
X0059140Y0075128D01*
X0059178Y0075288D01*
X0059219Y0075447D01*
X0059265Y0075605D01*
X0059315Y0075761D01*
X0059368Y0075917D01*
X0059425Y0076071D01*
X0059486Y0076223D01*
X0059551Y0076374D01*
X0059620Y0076524D01*
X0059692Y0076671D01*
X0059767Y0076817D01*
X0059847Y0076961D01*
X0059929Y0077103D01*
X0060015Y0077243D01*
X0060105Y0077380D01*
X0060198Y0077516D01*
X0060294Y0077649D01*
X0060394Y0077780D01*
X0060496Y0077908D01*
X0060602Y0078034D01*
X0060711Y0078157D01*
X0060823Y0078277D01*
X0060937Y0078395D01*
X0061055Y0078509D01*
X0061175Y0078621D01*
X0061298Y0078730D01*
X0061424Y0078836D01*
X0061552Y0078938D01*
X0061683Y0079038D01*
X0061816Y0079134D01*
X0061952Y0079227D01*
X0062089Y0079317D01*
X0062229Y0079403D01*
X0062371Y0079485D01*
X0062515Y0079565D01*
X0062661Y0079640D01*
X0062808Y0079712D01*
X0062958Y0079781D01*
X0063109Y0079846D01*
X0063261Y0079907D01*
X0063415Y0079964D01*
X0063571Y0080017D01*
X0063727Y0080067D01*
X0063885Y0080113D01*
X0064044Y0080154D01*
X0064204Y0080192D01*
X0064364Y0080226D01*
X0064526Y0080256D01*
X0064688Y0080283D01*
X0064851Y0080305D01*
X0065014Y0080323D01*
X0065178Y0080337D01*
X0065342Y0080347D01*
X0065506Y0080353D01*
X0065670Y0080355D01*
X0065834Y0080353D01*
X0065998Y0080347D01*
X0066162Y0080337D01*
X0066326Y0080323D01*
X0066489Y0080305D01*
X0066652Y0080283D01*
X0066814Y0080256D01*
X0066976Y0080226D01*
X0067136Y0080192D01*
X0067296Y0080154D01*
X0067455Y0080113D01*
X0067613Y0080067D01*
X0067769Y0080017D01*
X0067925Y0079964D01*
X0068079Y0079907D01*
X0068231Y0079846D01*
X0068382Y0079781D01*
X0068532Y0079712D01*
X0068679Y0079640D01*
X0068825Y0079565D01*
X0068969Y0079485D01*
X0069111Y0079403D01*
X0069251Y0079317D01*
X0069388Y0079227D01*
X0069524Y0079134D01*
X0069657Y0079038D01*
X0069788Y0078938D01*
X0069916Y0078836D01*
X0070042Y0078730D01*
X0070165Y0078621D01*
X0070285Y0078509D01*
X0070403Y0078395D01*
X0070517Y0078277D01*
X0070629Y0078157D01*
X0070738Y0078034D01*
X0070844Y0077908D01*
X0070946Y0077780D01*
X0071046Y0077649D01*
X0071142Y0077516D01*
X0071235Y0077380D01*
X0071325Y0077243D01*
X0071411Y0077103D01*
X0071493Y0076961D01*
X0071573Y0076817D01*
X0071648Y0076671D01*
X0071720Y0076524D01*
X0071789Y0076374D01*
X0071854Y0076223D01*
X0071915Y0076071D01*
X0071972Y0075917D01*
X0072025Y0075761D01*
X0072075Y0075605D01*
X0072121Y0075447D01*
X0072162Y0075288D01*
X0072200Y0075128D01*
X0072234Y0074968D01*
X0072264Y0074806D01*
X0072291Y0074644D01*
X0072313Y0074481D01*
X0072331Y0074318D01*
X0072345Y0074154D01*
X0072355Y0073990D01*
X0072361Y0073826D01*
X0072363Y0073662D01*
X0072361Y0073498D01*
X0072355Y0073334D01*
X0072345Y0073170D01*
X0072331Y0073006D01*
X0072313Y0072843D01*
X0072291Y0072680D01*
X0072264Y0072518D01*
X0072234Y0072356D01*
X0072200Y0072196D01*
X0072162Y0072036D01*
X0072121Y0071877D01*
X0072075Y0071719D01*
X0072025Y0071563D01*
X0071972Y0071407D01*
X0071915Y0071253D01*
X0071854Y0071101D01*
X0071789Y0070950D01*
X0071720Y0070800D01*
X0071648Y0070653D01*
X0071573Y0070507D01*
X0071493Y0070363D01*
X0071411Y0070221D01*
X0071325Y0070081D01*
X0071235Y0069944D01*
X0071142Y0069808D01*
X0071046Y0069675D01*
X0070946Y0069544D01*
X0070844Y0069416D01*
X0070738Y0069290D01*
X0070629Y0069167D01*
X0070517Y0069047D01*
X0070403Y0068929D01*
X0070285Y0068815D01*
X0070165Y0068703D01*
X0070042Y0068594D01*
X0069916Y0068488D01*
X0069788Y0068386D01*
X0069657Y0068286D01*
X0069524Y0068190D01*
X0069388Y0068097D01*
X0069251Y0068007D01*
X0069111Y0067921D01*
X0068969Y0067839D01*
X0068825Y0067759D01*
X0068679Y0067684D01*
X0068532Y0067612D01*
X0068382Y0067543D01*
X0068231Y0067478D01*
X0068079Y0067417D01*
X0067925Y0067360D01*
X0067769Y0067307D01*
X0067613Y0067257D01*
X0067455Y0067211D01*
X0067296Y0067170D01*
X0067136Y0067132D01*
X0066976Y0067098D01*
X0066814Y0067068D01*
X0066652Y0067041D01*
X0066489Y0067019D01*
X0066326Y0067001D01*
X0066162Y0066987D01*
X0065998Y0066977D01*
X0065834Y0066971D01*
X0065670Y0066969D01*
X0065506Y0066971D01*
X0065342Y0066977D01*
X0065178Y0066987D01*
X0065014Y0067001D01*
X0064851Y0067019D01*
X0064688Y0067041D01*
X0064526Y0067068D01*
X0064364Y0067098D01*
X0064204Y0067132D01*
X0064044Y0067170D01*
X0063885Y0067211D01*
X0063727Y0067257D01*
X0063571Y0067307D01*
X0063415Y0067360D01*
X0063261Y0067417D01*
X0063109Y0067478D01*
X0062958Y0067543D01*
X0062808Y0067612D01*
X0062661Y0067684D01*
X0062515Y0067759D01*
X0062371Y0067839D01*
X0062229Y0067921D01*
X0062089Y0068007D01*
X0061952Y0068097D01*
X0061816Y0068190D01*
X0061683Y0068286D01*
X0061552Y0068386D01*
X0061424Y0068488D01*
X0061298Y0068594D01*
X0061175Y0068703D01*
X0061055Y0068815D01*
X0060937Y0068929D01*
X0060823Y0069047D01*
X0060711Y0069167D01*
X0060602Y0069290D01*
X0060496Y0069416D01*
X0060394Y0069544D01*
X0060294Y0069675D01*
X0060198Y0069808D01*
X0060105Y0069944D01*
X0060015Y0070081D01*
X0059929Y0070221D01*
X0059847Y0070363D01*
X0059767Y0070507D01*
X0059692Y0070653D01*
X0059620Y0070800D01*
X0059551Y0070950D01*
X0059486Y0071101D01*
X0059425Y0071253D01*
X0059368Y0071407D01*
X0059315Y0071563D01*
X0059265Y0071719D01*
X0059219Y0071877D01*
X0059178Y0072036D01*
X0059140Y0072196D01*
X0059106Y0072356D01*
X0059076Y0072518D01*
X0059049Y0072680D01*
X0059027Y0072843D01*
X0059009Y0073006D01*
X0058995Y0073170D01*
X0058985Y0073334D01*
X0058979Y0073498D01*
X0058977Y0073662D01*
X0389686Y0404371D02*
X0389688Y0404535D01*
X0389694Y0404699D01*
X0389704Y0404863D01*
X0389718Y0405027D01*
X0389736Y0405190D01*
X0389758Y0405353D01*
X0389785Y0405515D01*
X0389815Y0405677D01*
X0389849Y0405837D01*
X0389887Y0405997D01*
X0389928Y0406156D01*
X0389974Y0406314D01*
X0390024Y0406470D01*
X0390077Y0406626D01*
X0390134Y0406780D01*
X0390195Y0406932D01*
X0390260Y0407083D01*
X0390329Y0407233D01*
X0390401Y0407380D01*
X0390476Y0407526D01*
X0390556Y0407670D01*
X0390638Y0407812D01*
X0390724Y0407952D01*
X0390814Y0408089D01*
X0390907Y0408225D01*
X0391003Y0408358D01*
X0391103Y0408489D01*
X0391205Y0408617D01*
X0391311Y0408743D01*
X0391420Y0408866D01*
X0391532Y0408986D01*
X0391646Y0409104D01*
X0391764Y0409218D01*
X0391884Y0409330D01*
X0392007Y0409439D01*
X0392133Y0409545D01*
X0392261Y0409647D01*
X0392392Y0409747D01*
X0392525Y0409843D01*
X0392661Y0409936D01*
X0392798Y0410026D01*
X0392938Y0410112D01*
X0393080Y0410194D01*
X0393224Y0410274D01*
X0393370Y0410349D01*
X0393517Y0410421D01*
X0393667Y0410490D01*
X0393818Y0410555D01*
X0393970Y0410616D01*
X0394124Y0410673D01*
X0394280Y0410726D01*
X0394436Y0410776D01*
X0394594Y0410822D01*
X0394753Y0410863D01*
X0394913Y0410901D01*
X0395073Y0410935D01*
X0395235Y0410965D01*
X0395397Y0410992D01*
X0395560Y0411014D01*
X0395723Y0411032D01*
X0395887Y0411046D01*
X0396051Y0411056D01*
X0396215Y0411062D01*
X0396379Y0411064D01*
X0396543Y0411062D01*
X0396707Y0411056D01*
X0396871Y0411046D01*
X0397035Y0411032D01*
X0397198Y0411014D01*
X0397361Y0410992D01*
X0397523Y0410965D01*
X0397685Y0410935D01*
X0397845Y0410901D01*
X0398005Y0410863D01*
X0398164Y0410822D01*
X0398322Y0410776D01*
X0398478Y0410726D01*
X0398634Y0410673D01*
X0398788Y0410616D01*
X0398940Y0410555D01*
X0399091Y0410490D01*
X0399241Y0410421D01*
X0399388Y0410349D01*
X0399534Y0410274D01*
X0399678Y0410194D01*
X0399820Y0410112D01*
X0399960Y0410026D01*
X0400097Y0409936D01*
X0400233Y0409843D01*
X0400366Y0409747D01*
X0400497Y0409647D01*
X0400625Y0409545D01*
X0400751Y0409439D01*
X0400874Y0409330D01*
X0400994Y0409218D01*
X0401112Y0409104D01*
X0401226Y0408986D01*
X0401338Y0408866D01*
X0401447Y0408743D01*
X0401553Y0408617D01*
X0401655Y0408489D01*
X0401755Y0408358D01*
X0401851Y0408225D01*
X0401944Y0408089D01*
X0402034Y0407952D01*
X0402120Y0407812D01*
X0402202Y0407670D01*
X0402282Y0407526D01*
X0402357Y0407380D01*
X0402429Y0407233D01*
X0402498Y0407083D01*
X0402563Y0406932D01*
X0402624Y0406780D01*
X0402681Y0406626D01*
X0402734Y0406470D01*
X0402784Y0406314D01*
X0402830Y0406156D01*
X0402871Y0405997D01*
X0402909Y0405837D01*
X0402943Y0405677D01*
X0402973Y0405515D01*
X0403000Y0405353D01*
X0403022Y0405190D01*
X0403040Y0405027D01*
X0403054Y0404863D01*
X0403064Y0404699D01*
X0403070Y0404535D01*
X0403072Y0404371D01*
X0403070Y0404207D01*
X0403064Y0404043D01*
X0403054Y0403879D01*
X0403040Y0403715D01*
X0403022Y0403552D01*
X0403000Y0403389D01*
X0402973Y0403227D01*
X0402943Y0403065D01*
X0402909Y0402905D01*
X0402871Y0402745D01*
X0402830Y0402586D01*
X0402784Y0402428D01*
X0402734Y0402272D01*
X0402681Y0402116D01*
X0402624Y0401962D01*
X0402563Y0401810D01*
X0402498Y0401659D01*
X0402429Y0401509D01*
X0402357Y0401362D01*
X0402282Y0401216D01*
X0402202Y0401072D01*
X0402120Y0400930D01*
X0402034Y0400790D01*
X0401944Y0400653D01*
X0401851Y0400517D01*
X0401755Y0400384D01*
X0401655Y0400253D01*
X0401553Y0400125D01*
X0401447Y0399999D01*
X0401338Y0399876D01*
X0401226Y0399756D01*
X0401112Y0399638D01*
X0400994Y0399524D01*
X0400874Y0399412D01*
X0400751Y0399303D01*
X0400625Y0399197D01*
X0400497Y0399095D01*
X0400366Y0398995D01*
X0400233Y0398899D01*
X0400097Y0398806D01*
X0399960Y0398716D01*
X0399820Y0398630D01*
X0399678Y0398548D01*
X0399534Y0398468D01*
X0399388Y0398393D01*
X0399241Y0398321D01*
X0399091Y0398252D01*
X0398940Y0398187D01*
X0398788Y0398126D01*
X0398634Y0398069D01*
X0398478Y0398016D01*
X0398322Y0397966D01*
X0398164Y0397920D01*
X0398005Y0397879D01*
X0397845Y0397841D01*
X0397685Y0397807D01*
X0397523Y0397777D01*
X0397361Y0397750D01*
X0397198Y0397728D01*
X0397035Y0397710D01*
X0396871Y0397696D01*
X0396707Y0397686D01*
X0396543Y0397680D01*
X0396379Y0397678D01*
X0396215Y0397680D01*
X0396051Y0397686D01*
X0395887Y0397696D01*
X0395723Y0397710D01*
X0395560Y0397728D01*
X0395397Y0397750D01*
X0395235Y0397777D01*
X0395073Y0397807D01*
X0394913Y0397841D01*
X0394753Y0397879D01*
X0394594Y0397920D01*
X0394436Y0397966D01*
X0394280Y0398016D01*
X0394124Y0398069D01*
X0393970Y0398126D01*
X0393818Y0398187D01*
X0393667Y0398252D01*
X0393517Y0398321D01*
X0393370Y0398393D01*
X0393224Y0398468D01*
X0393080Y0398548D01*
X0392938Y0398630D01*
X0392798Y0398716D01*
X0392661Y0398806D01*
X0392525Y0398899D01*
X0392392Y0398995D01*
X0392261Y0399095D01*
X0392133Y0399197D01*
X0392007Y0399303D01*
X0391884Y0399412D01*
X0391764Y0399524D01*
X0391646Y0399638D01*
X0391532Y0399756D01*
X0391420Y0399876D01*
X0391311Y0399999D01*
X0391205Y0400125D01*
X0391103Y0400253D01*
X0391003Y0400384D01*
X0390907Y0400517D01*
X0390814Y0400653D01*
X0390724Y0400790D01*
X0390638Y0400930D01*
X0390556Y0401072D01*
X0390476Y0401216D01*
X0390401Y0401362D01*
X0390329Y0401509D01*
X0390260Y0401659D01*
X0390195Y0401810D01*
X0390134Y0401962D01*
X0390077Y0402116D01*
X0390024Y0402272D01*
X0389974Y0402428D01*
X0389928Y0402586D01*
X0389887Y0402745D01*
X0389849Y0402905D01*
X0389815Y0403065D01*
X0389785Y0403227D01*
X0389758Y0403389D01*
X0389736Y0403552D01*
X0389718Y0403715D01*
X0389704Y0403879D01*
X0389694Y0404043D01*
X0389688Y0404207D01*
X0389686Y0404371D01*
D13*
X0390080Y0404371D02*
X0390082Y0404529D01*
X0390088Y0404687D01*
X0390098Y0404845D01*
X0390112Y0405003D01*
X0390130Y0405160D01*
X0390151Y0405317D01*
X0390177Y0405473D01*
X0390207Y0405629D01*
X0390240Y0405784D01*
X0390278Y0405937D01*
X0390319Y0406090D01*
X0390364Y0406242D01*
X0390413Y0406393D01*
X0390466Y0406542D01*
X0390522Y0406690D01*
X0390582Y0406836D01*
X0390646Y0406981D01*
X0390714Y0407124D01*
X0390785Y0407266D01*
X0390859Y0407406D01*
X0390937Y0407543D01*
X0391019Y0407679D01*
X0391103Y0407813D01*
X0391192Y0407944D01*
X0391283Y0408073D01*
X0391378Y0408200D01*
X0391475Y0408325D01*
X0391576Y0408447D01*
X0391680Y0408566D01*
X0391787Y0408683D01*
X0391897Y0408797D01*
X0392010Y0408908D01*
X0392125Y0409017D01*
X0392243Y0409122D01*
X0392364Y0409224D01*
X0392487Y0409324D01*
X0392613Y0409420D01*
X0392741Y0409513D01*
X0392871Y0409603D01*
X0393004Y0409689D01*
X0393139Y0409773D01*
X0393275Y0409852D01*
X0393414Y0409929D01*
X0393555Y0410001D01*
X0393697Y0410071D01*
X0393841Y0410136D01*
X0393987Y0410198D01*
X0394134Y0410256D01*
X0394283Y0410311D01*
X0394433Y0410362D01*
X0394584Y0410409D01*
X0394736Y0410452D01*
X0394889Y0410491D01*
X0395044Y0410527D01*
X0395199Y0410558D01*
X0395355Y0410586D01*
X0395511Y0410610D01*
X0395668Y0410630D01*
X0395826Y0410646D01*
X0395983Y0410658D01*
X0396142Y0410666D01*
X0396300Y0410670D01*
X0396458Y0410670D01*
X0396616Y0410666D01*
X0396775Y0410658D01*
X0396932Y0410646D01*
X0397090Y0410630D01*
X0397247Y0410610D01*
X0397403Y0410586D01*
X0397559Y0410558D01*
X0397714Y0410527D01*
X0397869Y0410491D01*
X0398022Y0410452D01*
X0398174Y0410409D01*
X0398325Y0410362D01*
X0398475Y0410311D01*
X0398624Y0410256D01*
X0398771Y0410198D01*
X0398917Y0410136D01*
X0399061Y0410071D01*
X0399203Y0410001D01*
X0399344Y0409929D01*
X0399483Y0409852D01*
X0399619Y0409773D01*
X0399754Y0409689D01*
X0399887Y0409603D01*
X0400017Y0409513D01*
X0400145Y0409420D01*
X0400271Y0409324D01*
X0400394Y0409224D01*
X0400515Y0409122D01*
X0400633Y0409017D01*
X0400748Y0408908D01*
X0400861Y0408797D01*
X0400971Y0408683D01*
X0401078Y0408566D01*
X0401182Y0408447D01*
X0401283Y0408325D01*
X0401380Y0408200D01*
X0401475Y0408073D01*
X0401566Y0407944D01*
X0401655Y0407813D01*
X0401739Y0407679D01*
X0401821Y0407543D01*
X0401899Y0407406D01*
X0401973Y0407266D01*
X0402044Y0407124D01*
X0402112Y0406981D01*
X0402176Y0406836D01*
X0402236Y0406690D01*
X0402292Y0406542D01*
X0402345Y0406393D01*
X0402394Y0406242D01*
X0402439Y0406090D01*
X0402480Y0405937D01*
X0402518Y0405784D01*
X0402551Y0405629D01*
X0402581Y0405473D01*
X0402607Y0405317D01*
X0402628Y0405160D01*
X0402646Y0405003D01*
X0402660Y0404845D01*
X0402670Y0404687D01*
X0402676Y0404529D01*
X0402678Y0404371D01*
X0402676Y0404213D01*
X0402670Y0404055D01*
X0402660Y0403897D01*
X0402646Y0403739D01*
X0402628Y0403582D01*
X0402607Y0403425D01*
X0402581Y0403269D01*
X0402551Y0403113D01*
X0402518Y0402958D01*
X0402480Y0402805D01*
X0402439Y0402652D01*
X0402394Y0402500D01*
X0402345Y0402349D01*
X0402292Y0402200D01*
X0402236Y0402052D01*
X0402176Y0401906D01*
X0402112Y0401761D01*
X0402044Y0401618D01*
X0401973Y0401476D01*
X0401899Y0401336D01*
X0401821Y0401199D01*
X0401739Y0401063D01*
X0401655Y0400929D01*
X0401566Y0400798D01*
X0401475Y0400669D01*
X0401380Y0400542D01*
X0401283Y0400417D01*
X0401182Y0400295D01*
X0401078Y0400176D01*
X0400971Y0400059D01*
X0400861Y0399945D01*
X0400748Y0399834D01*
X0400633Y0399725D01*
X0400515Y0399620D01*
X0400394Y0399518D01*
X0400271Y0399418D01*
X0400145Y0399322D01*
X0400017Y0399229D01*
X0399887Y0399139D01*
X0399754Y0399053D01*
X0399619Y0398969D01*
X0399483Y0398890D01*
X0399344Y0398813D01*
X0399203Y0398741D01*
X0399061Y0398671D01*
X0398917Y0398606D01*
X0398771Y0398544D01*
X0398624Y0398486D01*
X0398475Y0398431D01*
X0398325Y0398380D01*
X0398174Y0398333D01*
X0398022Y0398290D01*
X0397869Y0398251D01*
X0397714Y0398215D01*
X0397559Y0398184D01*
X0397403Y0398156D01*
X0397247Y0398132D01*
X0397090Y0398112D01*
X0396932Y0398096D01*
X0396775Y0398084D01*
X0396616Y0398076D01*
X0396458Y0398072D01*
X0396300Y0398072D01*
X0396142Y0398076D01*
X0395983Y0398084D01*
X0395826Y0398096D01*
X0395668Y0398112D01*
X0395511Y0398132D01*
X0395355Y0398156D01*
X0395199Y0398184D01*
X0395044Y0398215D01*
X0394889Y0398251D01*
X0394736Y0398290D01*
X0394584Y0398333D01*
X0394433Y0398380D01*
X0394283Y0398431D01*
X0394134Y0398486D01*
X0393987Y0398544D01*
X0393841Y0398606D01*
X0393697Y0398671D01*
X0393555Y0398741D01*
X0393414Y0398813D01*
X0393275Y0398890D01*
X0393139Y0398969D01*
X0393004Y0399053D01*
X0392871Y0399139D01*
X0392741Y0399229D01*
X0392613Y0399322D01*
X0392487Y0399418D01*
X0392364Y0399518D01*
X0392243Y0399620D01*
X0392125Y0399725D01*
X0392010Y0399834D01*
X0391897Y0399945D01*
X0391787Y0400059D01*
X0391680Y0400176D01*
X0391576Y0400295D01*
X0391475Y0400417D01*
X0391378Y0400542D01*
X0391283Y0400669D01*
X0391192Y0400798D01*
X0391103Y0400929D01*
X0391019Y0401063D01*
X0390937Y0401199D01*
X0390859Y0401336D01*
X0390785Y0401476D01*
X0390714Y0401618D01*
X0390646Y0401761D01*
X0390582Y0401906D01*
X0390522Y0402052D01*
X0390466Y0402200D01*
X0390413Y0402349D01*
X0390364Y0402500D01*
X0390319Y0402652D01*
X0390278Y0402805D01*
X0390240Y0402958D01*
X0390207Y0403113D01*
X0390177Y0403269D01*
X0390151Y0403425D01*
X0390130Y0403582D01*
X0390112Y0403739D01*
X0390098Y0403897D01*
X0390088Y0404055D01*
X0390082Y0404213D01*
X0390080Y0404371D01*
X0163406Y0097366D02*
X0163404Y0097435D01*
X0163398Y0097503D01*
X0163388Y0097571D01*
X0163375Y0097638D01*
X0163357Y0097704D01*
X0163336Y0097769D01*
X0163311Y0097833D01*
X0163283Y0097895D01*
X0163251Y0097956D01*
X0163216Y0098015D01*
X0163177Y0098071D01*
X0163135Y0098126D01*
X0163090Y0098177D01*
X0163042Y0098227D01*
X0162992Y0098273D01*
X0162939Y0098316D01*
X0162883Y0098357D01*
X0162826Y0098394D01*
X0162766Y0098427D01*
X0162704Y0098458D01*
X0162641Y0098484D01*
X0162577Y0098507D01*
X0162511Y0098527D01*
X0162444Y0098542D01*
X0162377Y0098554D01*
X0162309Y0098562D01*
X0162240Y0098566D01*
X0162172Y0098566D01*
X0162103Y0098562D01*
X0162035Y0098554D01*
X0161968Y0098542D01*
X0161901Y0098527D01*
X0161835Y0098507D01*
X0161771Y0098484D01*
X0161708Y0098458D01*
X0161646Y0098427D01*
X0161586Y0098394D01*
X0161529Y0098357D01*
X0161473Y0098316D01*
X0161420Y0098273D01*
X0161370Y0098227D01*
X0161322Y0098177D01*
X0161277Y0098126D01*
X0161235Y0098071D01*
X0161196Y0098015D01*
X0161161Y0097956D01*
X0161129Y0097895D01*
X0161101Y0097833D01*
X0161076Y0097769D01*
X0161055Y0097704D01*
X0161037Y0097638D01*
X0161024Y0097571D01*
X0161014Y0097503D01*
X0161008Y0097435D01*
X0161006Y0097366D01*
X0116374Y0098866D02*
X0116372Y0098935D01*
X0116366Y0099003D01*
X0116356Y0099071D01*
X0116343Y0099138D01*
X0116325Y0099204D01*
X0116304Y0099269D01*
X0116279Y0099333D01*
X0116251Y0099395D01*
X0116219Y0099456D01*
X0116184Y0099515D01*
X0116145Y0099571D01*
X0116103Y0099626D01*
X0116058Y0099677D01*
X0116010Y0099727D01*
X0115960Y0099773D01*
X0115907Y0099816D01*
X0115851Y0099857D01*
X0115794Y0099894D01*
X0115734Y0099927D01*
X0115672Y0099958D01*
X0115609Y0099984D01*
X0115545Y0100007D01*
X0115479Y0100027D01*
X0115412Y0100042D01*
X0115345Y0100054D01*
X0115277Y0100062D01*
X0115208Y0100066D01*
X0115140Y0100066D01*
X0115071Y0100062D01*
X0115003Y0100054D01*
X0114936Y0100042D01*
X0114869Y0100027D01*
X0114803Y0100007D01*
X0114739Y0099984D01*
X0114676Y0099958D01*
X0114614Y0099927D01*
X0114554Y0099894D01*
X0114497Y0099857D01*
X0114441Y0099816D01*
X0114388Y0099773D01*
X0114338Y0099727D01*
X0114290Y0099677D01*
X0114245Y0099626D01*
X0114203Y0099571D01*
X0114164Y0099515D01*
X0114129Y0099456D01*
X0114097Y0099395D01*
X0114069Y0099333D01*
X0114044Y0099269D01*
X0114023Y0099204D01*
X0114005Y0099138D01*
X0113992Y0099071D01*
X0113982Y0099003D01*
X0113976Y0098935D01*
X0113974Y0098866D01*
X0059371Y0073662D02*
X0059373Y0073820D01*
X0059379Y0073978D01*
X0059389Y0074136D01*
X0059403Y0074294D01*
X0059421Y0074451D01*
X0059442Y0074608D01*
X0059468Y0074764D01*
X0059498Y0074920D01*
X0059531Y0075075D01*
X0059569Y0075228D01*
X0059610Y0075381D01*
X0059655Y0075533D01*
X0059704Y0075684D01*
X0059757Y0075833D01*
X0059813Y0075981D01*
X0059873Y0076127D01*
X0059937Y0076272D01*
X0060005Y0076415D01*
X0060076Y0076557D01*
X0060150Y0076697D01*
X0060228Y0076834D01*
X0060310Y0076970D01*
X0060394Y0077104D01*
X0060483Y0077235D01*
X0060574Y0077364D01*
X0060669Y0077491D01*
X0060766Y0077616D01*
X0060867Y0077738D01*
X0060971Y0077857D01*
X0061078Y0077974D01*
X0061188Y0078088D01*
X0061301Y0078199D01*
X0061416Y0078308D01*
X0061534Y0078413D01*
X0061655Y0078515D01*
X0061778Y0078615D01*
X0061904Y0078711D01*
X0062032Y0078804D01*
X0062162Y0078894D01*
X0062295Y0078980D01*
X0062430Y0079064D01*
X0062566Y0079143D01*
X0062705Y0079220D01*
X0062846Y0079292D01*
X0062988Y0079362D01*
X0063132Y0079427D01*
X0063278Y0079489D01*
X0063425Y0079547D01*
X0063574Y0079602D01*
X0063724Y0079653D01*
X0063875Y0079700D01*
X0064027Y0079743D01*
X0064180Y0079782D01*
X0064335Y0079818D01*
X0064490Y0079849D01*
X0064646Y0079877D01*
X0064802Y0079901D01*
X0064959Y0079921D01*
X0065117Y0079937D01*
X0065274Y0079949D01*
X0065433Y0079957D01*
X0065591Y0079961D01*
X0065749Y0079961D01*
X0065907Y0079957D01*
X0066066Y0079949D01*
X0066223Y0079937D01*
X0066381Y0079921D01*
X0066538Y0079901D01*
X0066694Y0079877D01*
X0066850Y0079849D01*
X0067005Y0079818D01*
X0067160Y0079782D01*
X0067313Y0079743D01*
X0067465Y0079700D01*
X0067616Y0079653D01*
X0067766Y0079602D01*
X0067915Y0079547D01*
X0068062Y0079489D01*
X0068208Y0079427D01*
X0068352Y0079362D01*
X0068494Y0079292D01*
X0068635Y0079220D01*
X0068774Y0079143D01*
X0068910Y0079064D01*
X0069045Y0078980D01*
X0069178Y0078894D01*
X0069308Y0078804D01*
X0069436Y0078711D01*
X0069562Y0078615D01*
X0069685Y0078515D01*
X0069806Y0078413D01*
X0069924Y0078308D01*
X0070039Y0078199D01*
X0070152Y0078088D01*
X0070262Y0077974D01*
X0070369Y0077857D01*
X0070473Y0077738D01*
X0070574Y0077616D01*
X0070671Y0077491D01*
X0070766Y0077364D01*
X0070857Y0077235D01*
X0070946Y0077104D01*
X0071030Y0076970D01*
X0071112Y0076834D01*
X0071190Y0076697D01*
X0071264Y0076557D01*
X0071335Y0076415D01*
X0071403Y0076272D01*
X0071467Y0076127D01*
X0071527Y0075981D01*
X0071583Y0075833D01*
X0071636Y0075684D01*
X0071685Y0075533D01*
X0071730Y0075381D01*
X0071771Y0075228D01*
X0071809Y0075075D01*
X0071842Y0074920D01*
X0071872Y0074764D01*
X0071898Y0074608D01*
X0071919Y0074451D01*
X0071937Y0074294D01*
X0071951Y0074136D01*
X0071961Y0073978D01*
X0071967Y0073820D01*
X0071969Y0073662D01*
X0071967Y0073504D01*
X0071961Y0073346D01*
X0071951Y0073188D01*
X0071937Y0073030D01*
X0071919Y0072873D01*
X0071898Y0072716D01*
X0071872Y0072560D01*
X0071842Y0072404D01*
X0071809Y0072249D01*
X0071771Y0072096D01*
X0071730Y0071943D01*
X0071685Y0071791D01*
X0071636Y0071640D01*
X0071583Y0071491D01*
X0071527Y0071343D01*
X0071467Y0071197D01*
X0071403Y0071052D01*
X0071335Y0070909D01*
X0071264Y0070767D01*
X0071190Y0070627D01*
X0071112Y0070490D01*
X0071030Y0070354D01*
X0070946Y0070220D01*
X0070857Y0070089D01*
X0070766Y0069960D01*
X0070671Y0069833D01*
X0070574Y0069708D01*
X0070473Y0069586D01*
X0070369Y0069467D01*
X0070262Y0069350D01*
X0070152Y0069236D01*
X0070039Y0069125D01*
X0069924Y0069016D01*
X0069806Y0068911D01*
X0069685Y0068809D01*
X0069562Y0068709D01*
X0069436Y0068613D01*
X0069308Y0068520D01*
X0069178Y0068430D01*
X0069045Y0068344D01*
X0068910Y0068260D01*
X0068774Y0068181D01*
X0068635Y0068104D01*
X0068494Y0068032D01*
X0068352Y0067962D01*
X0068208Y0067897D01*
X0068062Y0067835D01*
X0067915Y0067777D01*
X0067766Y0067722D01*
X0067616Y0067671D01*
X0067465Y0067624D01*
X0067313Y0067581D01*
X0067160Y0067542D01*
X0067005Y0067506D01*
X0066850Y0067475D01*
X0066694Y0067447D01*
X0066538Y0067423D01*
X0066381Y0067403D01*
X0066223Y0067387D01*
X0066066Y0067375D01*
X0065907Y0067367D01*
X0065749Y0067363D01*
X0065591Y0067363D01*
X0065433Y0067367D01*
X0065274Y0067375D01*
X0065117Y0067387D01*
X0064959Y0067403D01*
X0064802Y0067423D01*
X0064646Y0067447D01*
X0064490Y0067475D01*
X0064335Y0067506D01*
X0064180Y0067542D01*
X0064027Y0067581D01*
X0063875Y0067624D01*
X0063724Y0067671D01*
X0063574Y0067722D01*
X0063425Y0067777D01*
X0063278Y0067835D01*
X0063132Y0067897D01*
X0062988Y0067962D01*
X0062846Y0068032D01*
X0062705Y0068104D01*
X0062566Y0068181D01*
X0062430Y0068260D01*
X0062295Y0068344D01*
X0062162Y0068430D01*
X0062032Y0068520D01*
X0061904Y0068613D01*
X0061778Y0068709D01*
X0061655Y0068809D01*
X0061534Y0068911D01*
X0061416Y0069016D01*
X0061301Y0069125D01*
X0061188Y0069236D01*
X0061078Y0069350D01*
X0060971Y0069467D01*
X0060867Y0069586D01*
X0060766Y0069708D01*
X0060669Y0069833D01*
X0060574Y0069960D01*
X0060483Y0070089D01*
X0060394Y0070220D01*
X0060310Y0070354D01*
X0060228Y0070490D01*
X0060150Y0070627D01*
X0060076Y0070767D01*
X0060005Y0070909D01*
X0059937Y0071052D01*
X0059873Y0071197D01*
X0059813Y0071343D01*
X0059757Y0071491D01*
X0059704Y0071640D01*
X0059655Y0071791D01*
X0059610Y0071943D01*
X0059569Y0072096D01*
X0059531Y0072249D01*
X0059498Y0072404D01*
X0059468Y0072560D01*
X0059442Y0072716D01*
X0059421Y0072873D01*
X0059403Y0073030D01*
X0059389Y0073188D01*
X0059379Y0073346D01*
X0059373Y0073504D01*
X0059371Y0073662D01*
X0059371Y0404371D02*
X0059373Y0404529D01*
X0059379Y0404687D01*
X0059389Y0404845D01*
X0059403Y0405003D01*
X0059421Y0405160D01*
X0059442Y0405317D01*
X0059468Y0405473D01*
X0059498Y0405629D01*
X0059531Y0405784D01*
X0059569Y0405937D01*
X0059610Y0406090D01*
X0059655Y0406242D01*
X0059704Y0406393D01*
X0059757Y0406542D01*
X0059813Y0406690D01*
X0059873Y0406836D01*
X0059937Y0406981D01*
X0060005Y0407124D01*
X0060076Y0407266D01*
X0060150Y0407406D01*
X0060228Y0407543D01*
X0060310Y0407679D01*
X0060394Y0407813D01*
X0060483Y0407944D01*
X0060574Y0408073D01*
X0060669Y0408200D01*
X0060766Y0408325D01*
X0060867Y0408447D01*
X0060971Y0408566D01*
X0061078Y0408683D01*
X0061188Y0408797D01*
X0061301Y0408908D01*
X0061416Y0409017D01*
X0061534Y0409122D01*
X0061655Y0409224D01*
X0061778Y0409324D01*
X0061904Y0409420D01*
X0062032Y0409513D01*
X0062162Y0409603D01*
X0062295Y0409689D01*
X0062430Y0409773D01*
X0062566Y0409852D01*
X0062705Y0409929D01*
X0062846Y0410001D01*
X0062988Y0410071D01*
X0063132Y0410136D01*
X0063278Y0410198D01*
X0063425Y0410256D01*
X0063574Y0410311D01*
X0063724Y0410362D01*
X0063875Y0410409D01*
X0064027Y0410452D01*
X0064180Y0410491D01*
X0064335Y0410527D01*
X0064490Y0410558D01*
X0064646Y0410586D01*
X0064802Y0410610D01*
X0064959Y0410630D01*
X0065117Y0410646D01*
X0065274Y0410658D01*
X0065433Y0410666D01*
X0065591Y0410670D01*
X0065749Y0410670D01*
X0065907Y0410666D01*
X0066066Y0410658D01*
X0066223Y0410646D01*
X0066381Y0410630D01*
X0066538Y0410610D01*
X0066694Y0410586D01*
X0066850Y0410558D01*
X0067005Y0410527D01*
X0067160Y0410491D01*
X0067313Y0410452D01*
X0067465Y0410409D01*
X0067616Y0410362D01*
X0067766Y0410311D01*
X0067915Y0410256D01*
X0068062Y0410198D01*
X0068208Y0410136D01*
X0068352Y0410071D01*
X0068494Y0410001D01*
X0068635Y0409929D01*
X0068774Y0409852D01*
X0068910Y0409773D01*
X0069045Y0409689D01*
X0069178Y0409603D01*
X0069308Y0409513D01*
X0069436Y0409420D01*
X0069562Y0409324D01*
X0069685Y0409224D01*
X0069806Y0409122D01*
X0069924Y0409017D01*
X0070039Y0408908D01*
X0070152Y0408797D01*
X0070262Y0408683D01*
X0070369Y0408566D01*
X0070473Y0408447D01*
X0070574Y0408325D01*
X0070671Y0408200D01*
X0070766Y0408073D01*
X0070857Y0407944D01*
X0070946Y0407813D01*
X0071030Y0407679D01*
X0071112Y0407543D01*
X0071190Y0407406D01*
X0071264Y0407266D01*
X0071335Y0407124D01*
X0071403Y0406981D01*
X0071467Y0406836D01*
X0071527Y0406690D01*
X0071583Y0406542D01*
X0071636Y0406393D01*
X0071685Y0406242D01*
X0071730Y0406090D01*
X0071771Y0405937D01*
X0071809Y0405784D01*
X0071842Y0405629D01*
X0071872Y0405473D01*
X0071898Y0405317D01*
X0071919Y0405160D01*
X0071937Y0405003D01*
X0071951Y0404845D01*
X0071961Y0404687D01*
X0071967Y0404529D01*
X0071969Y0404371D01*
X0071967Y0404213D01*
X0071961Y0404055D01*
X0071951Y0403897D01*
X0071937Y0403739D01*
X0071919Y0403582D01*
X0071898Y0403425D01*
X0071872Y0403269D01*
X0071842Y0403113D01*
X0071809Y0402958D01*
X0071771Y0402805D01*
X0071730Y0402652D01*
X0071685Y0402500D01*
X0071636Y0402349D01*
X0071583Y0402200D01*
X0071527Y0402052D01*
X0071467Y0401906D01*
X0071403Y0401761D01*
X0071335Y0401618D01*
X0071264Y0401476D01*
X0071190Y0401336D01*
X0071112Y0401199D01*
X0071030Y0401063D01*
X0070946Y0400929D01*
X0070857Y0400798D01*
X0070766Y0400669D01*
X0070671Y0400542D01*
X0070574Y0400417D01*
X0070473Y0400295D01*
X0070369Y0400176D01*
X0070262Y0400059D01*
X0070152Y0399945D01*
X0070039Y0399834D01*
X0069924Y0399725D01*
X0069806Y0399620D01*
X0069685Y0399518D01*
X0069562Y0399418D01*
X0069436Y0399322D01*
X0069308Y0399229D01*
X0069178Y0399139D01*
X0069045Y0399053D01*
X0068910Y0398969D01*
X0068774Y0398890D01*
X0068635Y0398813D01*
X0068494Y0398741D01*
X0068352Y0398671D01*
X0068208Y0398606D01*
X0068062Y0398544D01*
X0067915Y0398486D01*
X0067766Y0398431D01*
X0067616Y0398380D01*
X0067465Y0398333D01*
X0067313Y0398290D01*
X0067160Y0398251D01*
X0067005Y0398215D01*
X0066850Y0398184D01*
X0066694Y0398156D01*
X0066538Y0398132D01*
X0066381Y0398112D01*
X0066223Y0398096D01*
X0066066Y0398084D01*
X0065907Y0398076D01*
X0065749Y0398072D01*
X0065591Y0398072D01*
X0065433Y0398076D01*
X0065274Y0398084D01*
X0065117Y0398096D01*
X0064959Y0398112D01*
X0064802Y0398132D01*
X0064646Y0398156D01*
X0064490Y0398184D01*
X0064335Y0398215D01*
X0064180Y0398251D01*
X0064027Y0398290D01*
X0063875Y0398333D01*
X0063724Y0398380D01*
X0063574Y0398431D01*
X0063425Y0398486D01*
X0063278Y0398544D01*
X0063132Y0398606D01*
X0062988Y0398671D01*
X0062846Y0398741D01*
X0062705Y0398813D01*
X0062566Y0398890D01*
X0062430Y0398969D01*
X0062295Y0399053D01*
X0062162Y0399139D01*
X0062032Y0399229D01*
X0061904Y0399322D01*
X0061778Y0399418D01*
X0061655Y0399518D01*
X0061534Y0399620D01*
X0061416Y0399725D01*
X0061301Y0399834D01*
X0061188Y0399945D01*
X0061078Y0400059D01*
X0060971Y0400176D01*
X0060867Y0400295D01*
X0060766Y0400417D01*
X0060669Y0400542D01*
X0060574Y0400669D01*
X0060483Y0400798D01*
X0060394Y0400929D01*
X0060310Y0401063D01*
X0060228Y0401199D01*
X0060150Y0401336D01*
X0060076Y0401476D01*
X0060005Y0401618D01*
X0059937Y0401761D01*
X0059873Y0401906D01*
X0059813Y0402052D01*
X0059757Y0402200D01*
X0059704Y0402349D01*
X0059655Y0402500D01*
X0059610Y0402652D01*
X0059569Y0402805D01*
X0059531Y0402958D01*
X0059498Y0403113D01*
X0059468Y0403269D01*
X0059442Y0403425D01*
X0059421Y0403582D01*
X0059403Y0403739D01*
X0059389Y0403897D01*
X0059379Y0404055D01*
X0059373Y0404213D01*
X0059371Y0404371D01*
X0390080Y0073662D02*
X0390082Y0073820D01*
X0390088Y0073978D01*
X0390098Y0074136D01*
X0390112Y0074294D01*
X0390130Y0074451D01*
X0390151Y0074608D01*
X0390177Y0074764D01*
X0390207Y0074920D01*
X0390240Y0075075D01*
X0390278Y0075228D01*
X0390319Y0075381D01*
X0390364Y0075533D01*
X0390413Y0075684D01*
X0390466Y0075833D01*
X0390522Y0075981D01*
X0390582Y0076127D01*
X0390646Y0076272D01*
X0390714Y0076415D01*
X0390785Y0076557D01*
X0390859Y0076697D01*
X0390937Y0076834D01*
X0391019Y0076970D01*
X0391103Y0077104D01*
X0391192Y0077235D01*
X0391283Y0077364D01*
X0391378Y0077491D01*
X0391475Y0077616D01*
X0391576Y0077738D01*
X0391680Y0077857D01*
X0391787Y0077974D01*
X0391897Y0078088D01*
X0392010Y0078199D01*
X0392125Y0078308D01*
X0392243Y0078413D01*
X0392364Y0078515D01*
X0392487Y0078615D01*
X0392613Y0078711D01*
X0392741Y0078804D01*
X0392871Y0078894D01*
X0393004Y0078980D01*
X0393139Y0079064D01*
X0393275Y0079143D01*
X0393414Y0079220D01*
X0393555Y0079292D01*
X0393697Y0079362D01*
X0393841Y0079427D01*
X0393987Y0079489D01*
X0394134Y0079547D01*
X0394283Y0079602D01*
X0394433Y0079653D01*
X0394584Y0079700D01*
X0394736Y0079743D01*
X0394889Y0079782D01*
X0395044Y0079818D01*
X0395199Y0079849D01*
X0395355Y0079877D01*
X0395511Y0079901D01*
X0395668Y0079921D01*
X0395826Y0079937D01*
X0395983Y0079949D01*
X0396142Y0079957D01*
X0396300Y0079961D01*
X0396458Y0079961D01*
X0396616Y0079957D01*
X0396775Y0079949D01*
X0396932Y0079937D01*
X0397090Y0079921D01*
X0397247Y0079901D01*
X0397403Y0079877D01*
X0397559Y0079849D01*
X0397714Y0079818D01*
X0397869Y0079782D01*
X0398022Y0079743D01*
X0398174Y0079700D01*
X0398325Y0079653D01*
X0398475Y0079602D01*
X0398624Y0079547D01*
X0398771Y0079489D01*
X0398917Y0079427D01*
X0399061Y0079362D01*
X0399203Y0079292D01*
X0399344Y0079220D01*
X0399483Y0079143D01*
X0399619Y0079064D01*
X0399754Y0078980D01*
X0399887Y0078894D01*
X0400017Y0078804D01*
X0400145Y0078711D01*
X0400271Y0078615D01*
X0400394Y0078515D01*
X0400515Y0078413D01*
X0400633Y0078308D01*
X0400748Y0078199D01*
X0400861Y0078088D01*
X0400971Y0077974D01*
X0401078Y0077857D01*
X0401182Y0077738D01*
X0401283Y0077616D01*
X0401380Y0077491D01*
X0401475Y0077364D01*
X0401566Y0077235D01*
X0401655Y0077104D01*
X0401739Y0076970D01*
X0401821Y0076834D01*
X0401899Y0076697D01*
X0401973Y0076557D01*
X0402044Y0076415D01*
X0402112Y0076272D01*
X0402176Y0076127D01*
X0402236Y0075981D01*
X0402292Y0075833D01*
X0402345Y0075684D01*
X0402394Y0075533D01*
X0402439Y0075381D01*
X0402480Y0075228D01*
X0402518Y0075075D01*
X0402551Y0074920D01*
X0402581Y0074764D01*
X0402607Y0074608D01*
X0402628Y0074451D01*
X0402646Y0074294D01*
X0402660Y0074136D01*
X0402670Y0073978D01*
X0402676Y0073820D01*
X0402678Y0073662D01*
X0402676Y0073504D01*
X0402670Y0073346D01*
X0402660Y0073188D01*
X0402646Y0073030D01*
X0402628Y0072873D01*
X0402607Y0072716D01*
X0402581Y0072560D01*
X0402551Y0072404D01*
X0402518Y0072249D01*
X0402480Y0072096D01*
X0402439Y0071943D01*
X0402394Y0071791D01*
X0402345Y0071640D01*
X0402292Y0071491D01*
X0402236Y0071343D01*
X0402176Y0071197D01*
X0402112Y0071052D01*
X0402044Y0070909D01*
X0401973Y0070767D01*
X0401899Y0070627D01*
X0401821Y0070490D01*
X0401739Y0070354D01*
X0401655Y0070220D01*
X0401566Y0070089D01*
X0401475Y0069960D01*
X0401380Y0069833D01*
X0401283Y0069708D01*
X0401182Y0069586D01*
X0401078Y0069467D01*
X0400971Y0069350D01*
X0400861Y0069236D01*
X0400748Y0069125D01*
X0400633Y0069016D01*
X0400515Y0068911D01*
X0400394Y0068809D01*
X0400271Y0068709D01*
X0400145Y0068613D01*
X0400017Y0068520D01*
X0399887Y0068430D01*
X0399754Y0068344D01*
X0399619Y0068260D01*
X0399483Y0068181D01*
X0399344Y0068104D01*
X0399203Y0068032D01*
X0399061Y0067962D01*
X0398917Y0067897D01*
X0398771Y0067835D01*
X0398624Y0067777D01*
X0398475Y0067722D01*
X0398325Y0067671D01*
X0398174Y0067624D01*
X0398022Y0067581D01*
X0397869Y0067542D01*
X0397714Y0067506D01*
X0397559Y0067475D01*
X0397403Y0067447D01*
X0397247Y0067423D01*
X0397090Y0067403D01*
X0396932Y0067387D01*
X0396775Y0067375D01*
X0396616Y0067367D01*
X0396458Y0067363D01*
X0396300Y0067363D01*
X0396142Y0067367D01*
X0395983Y0067375D01*
X0395826Y0067387D01*
X0395668Y0067403D01*
X0395511Y0067423D01*
X0395355Y0067447D01*
X0395199Y0067475D01*
X0395044Y0067506D01*
X0394889Y0067542D01*
X0394736Y0067581D01*
X0394584Y0067624D01*
X0394433Y0067671D01*
X0394283Y0067722D01*
X0394134Y0067777D01*
X0393987Y0067835D01*
X0393841Y0067897D01*
X0393697Y0067962D01*
X0393555Y0068032D01*
X0393414Y0068104D01*
X0393275Y0068181D01*
X0393139Y0068260D01*
X0393004Y0068344D01*
X0392871Y0068430D01*
X0392741Y0068520D01*
X0392613Y0068613D01*
X0392487Y0068709D01*
X0392364Y0068809D01*
X0392243Y0068911D01*
X0392125Y0069016D01*
X0392010Y0069125D01*
X0391897Y0069236D01*
X0391787Y0069350D01*
X0391680Y0069467D01*
X0391576Y0069586D01*
X0391475Y0069708D01*
X0391378Y0069833D01*
X0391283Y0069960D01*
X0391192Y0070089D01*
X0391103Y0070220D01*
X0391019Y0070354D01*
X0390937Y0070490D01*
X0390859Y0070627D01*
X0390785Y0070767D01*
X0390714Y0070909D01*
X0390646Y0071052D01*
X0390582Y0071197D01*
X0390522Y0071343D01*
X0390466Y0071491D01*
X0390413Y0071640D01*
X0390364Y0071791D01*
X0390319Y0071943D01*
X0390278Y0072096D01*
X0390240Y0072249D01*
X0390207Y0072404D01*
X0390177Y0072560D01*
X0390151Y0072716D01*
X0390130Y0072873D01*
X0390112Y0073030D01*
X0390098Y0073188D01*
X0390088Y0073346D01*
X0390082Y0073504D01*
X0390080Y0073662D01*
D14*
X0191336Y0338831D02*
X0190558Y0338831D01*
X0191336Y0338830D02*
X0191392Y0338832D01*
X0191447Y0338838D01*
X0191501Y0338848D01*
X0191555Y0338862D01*
X0191608Y0338879D01*
X0191659Y0338900D01*
X0191709Y0338925D01*
X0191757Y0338954D01*
X0191802Y0338985D01*
X0191845Y0339020D01*
X0191886Y0339058D01*
X0191924Y0339099D01*
X0191959Y0339142D01*
X0191990Y0339187D01*
X0192019Y0339235D01*
X0192044Y0339285D01*
X0192065Y0339336D01*
X0192082Y0339389D01*
X0192096Y0339443D01*
X0192106Y0339497D01*
X0192112Y0339552D01*
X0192114Y0339608D01*
X0192112Y0339664D01*
X0192106Y0339719D01*
X0192096Y0339773D01*
X0192082Y0339827D01*
X0192065Y0339880D01*
X0192044Y0339931D01*
X0192019Y0339981D01*
X0191990Y0340029D01*
X0191959Y0340074D01*
X0191924Y0340117D01*
X0191886Y0340158D01*
X0191845Y0340196D01*
X0191802Y0340231D01*
X0191757Y0340262D01*
X0191709Y0340291D01*
X0191659Y0340316D01*
X0191608Y0340337D01*
X0191555Y0340354D01*
X0191501Y0340368D01*
X0191447Y0340378D01*
X0191392Y0340384D01*
X0191336Y0340386D01*
X0191492Y0340386D02*
X0190869Y0340386D01*
X0191492Y0340386D02*
X0191541Y0340388D01*
X0191589Y0340394D01*
X0191637Y0340403D01*
X0191684Y0340416D01*
X0191730Y0340433D01*
X0191774Y0340454D01*
X0191817Y0340478D01*
X0191858Y0340505D01*
X0191896Y0340535D01*
X0191932Y0340568D01*
X0191965Y0340604D01*
X0191995Y0340642D01*
X0192022Y0340683D01*
X0192046Y0340726D01*
X0192067Y0340770D01*
X0192084Y0340816D01*
X0192097Y0340863D01*
X0192106Y0340911D01*
X0192112Y0340959D01*
X0192114Y0341008D01*
X0192112Y0341057D01*
X0192106Y0341105D01*
X0192097Y0341153D01*
X0192084Y0341200D01*
X0192067Y0341246D01*
X0192046Y0341290D01*
X0192022Y0341333D01*
X0191995Y0341374D01*
X0191965Y0341412D01*
X0191932Y0341448D01*
X0191896Y0341481D01*
X0191858Y0341511D01*
X0191817Y0341538D01*
X0191774Y0341562D01*
X0191730Y0341583D01*
X0191684Y0341600D01*
X0191637Y0341613D01*
X0191589Y0341622D01*
X0191541Y0341628D01*
X0191492Y0341630D01*
X0191492Y0341631D02*
X0190558Y0341631D01*
X0182780Y0340349D02*
X0181458Y0338794D01*
X0183014Y0338794D01*
X0181459Y0340971D02*
X0181478Y0341024D01*
X0181500Y0341076D01*
X0181526Y0341126D01*
X0181555Y0341175D01*
X0181586Y0341222D01*
X0181621Y0341267D01*
X0181658Y0341309D01*
X0181698Y0341349D01*
X0181741Y0341386D01*
X0181785Y0341421D01*
X0181832Y0341453D01*
X0181881Y0341482D01*
X0181931Y0341507D01*
X0181983Y0341530D01*
X0182036Y0341549D01*
X0182090Y0341565D01*
X0182145Y0341577D01*
X0182201Y0341586D01*
X0182258Y0341591D01*
X0182314Y0341593D01*
X0182314Y0341594D02*
X0182364Y0341592D01*
X0182414Y0341587D01*
X0182463Y0341578D01*
X0182511Y0341566D01*
X0182559Y0341550D01*
X0182605Y0341531D01*
X0182649Y0341508D01*
X0182692Y0341483D01*
X0182733Y0341454D01*
X0182772Y0341423D01*
X0182809Y0341389D01*
X0182843Y0341352D01*
X0182874Y0341313D01*
X0182903Y0341272D01*
X0182928Y0341229D01*
X0182951Y0341185D01*
X0182970Y0341139D01*
X0182986Y0341091D01*
X0182998Y0341043D01*
X0183007Y0340994D01*
X0183012Y0340944D01*
X0183014Y0340894D01*
X0183012Y0340843D01*
X0183007Y0340793D01*
X0182999Y0340743D01*
X0182987Y0340693D01*
X0182972Y0340645D01*
X0182953Y0340598D01*
X0182932Y0340552D01*
X0182907Y0340507D01*
X0182880Y0340465D01*
X0182849Y0340424D01*
X0182816Y0340386D01*
X0182781Y0340349D01*
X0174502Y0338831D02*
X0172946Y0338831D01*
X0173724Y0338831D02*
X0173724Y0341631D01*
X0172946Y0341008D01*
X0194039Y0366453D02*
X0195595Y0366453D01*
X0195128Y0367075D02*
X0195128Y0365831D01*
X0194039Y0366453D02*
X0194662Y0368631D01*
X0172063Y0378201D02*
X0169508Y0378201D01*
X0170786Y0378201D02*
X0170786Y0382801D01*
X0169508Y0381779D01*
X0169508Y0418201D02*
X0172063Y0418201D01*
X0169508Y0418201D02*
X0171680Y0420756D01*
X0170913Y0422800D02*
X0170839Y0422798D01*
X0170765Y0422793D01*
X0170691Y0422783D01*
X0170618Y0422770D01*
X0170545Y0422754D01*
X0170474Y0422733D01*
X0170404Y0422709D01*
X0170335Y0422682D01*
X0170267Y0422651D01*
X0170201Y0422617D01*
X0170137Y0422580D01*
X0170075Y0422539D01*
X0170015Y0422495D01*
X0169957Y0422449D01*
X0169901Y0422399D01*
X0169848Y0422347D01*
X0169798Y0422292D01*
X0169751Y0422235D01*
X0169707Y0422175D01*
X0169665Y0422113D01*
X0169627Y0422050D01*
X0169592Y0421984D01*
X0169561Y0421917D01*
X0169533Y0421848D01*
X0169508Y0421778D01*
X0171680Y0420757D02*
X0171727Y0420804D01*
X0171771Y0420854D01*
X0171813Y0420906D01*
X0171852Y0420960D01*
X0171887Y0421016D01*
X0171920Y0421074D01*
X0171950Y0421134D01*
X0171976Y0421195D01*
X0171999Y0421258D01*
X0172018Y0421322D01*
X0172034Y0421386D01*
X0172047Y0421452D01*
X0172056Y0421518D01*
X0172061Y0421584D01*
X0172063Y0421651D01*
X0172061Y0421718D01*
X0172055Y0421785D01*
X0172046Y0421851D01*
X0172032Y0421916D01*
X0172015Y0421981D01*
X0171994Y0422044D01*
X0171969Y0422106D01*
X0171941Y0422167D01*
X0171909Y0422226D01*
X0171874Y0422283D01*
X0171835Y0422338D01*
X0171794Y0422390D01*
X0171749Y0422440D01*
X0171702Y0422487D01*
X0171652Y0422532D01*
X0171600Y0422573D01*
X0171545Y0422612D01*
X0171488Y0422647D01*
X0171429Y0422679D01*
X0171368Y0422707D01*
X0171306Y0422732D01*
X0171243Y0422753D01*
X0171178Y0422770D01*
X0171113Y0422784D01*
X0171047Y0422793D01*
X0170980Y0422799D01*
X0170913Y0422801D01*
X0081812Y0228623D02*
X0081812Y0227639D01*
D15*
X0081812Y0228623D02*
X0081812Y0262087D01*
X0111339Y0262087D01*
X0111339Y0220749D01*
X0081812Y0220749D01*
X0081812Y0228623D01*
X0108269Y0167009D02*
X0108269Y0147324D01*
X0120080Y0147324D01*
X0120080Y0167009D01*
X0108269Y0167009D01*
X0304528Y0346300D02*
X0304528Y0347875D01*
X0304528Y0346300D02*
X0306103Y0346300D01*
X0319489Y0346300D02*
X0321064Y0346300D01*
X0321064Y0347875D01*
X0321064Y0361261D02*
X0321064Y0362835D01*
X0319489Y0362835D01*
X0306103Y0362835D02*
X0304528Y0362835D01*
X0304528Y0361261D01*
X0291552Y0389930D02*
X0291237Y0389930D01*
X0291237Y0410402D01*
X0333796Y0410402D02*
X0339111Y0410402D01*
X0339111Y0389930D01*
X0338914Y0389930D02*
X0336946Y0389930D01*
D16*
X0332281Y0382450D02*
X0332283Y0382506D01*
X0332289Y0382561D01*
X0332299Y0382615D01*
X0332312Y0382669D01*
X0332330Y0382722D01*
X0332351Y0382773D01*
X0332375Y0382823D01*
X0332403Y0382871D01*
X0332435Y0382917D01*
X0332469Y0382961D01*
X0332507Y0383002D01*
X0332547Y0383040D01*
X0332590Y0383075D01*
X0332635Y0383107D01*
X0332683Y0383136D01*
X0332732Y0383162D01*
X0332783Y0383184D01*
X0332835Y0383202D01*
X0332889Y0383216D01*
X0332944Y0383227D01*
X0332999Y0383234D01*
X0333054Y0383237D01*
X0333110Y0383236D01*
X0333165Y0383231D01*
X0333220Y0383222D01*
X0333274Y0383210D01*
X0333327Y0383193D01*
X0333379Y0383173D01*
X0333429Y0383149D01*
X0333477Y0383122D01*
X0333524Y0383092D01*
X0333568Y0383058D01*
X0333610Y0383021D01*
X0333648Y0382981D01*
X0333685Y0382939D01*
X0333718Y0382894D01*
X0333747Y0382848D01*
X0333774Y0382799D01*
X0333796Y0382748D01*
X0333816Y0382696D01*
X0333831Y0382642D01*
X0333843Y0382588D01*
X0333851Y0382533D01*
X0333855Y0382478D01*
X0333855Y0382422D01*
X0333851Y0382367D01*
X0333843Y0382312D01*
X0333831Y0382258D01*
X0333816Y0382204D01*
X0333796Y0382152D01*
X0333774Y0382101D01*
X0333747Y0382052D01*
X0333718Y0382006D01*
X0333685Y0381961D01*
X0333648Y0381919D01*
X0333610Y0381879D01*
X0333568Y0381842D01*
X0333524Y0381808D01*
X0333477Y0381778D01*
X0333429Y0381751D01*
X0333379Y0381727D01*
X0333327Y0381707D01*
X0333274Y0381690D01*
X0333220Y0381678D01*
X0333165Y0381669D01*
X0333110Y0381664D01*
X0333054Y0381663D01*
X0332999Y0381666D01*
X0332944Y0381673D01*
X0332889Y0381684D01*
X0332835Y0381698D01*
X0332783Y0381716D01*
X0332732Y0381738D01*
X0332683Y0381764D01*
X0332635Y0381793D01*
X0332590Y0381825D01*
X0332547Y0381860D01*
X0332507Y0381898D01*
X0332469Y0381939D01*
X0332435Y0381983D01*
X0332403Y0382029D01*
X0332375Y0382077D01*
X0332351Y0382127D01*
X0332330Y0382178D01*
X0332312Y0382231D01*
X0332299Y0382285D01*
X0332289Y0382339D01*
X0332283Y0382394D01*
X0332281Y0382450D01*
D17*
X0403666Y0196166D03*
X0403666Y0182166D03*
X0403666Y0158166D03*
X0403666Y0141166D03*
D18*
X0207537Y0256465D03*
D19*
X0211095Y0255481D02*
X0211095Y0259245D01*
X0214859Y0259245D01*
X0247489Y0259245D02*
X0251253Y0259245D01*
X0251253Y0255481D01*
X0251253Y0222851D02*
X0251253Y0219087D01*
X0247489Y0219087D01*
X0214859Y0219087D02*
X0211095Y0219087D01*
X0211095Y0222851D01*
D20*
X0393280Y0297839D02*
X0393282Y0297878D01*
X0393288Y0297917D01*
X0393298Y0297955D01*
X0393311Y0297992D01*
X0393328Y0298027D01*
X0393348Y0298061D01*
X0393372Y0298092D01*
X0393399Y0298121D01*
X0393428Y0298147D01*
X0393460Y0298170D01*
X0393494Y0298190D01*
X0393530Y0298206D01*
X0393567Y0298218D01*
X0393606Y0298227D01*
X0393645Y0298232D01*
X0393684Y0298233D01*
X0393723Y0298230D01*
X0393762Y0298223D01*
X0393799Y0298212D01*
X0393836Y0298198D01*
X0393871Y0298180D01*
X0393904Y0298159D01*
X0393935Y0298134D01*
X0393963Y0298107D01*
X0393988Y0298077D01*
X0394010Y0298044D01*
X0394029Y0298010D01*
X0394044Y0297974D01*
X0394056Y0297936D01*
X0394064Y0297898D01*
X0394068Y0297859D01*
X0394068Y0297819D01*
X0394064Y0297780D01*
X0394056Y0297742D01*
X0394044Y0297704D01*
X0394029Y0297668D01*
X0394010Y0297634D01*
X0393988Y0297601D01*
X0393963Y0297571D01*
X0393935Y0297544D01*
X0393904Y0297519D01*
X0393871Y0297498D01*
X0393836Y0297480D01*
X0393799Y0297466D01*
X0393762Y0297455D01*
X0393723Y0297448D01*
X0393684Y0297445D01*
X0393645Y0297446D01*
X0393606Y0297451D01*
X0393567Y0297460D01*
X0393530Y0297472D01*
X0393494Y0297488D01*
X0393460Y0297508D01*
X0393428Y0297531D01*
X0393399Y0297557D01*
X0393372Y0297586D01*
X0393348Y0297617D01*
X0393328Y0297651D01*
X0393311Y0297686D01*
X0393298Y0297723D01*
X0393288Y0297761D01*
X0393282Y0297800D01*
X0393280Y0297839D01*
X0403662Y0362442D02*
X0403662Y0371891D01*
X0414686Y0371891D02*
X0414686Y0372284D01*
X0414686Y0362442D02*
X0414686Y0362048D01*
X0404883Y0113662D02*
X0404883Y0113269D01*
X0404883Y0103820D02*
X0404883Y0103426D01*
X0393859Y0103820D02*
X0393859Y0113269D01*
D21*
X0400374Y0327166D02*
X0400374Y0337166D01*
X0387130Y0335959D02*
X0387043Y0335792D01*
X0386960Y0335623D01*
X0386880Y0335453D01*
X0386805Y0335280D01*
X0386734Y0335106D01*
X0386667Y0334930D01*
X0386604Y0334753D01*
X0386545Y0334574D01*
X0386491Y0334394D01*
X0386440Y0334213D01*
X0386394Y0334030D01*
X0386353Y0333847D01*
X0386315Y0333663D01*
X0386282Y0333477D01*
X0386254Y0333291D01*
X0386229Y0333105D01*
X0386209Y0332918D01*
X0386194Y0332730D01*
X0386183Y0332542D01*
X0386176Y0332354D01*
X0386174Y0332166D01*
X0386176Y0331975D01*
X0386183Y0331783D01*
X0386195Y0331591D01*
X0386211Y0331400D01*
X0386231Y0331209D01*
X0386257Y0331019D01*
X0386286Y0330829D01*
X0386321Y0330641D01*
X0386360Y0330453D01*
X0386403Y0330266D01*
X0386451Y0330080D01*
X0386503Y0329895D01*
X0386560Y0329712D01*
X0386621Y0329530D01*
X0386686Y0329350D01*
X0386756Y0329171D01*
X0386830Y0328994D01*
X0386908Y0328819D01*
X0386990Y0328645D01*
X0387077Y0328474D01*
X0387167Y0328305D01*
X0387262Y0328138D01*
X0387361Y0327973D01*
X0275237Y0398564D02*
X0275237Y0411064D01*
X0271737Y0411064D01*
X0271737Y0435564D01*
X0270437Y0436964D01*
X0270237Y0442564D02*
X0269237Y0444564D01*
X0255037Y0444564D01*
X0255437Y0444564D02*
X0241237Y0444564D01*
X0240237Y0442564D01*
X0240237Y0411064D01*
X0235237Y0411064D01*
X0235237Y0398564D01*
X0237737Y0398564D01*
X0237737Y0401064D01*
X0242737Y0401064D01*
X0242737Y0398564D01*
X0247737Y0398564D01*
X0247737Y0401064D01*
X0252737Y0401064D01*
X0252737Y0398564D01*
X0257737Y0398564D01*
X0257737Y0401064D01*
X0262737Y0401064D01*
X0262737Y0398564D01*
X0267737Y0398564D01*
X0267737Y0401064D01*
X0272737Y0401064D01*
X0272737Y0398564D01*
X0275237Y0398564D01*
X0271737Y0411064D02*
X0240237Y0411064D01*
X0238737Y0411064D02*
X0238737Y0435564D01*
X0240037Y0436964D01*
X0270237Y0442564D02*
X0270237Y0411064D01*
D22*
X0401536Y0276103D03*
X0401536Y0266103D03*
D23*
X0161048Y0164040D03*
D24*
X0071469Y0201800D02*
X0033280Y0201800D01*
X0033280Y0236839D01*
X0071469Y0236839D01*
X0071469Y0201800D01*
X0071969Y0238233D02*
X0033780Y0238233D01*
X0033780Y0273272D01*
X0071969Y0273272D01*
X0071969Y0238233D01*
D25*
X0238448Y0404808D02*
X0237493Y0406002D01*
X0241793Y0406002D01*
X0241793Y0404808D02*
X0241793Y0407197D01*
X0267293Y0405263D02*
X0270637Y0404308D01*
X0270637Y0406697D01*
X0269682Y0405980D02*
X0271593Y0405980D01*
D26*
X0322638Y0346694D02*
X0322640Y0346733D01*
X0322646Y0346772D01*
X0322656Y0346810D01*
X0322669Y0346847D01*
X0322686Y0346882D01*
X0322706Y0346916D01*
X0322730Y0346947D01*
X0322757Y0346976D01*
X0322786Y0347002D01*
X0322818Y0347025D01*
X0322852Y0347045D01*
X0322888Y0347061D01*
X0322925Y0347073D01*
X0322964Y0347082D01*
X0323003Y0347087D01*
X0323042Y0347088D01*
X0323081Y0347085D01*
X0323120Y0347078D01*
X0323157Y0347067D01*
X0323194Y0347053D01*
X0323229Y0347035D01*
X0323262Y0347014D01*
X0323293Y0346989D01*
X0323321Y0346962D01*
X0323346Y0346932D01*
X0323368Y0346899D01*
X0323387Y0346865D01*
X0323402Y0346829D01*
X0323414Y0346791D01*
X0323422Y0346753D01*
X0323426Y0346714D01*
X0323426Y0346674D01*
X0323422Y0346635D01*
X0323414Y0346597D01*
X0323402Y0346559D01*
X0323387Y0346523D01*
X0323368Y0346489D01*
X0323346Y0346456D01*
X0323321Y0346426D01*
X0323293Y0346399D01*
X0323262Y0346374D01*
X0323229Y0346353D01*
X0323194Y0346335D01*
X0323157Y0346321D01*
X0323120Y0346310D01*
X0323081Y0346303D01*
X0323042Y0346300D01*
X0323003Y0346301D01*
X0322964Y0346306D01*
X0322925Y0346315D01*
X0322888Y0346327D01*
X0322852Y0346343D01*
X0322818Y0346363D01*
X0322786Y0346386D01*
X0322757Y0346412D01*
X0322730Y0346441D01*
X0322706Y0346472D01*
X0322686Y0346506D01*
X0322669Y0346541D01*
X0322656Y0346578D01*
X0322646Y0346616D01*
X0322640Y0346655D01*
X0322638Y0346694D01*
M02*
